{
.appVersion = "948";
classes = (
{
automatic = 1;
code = "A Aacute Abreve Acircumflex Adieresis Agrave Amacron Aogonek Aring Aringacute Atilde AE AEacute B C Cacute Ccaron Ccedilla Ccircumflex Cdotaccent D Eth Dcaron Dcroat E Eacute Ebreve Ecaron Ecircumflex Edieresis Edotaccent Egrave Emacron Eogonek F G Gbreve Gcircumflex Gcommaaccent Gdotaccent H Hbar Hcircumflex I IJ Iacute Ibreve Icircumflex Idieresis Idotaccent Igrave Imacron Iogonek Itilde J Jcircumflex K Kcommaaccent L Lacute Lcaron Lcommaaccent Ldot Lslash M N Nacute Ncaron Ncommaaccent Eng Ntilde O Oacute Obreve Ocircumflex Odieresis Ograve Ohungarumlaut Omacron Oslash Oslashacute Otilde OE P Thorn Q R Racute Rcaron Rcommaaccent S Sacute Scaron Scedilla Scircumflex Scommaaccent T Tbar Tcaron Tcedilla Tcommaaccent U Uacute Ubreve Ucircumflex Udieresis Ugrave Uhungarumlaut Umacron Uogonek Uring Utilde V W Wacute Wcircumflex Wdieresis Wgrave X Y Yacute Ycircumflex Ydieresis Ygrave Z Zacute Zcaron Zdotaccent A-cy Be-cy Ve-cy Ge-cy Gje-cy Gheupturn-cy De-cy Ie-cy Iegrave-cy Io-cy Zhe-cy Ze-cy Ii-cy Iishort-cy Iigrave-cy Ka-cy Kje-cy El-cy Em-cy En-cy O-cy Pe-cy Er-cy Es-cy Te-cy U-cy Ushort-cy Ef-cy Ha-cy Che-cy Tse-cy Sha-cy Shcha-cy Dzhe-cy Softsign-cy Hardsign-cy Yeru-cy Lje-cy Nje-cy Dze-cy E-cy Ereversed-cy I-cy Yi-cy Je-cy Tshe-cy Iu-cy Ia-cy Dje-cy Yat-cy Yusbig-cy Fita-cy Izhitsa-cy Ghestroke-cy Ghemiddlehook-cy Zhedescender-cy Zedescender-cy Kadescender-cy Kaverticalstroke-cy Kabashkir-cy Endescender-cy Pedescender-cy Esdescender-cy Ustrait-cy Ustraitstroke-cy Chedescender-cy Cheverticalstroke-cy Shha-cy Palochka-cy Zhebreve-cy Chekhakassian-cy Abreve-cy Adieresis-cy Iebreve-cy Schwa-cy Zhedieresis-cy Zedieresis-cy Imacron-cy Idieresis-cy Odieresis-cy Obarred-cy Umacron-cy Udieresis-cy Uhungarumlaut-cy Chedieresis-cy Gedescender-cy Yerudieresis-cy Qa-cy We-cy Delta Omega";
name = Uppercase;
},
{
automatic = 1;
code = "iMatra-deva";
name = DevaIMatras;
},
{
automatic = 1;

glyphs = (
{
glyphname = A;
layers = (
{
layerId = "25D154CF-C470-4D68-A10D-6356F2BE0292";
paths = (
{
closed = 1;
nodes = (
"163 0 LINE",
"180 15 LINE",
"173 31 LINE",
"163 48 OFFCURVE",
"160 65 OFFCURVE",
"160 86 CURVE SMOOTH",
"160 112 OFFCURVE",
"167 141 OFFCURVE",
"180 181 CURVE SMOOTH",
"202 247 LINE",
"411 247 LINE",
"454 120 LINE SMOOTH",
"460 101 OFFCURVE",
"465 89 OFFCURVE",
"465 77 CURVE SMOOTH",
"465 54 OFFCURVE",
"452 43 OFFCURVE",
"425 36 CURVE SMOOTH",
"403 31 LINE",
"413 0 LINE",
"618 0 LINE",
"630 15 LINE",
"591 45 OFFCURVE",
"569 64 OFFCURVE",
"548 126 CURVE SMOOTH",
"365 650 LINE",
"191 650 LINE",
"180 619 LINE",
"201 614 LINE SMOOTH",
"229 608 OFFCURVE",
"241 596 OFFCURVE",
"241 574 CURVE SMOOTH",
"241 563 OFFCURVE",
"237 549 OFFCURVE",
"231 530 CURVE SMOOTH",
"89 120 LINE SMOOTH",
"70 63 OFFCURVE",
"54 50 OFFCURVE",
"6 36 CURVE SMOOTH",
"-15 31 LINE",
"-3 0 LINE"
);
},
{
closed = 1;
nodes = (
"306 558 LINE",
"393 304 LINE",
"222 304 LINE"
);
}
);
width = 639;
}
);
leftKerningGroup = kc0_1;
rightKerningGroup = kc0_1;
unicode = 0041;
},
{
glyphname = Aacute;
layers = (
{
layerId = "25D154CF-C470-4D68-A10D-6356F2BE0292";
paths = (
{
closed = 1;
nodes = (
"163 0 LINE",
"180 15 LINE",
"173 31 LINE",
"163 48 OFFCURVE",
"160 65 OFFCURVE",
"160 86 CURVE SMOOTH",
"160 112 OFFCURVE",
"167 141 OFFCURVE",
"180 181 CURVE SMOOTH",
"202 247 LINE",
"411 247 LINE",
"454 120 LINE SMOOTH",
"460 101 OFFCURVE",
"465 89 OFFCURVE",
"465 77 CURVE SMOOTH",
"465 54 OFFCURVE",
"452 43 OFFCURVE",
"425 36 CURVE SMOOTH",
"403 31 LINE",
"413 0 LINE",
"618 0 LINE",
"630 15 LINE",
"591 45 OFFCURVE",
"569 64 OFFCURVE",
"548 126 CURVE SMOOTH",
"365 650 LINE",
"191 650 LINE",
"180 619 LINE",
"201 614 LINE SMOOTH",
"229 608 OFFCURVE",
"241 596 OFFCURVE",
"241 574 CURVE SMOOTH",
"241 563 OFFCURVE",
"237 549 OFFCURVE",
"231 530 CURVE SMOOTH",
"89 120 LINE SMOOTH",
"70 63 OFFCURVE",
"54 50 OFFCURVE",
"6 36 CURVE SMOOTH",
"-15 31 LINE",
"-3 0 LINE"
);
},
{
closed = 1;
nodes = (
"306 558 LINE",
"393 304 LINE",
"222 304 LINE"
);
},
{
closed = 1;
nodes = (
"359 767 LINE SMOOTH",
"396 784 OFFCURVE",
"409 806 OFFCURVE",
"409 831 CURVE SMOOTH",
"409 858 OFFCURVE",
"395 878 OFFCURVE",
"371 890 CURVE",
"230 747 LINE",
"257 717 LINE"
);
}
);
width = 639;
}
);
leftKerningGroup = kc0_1;
rightKerningGroup = kc0_1;
unicode = 00C1;
},
{
glyphname = Abreve;
layers = (
{
layerId = "25D154CF-C470-4D68-A10D-6356F2BE0292";
paths = (
{
closed = 1;
nodes = (
"163 0 LINE",
"180 15 LINE",
"173 31 LINE",
"163 48 OFFCURVE",
"160 65 OFFCURVE",
"160 86 CURVE SMOOTH",
"160 112 OFFCURVE",
"167 141 OFFCURVE",
"180 181 CURVE SMOOTH",
"202 247 LINE",
"411 247 LINE",
"454 120 LINE SMOOTH",
"460 101 OFFCURVE",
"465 89 OFFCURVE",
"465 77 CURVE SMOOTH",
"465 54 OFFCURVE",
"452 43 OFFCURVE",
"425 36 CURVE SMOOTH",
"403 31 LINE",
"413 0 LINE",
"618 0 LINE",
"630 15 LINE",
"591 45 OFFCURVE",
"569 64 OFFCURVE",
"548 126 CURVE SMOOTH",
"365 650 LINE",
"191 650 LINE",
"180 619 LINE",
"201 614 LINE SMOOTH",
"229 608 OFFCURVE",
"241 596 OFFCURVE",
"241 574 CURVE SMOOTH",
"241 563 OFFCURVE",
"237 549 OFFCURVE",
"231 530 CURVE SMOOTH",
"89 120 LINE SMOOTH",
"70 63 OFFCURVE",
"54 50 OFFCURVE",
"6 36 CURVE SMOOTH",
"-15 31 LINE",
"-3 0 LINE"
);
},
{
closed = 1;
nodes = (
"306 558 LINE",
"393 304 LINE",
"222 304 LINE"
);
},
{
closed = 1;
nodes = (
"369 726 OFFCURVE",
"418 767 OFFCURVE",
"418 852 CURVE",
"368 852 LINE",
"368 815 OFFCURVE",
"341 795 OFFCURVE",
"307 795 CURVE SMOOTH",
"271 795 OFFCURVE",
"242 815 OFFCURVE",
"242 852 CURVE",
"192 852 LINE",
"192 767 OFFCURVE",
"241 726 OFFCURVE",
"307 726 CURVE SMOOTH"
);
}
);
width = 639;
}
);
leftKerningGroup = kc0_1;
rightKerningGroup = kc0_1;
unicode = 0102;
},
{
glyphname = Acircumflex;
layers = (
{
layerId = "25D154CF-C470-4D68-A10D-6356F2BE0292";
paths = (
{
closed = 1;
nodes = (
"163 0 LINE",
"180 15 LINE",
"173 31 LINE",
"163 48 OFFCURVE",
"160 65 OFFCURVE",
"160 86 CURVE SMOOTH",
"160 112 OFFCURVE",
"167 141 OFFCURVE",
"180 181 CURVE SMOOTH",
"202 247 LINE",
"411 247 LINE",
"454 120 LINE SMOOTH",
"460 101 OFFCURVE",
"465 89 OFFCURVE",
"465 77 CURVE SMOOTH",
"465 54 OFFCURVE",
"452 43 OFFCURVE",
"425 36 CURVE SMOOTH",
"403 31 LINE",
"413 0 LINE",
"618 0 LINE",
"630 15 LINE",
"591 45 OFFCURVE",
"569 64 OFFCURVE",
"548 126 CURVE SMOOTH",
"365 650 LINE",
"191 650 LINE",
"180 619 LINE",
"201 614 LINE SMOOTH",
"229 608 OFFCURVE",
"241 596 OFFCURVE",
"241 574 CURVE SMOOTH",
"241 563 OFFCURVE",
"237 549 OFFCURVE",
"231 530 CURVE SMOOTH",
"89 120 LINE SMOOTH",
"70 63 OFFCURVE",
"54 50 OFFCURVE",
"6 36 CURVE SMOOTH",
"-15 31 LINE",
"-3 0 LINE"
);
},
{
closed = 1;
nodes = (
"306 558 LINE",
"393 304 LINE",
"222 304 LINE"
);
},
{
closed = 1;
nodes = (
"319 791 LINE",
"414 717 LINE",
"443 741 LINE",
"403 813 OFFCURVE",
"352 872 OFFCURVE",
"331 884 CURVE",
"308 884 LINE",
"284 870 OFFCURVE",
"234 811 OFFCURVE",
"195 741 CURVE",
"226 717 LINE"
);
}
);
width = 639;
}
);
leftKerningGroup = kc0_1;
rightKerningGroup = kc0_1;
unicode = 00C2;
},
{
glyphname = Adieresis;
layers = (
{
layerId = "25D154CF-C470-4D68-A10D-6356F2BE0292";
paths = (
{
closed = 1;
nodes = (
"163 0 LINE",
"180 15 LINE",
"173 31 LINE",
"163 48 OFFCURVE",
"160 65 OFFCURVE",
"160 86 CURVE SMOOTH",
"160 112 OFFCURVE",
"167 141 OFFCURVE",
"180 181 CURVE SMOOTH",
"202 247 LINE",
"411 247 LINE",
"454 120 LINE SMOOTH",
"460 101 OFFCURVE",
"465 89 OFFCURVE",
"465 77 CURVE SMOOTH",
"465 54 OFFCURVE",
"452 43 OFFCURVE",
"425 36 CURVE SMOOTH",
"403 31 LINE",
"413 0 LINE",
"618 0 LINE",
"630 15 LINE",
"591 45 OFFCURVE",
"569 64 OFFCURVE",
"548 126 CURVE SMOOTH",
"365 650 LINE",
"191 650 LINE",
"180 619 LINE",
"201 614 LINE SMOOTH",
"229 608 OFFCURVE",
"241 596 OFFCURVE",
"241 574 CURVE SMOOTH",
"241 563 OFFCURVE",
"237 549 OFFCURVE",
"231 530 CURVE SMOOTH",
"89 120 LINE SMOOTH",
"70 63 OFFCURVE",
"54 50 OFFCURVE",
"6 36 CURVE SMOOTH",
"-15 31 LINE",
"-3 0 LINE"
);
},
{
closed = 1;
nodes = (
"306 558 LINE",
"393 304 LINE",
"222 304 LINE"
);
},
{
closed = 1;
nodes = (
"255 737 OFFCURVE",
"291 773 OFFCURVE",
"291 796 CURVE SMOOTH",
"291 819 OFFCURVE",
"255 856 OFFCURVE",
"232 856 CURVE SMOOTH",
"211 856 OFFCURVE",
"178 819 OFFCURVE",
"178 796 CURVE SMOOTH",
"178 773 OFFCURVE",
"212 737 OFFCURVE",
"232 737 CURVE SMOOTH"
);
},
{
closed = 1;
nodes = (
"427 737 OFFCURVE",
"462 773 OFFCURVE",
"462 796 CURVE SMOOTH",
"462 819 OFFCURVE",
"427 856 OFFCURVE",
"404 856 CURVE SMOOTH",
"383 856 OFFCURVE",
"349 819 OFFCURVE",
"349 796 CURVE SMOOTH",
"349 773 OFFCURVE",
"384 737 OFFCURVE",
"404 737 CURVE SMOOTH"
);
}
);
width = 639;
}
);
leftKerningGroup = kc0_1;
rightKerningGroup = kc0_1;
unicode = 00C4;
},
{
glyphname = Agrave;
layers = (
{
layerId = "25D154CF-C470-4D68-A10D-6356F2BE0292";
paths = (
{
closed = 1;
nodes = (
"163 0 LINE",
"180 15 LINE",
"173 31 LINE",
"163 48 OFFCURVE",
"160 65 OFFCURVE",
"160 86 CURVE SMOOTH",
"160 112 OFFCURVE",
"167 141 OFFCURVE",
"180 181 CURVE SMOOTH",
"202 247 LINE",
"411 247 LINE",
"454 120 LINE SMOOTH",
"460 101 OFFCURVE",
"465 89 OFFCURVE",
"465 77 CURVE SMOOTH",
"465 54 OFFCURVE",
"452 43 OFFCURVE",
"425 36 CURVE SMOOTH",
"403 31 LINE",
"413 0 LINE",
"618 0 LINE",
"630 15 LINE",
"591 45 OFFCURVE",
"569 64 OFFCURVE",
"548 126 CURVE SMOOTH",
"365 650 LINE",
"191 650 LINE",
"180 619 LINE",
"201 614 LINE SMOOTH",
"229 608 OFFCURVE",
"241 596 OFFCURVE",
"241 574 CURVE SMOOTH",
"241 563 OFFCURVE",
"237 549 OFFCURVE",
"231 530 CURVE SMOOTH",
"89 120 LINE SMOOTH",
"70 63 OFFCURVE",
"54 50 OFFCURVE",
"6 36 CURVE SMOOTH",
"-15 31 LINE",
"-3 0 LINE"
);
},
{
closed = 1;
nodes = (
"306 558 LINE",
"393 304 LINE",
"222 304 LINE"
);
},
{
closed = 1;
nodes = (
"409 747 LINE",
"268 890 LINE",
"244 878 OFFCURVE",
"229 858 OFFCURVE",
"229 831 CURVE SMOOTH",
"229 806 OFFCURVE",
"243 784 OFFCURVE",
"280 767 CURVE SMOOTH",
"384 717 LINE"
);
}
);
width = 639;
}
);
leftKerningGroup = kc0_1;
rightKerningGroup = kc0_1;
unicode = 00C0;
},
{
glyphname = Amacron;
layers = (
{
layerId = "25D154CF-C470-4D68-A10D-6356F2BE0292";
paths = (
{
closed = 1;
nodes = (
"163 0 LINE",
"180 15 LINE",
"173 31 LINE",
"163 48 OFFCURVE",
"160 65 OFFCURVE",
"160 86 CURVE SMOOTH",
"160 112 OFFCURVE",
"167 141 OFFCURVE",
"180 181 CURVE SMOOTH",
"202 247 LINE",
"411 247 LINE",
"454 120 LINE SMOOTH",
"460 101 OFFCURVE",
"465 89 OFFCURVE",
"465 77 CURVE SMOOTH",
"465 54 OFFCURVE",
"452 43 OFFCURVE",
"425 36 CURVE SMOOTH",
"403 31 LINE",
"413 0 LINE",
"618 0 LINE",
"630 15 LINE",
"591 45 OFFCURVE",
"569 64 OFFCURVE",
"548 126 CURVE SMOOTH",
"365 650 LINE",
"191 650 LINE",
"180 619 LINE",
"201 614 LINE SMOOTH",
"229 608 OFFCURVE",
"241 596 OFFCURVE",
"241 574 CURVE SMOOTH",
"241 563 OFFCURVE",
"237 549 OFFCURVE",
"231 530 CURVE SMOOTH",
"89 120 LINE SMOOTH",
"70 63 OFFCURVE",
"54 50 OFFCURVE",
"6 36 CURVE SMOOTH",
"-15 31 LINE",
"-3 0 LINE"
);
},
{
closed = 1;
nodes = (
"306 558 LINE",
"393 304 LINE",
"222 304 LINE"
);
},
{
closed = 1;
nodes = (
"414 760 LINE",
"433 774 OFFCURVE",
"438 807 OFFCURVE",
"438 832 CURVE",
"194 832 LINE",
"177 815 OFFCURVE",
"170 785 OFFCURVE",
"170 760 CURVE"
);
}
);
width = 639;
}
);
leftKerningGroup = kc0_1;
rightKerningGroup = kc0_1;
unicode = 0100;
},
{
glyphname = Aogonek;
layers = (
{
layerId = "25D154CF-C470-4D68-A10D-6356F2BE0292";
paths = (
{
closed = 1;
nodes = (
"529 -253 OFFCURVE",
"580 -223 OFFCURVE",
"630 -160 CURVE",
"600 -133 LINE",
"568 -170 OFFCURVE",
"526 -190 OFFCURVE",
"494 -190 CURVE SMOOTH",
"463 -190 OFFCURVE",
"442 -173 OFFCURVE",
"442 -137 CURVE SMOOTH",
"442 -102 OFFCURVE",
"472 -54 OFFCURVE",
"552 0 CURVE",
"618 0 LINE",
"630 15 LINE",
"591 45 OFFCURVE",
"569 64 OFFCURVE",
"548 126 CURVE SMOOTH",
"365 650 LINE",
"191 650 LINE",
"180 619 LINE",
"201 614 LINE SMOOTH",
"229 608 OFFCURVE",
"241 596 OFFCURVE",
"241 574 CURVE SMOOTH",
"241 563 OFFCURVE",
"237 549 OFFCURVE",
"231 530 CURVE SMOOTH",
"89 120 LINE SMOOTH",
"70 63 OFFCURVE",
"54 50 OFFCURVE",
"6 36 CURVE SMOOTH",
"-15 31 LINE",
"-3 0 LINE",
"163 0 LINE",
"180 15 LINE",
"173 31 LINE",
"163 48 OFFCURVE",
"160 65 OFFCURVE",
"160 86 CURVE SMOOTH",
"160 112 OFFCURVE",
"167 141 OFFCURVE",
"180 181 CURVE SMOOTH",
"202 247 LINE",
"411 247 LINE",
"454 120 LINE SMOOTH",
"460 101 OFFCURVE",
"465 89 OFFCURVE",
"465 77 CURVE SMOOTH",
"465 54 OFFCURVE",
"452 43 OFFCURVE",
"425 36 CURVE SMOOTH",
"403 31 LINE",
"413 0 LINE",
"483 0 LINE",
"406 -56 OFFCURVE",
"369 -100 OFFCURVE",
"369 -157 CURVE SMOOTH",
"369 -218 OFFCURVE",
"412 -253 OFFCURVE",
"470 -253 CURVE SMOOTH"
);
},
{
closed = 1;
nodes = (
"306 558 LINE",
"393 304 LINE",
"222 304 LINE"
);
}
);
width = 639;
}
);
leftKerningGroup = kc0_1;
rightKerningGroup = kc0_1;
unicode = 0104;
},
{
glyphname = Aring;
layers = (
{
layerId = "25D154CF-C470-4D68-A10D-6356F2BE0292";
paths = (
{
closed = 1;
nodes = (
"163 0 LINE",
"180 15 LINE",
"173 31 LINE",
"163 48 OFFCURVE",
"160 65 OFFCURVE",
"160 86 CURVE SMOOTH",
"160 112 OFFCURVE",
"167 141 OFFCURVE",
"180 181 CURVE SMOOTH",
"202 247 LINE",
"411 247 LINE",
"454 120 LINE SMOOTH",
"460 101 OFFCURVE",
"465 89 OFFCURVE",
"465 77 CURVE SMOOTH",
"465 54 OFFCURVE",
"452 43 OFFCURVE",
"425 36 CURVE SMOOTH",
"403 31 LINE",
"413 0 LINE",
"618 0 LINE",
"630 15 LINE",
"591 45 OFFCURVE",
"569 64 OFFCURVE",
"548 126 CURVE SMOOTH",
"365 650 LINE",
"191 650 LINE",
"180 619 LINE",
"201 614 LINE SMOOTH",
"229 608 OFFCURVE",
"241 596 OFFCURVE",
"241 574 CURVE SMOOTH",
"241 563 OFFCURVE",
"237 549 OFFCURVE",
"231 530 CURVE SMOOTH",
"89 120 LINE SMOOTH",
"70 63 OFFCURVE",
"54 50 OFFCURVE",
"6 36 CURVE SMOOTH",
"-15 31 LINE",
"-3 0 LINE"
);
},
{
closed = 1;
nodes = (
"306 558 LINE",
"393 304 LINE",
"222 304 LINE"
);
},
{
closed = 1;
nodes = (
"388 700 OFFCURVE",
"423 742 OFFCURVE",
"423 796 CURVE SMOOTH",
"423 851 OFFCURVE",
"388 894 OFFCURVE",
"318 894 CURVE SMOOTH",
"252 894 OFFCURVE",
"216 851 OFFCURVE",
"216 796 CURVE SMOOTH",
"216 742 OFFCURVE",
"252 700 OFFCURVE",
"318 700 CURVE SMOOTH"
);
},
{
closed = 1;
nodes = (
"295 744 OFFCURVE",
"279 768 OFFCURVE",
"279 796 CURVE SMOOTH",
"279 826 OFFCURVE",
"295 850 OFFCURVE",
"318 850 CURVE SMOOTH",
"345 850 OFFCURVE",
"357 826 OFFCURVE",
"357 796 CURVE SMOOTH",
"357 768 OFFCURVE",
"345 744 OFFCURVE",
"318 744 CURVE SMOOTH"
);
}
);
width = 639;
}
);
leftKerningGroup = kc0_1;
rightKerningGroup = kc0_1;
unicode = 00C5;
},
{
glyphname = Aringacute;
layers = (
{
layerId = "25D154CF-C470-4D68-A10D-6356F2BE0292";
paths = (
{
closed = 1;
nodes = (
"163 0 LINE",
"180 15 LINE",
"173 31 LINE",
"163 48 OFFCURVE",
"160 65 OFFCURVE",
"160 86 CURVE SMOOTH",
"160 112 OFFCURVE",
"167 141 OFFCURVE",
"180 181 CURVE SMOOTH",
"202 247 LINE",
"411 247 LINE",
"454 120 LINE SMOOTH",
"460 101 OFFCURVE",
"465 89 OFFCURVE",
"465 77 CURVE SMOOTH",
"465 54 OFFCURVE",
"452 43 OFFCURVE",
"425 36 CURVE SMOOTH",
"403 31 LINE",
"413 0 LINE",
"618 0 LINE",
"630 15 LINE",
"591 45 OFFCURVE",
"569 64 OFFCURVE",
"548 126 CURVE SMOOTH",
"365 650 LINE",
"191 650 LINE",
"180 619 LINE",
"201 614 LINE SMOOTH",
"229 608 OFFCURVE",
"241 596 OFFCURVE",
"241 574 CURVE SMOOTH",
"241 563 OFFCURVE",
"237 549 OFFCURVE",
"231 530 CURVE SMOOTH",
"89 120 LINE SMOOTH",
"70 63 OFFCURVE",
"54 50 OFFCURVE",
"6 36 CURVE SMOOTH",
"-15 31 LINE",
"-3 0 LINE"
);
},
{
closed = 1;
nodes = (
"306 558 LINE",
"393 304 LINE",
"222 304 LINE"
);
},
{
closed = 1;
nodes = (
"272 744 OFFCURVE",
"258 767 OFFCURVE",
"258 796 CURVE SMOOTH",
"258 826 OFFCURVE",
"272 849 OFFCURVE",
"296 849 CURVE SMOOTH",
"322 849 OFFCURVE",
"336 826 OFFCURVE",
"336 796 CURVE SMOOTH",
"336 767 OFFCURVE",
"322 744 OFFCURVE",
"296 744 CURVE SMOOTH"
);
},
{
closed = 1;
nodes = (
"365 700 OFFCURVE",
"401 742 OFFCURVE",
"401 796 CURVE SMOOTH",
"401 815 OFFCURVE",
"395 835 OFFCURVE",
"386 851 CURVE",
"430 873 LINE SMOOTH",
"463 889 OFFCURVE",
"476 907 OFFCURVE",
"476 931 CURVE SMOOTH",
"476 954 OFFCURVE",
"462 973 OFFCURVE",
"442 982 CURVE",
"343 884 LINE",
"329 889 OFFCURVE",
"314 894 OFFCURVE",
"296 894 CURVE SMOOTH",
"229 894 OFFCURVE",
"194 851 OFFCURVE",
"194 796 CURVE SMOOTH",
"194 742 OFFCURVE",
"229 700 OFFCURVE",
"296 700 CURVE SMOOTH"
);
}
);
width = 639;
}
);
leftKerningGroup = kc0_1;
rightKerningGroup = kc0_1;
unicode = 01FA;
},
{
glyphname = Atilde;
layers = (
{
layerId = "25D154CF-C470-4D68-A10D-6356F2BE0292";
paths = (
{
closed = 1;
nodes = (
"163 0 LINE",
"180 15 LINE",
"173 31 LINE",
"163 48 OFFCURVE",
"160 65 OFFCURVE",
"160 86 CURVE SMOOTH",
"160 112 OFFCURVE",
"167 141 OFFCURVE",
"180 181 CURVE SMOOTH",
"202 247 LINE",
"411 247 LINE",
"454 120 LINE SMOOTH",
"460 101 OFFCURVE",
"465 89 OFFCURVE",
"465 77 CURVE SMOOTH",
"465 54 OFFCURVE",
"452 43 OFFCURVE",
"425 36 CURVE SMOOTH",
"403 31 LINE",
"413 0 LINE",
"618 0 LINE",
"630 15 LINE",
"591 45 OFFCURVE",
"569 64 OFFCURVE",
"548 126 CURVE SMOOTH",
"365 650 LINE",
"191 650 LINE",
"180 619 LINE",
"201 614 LINE SMOOTH",
"229 608 OFFCURVE",
"241 596 OFFCURVE",
"241 574 CURVE SMOOTH",
"241 563 OFFCURVE",
"237 549 OFFCURVE",
"231 530 CURVE SMOOTH",
"89 120 LINE SMOOTH",
"70 63 OFFCURVE",
"54 50 OFFCURVE",
"6 36 CURVE SMOOTH",
"-15 31 LINE",
"-3 0 LINE"
);
},
{
closed = 1;
nodes = (
"306 558 LINE",
"393 304 LINE",
"222 304 LINE"
);
},
{
closed = 1;
nodes = (
"228 761 OFFCURVE",
"249 771 OFFCURVE",
"264 771 CURVE SMOOTH",
"293 771 OFFCURVE",
"309 739 OFFCURVE",
"351 739 CURVE SMOOTH",
"385 739 OFFCURVE",
"429 774 OFFCURVE",
"466 827 CURVE",
"436 856 LINE",
"408 830 OFFCURVE",
"389 819 OFFCURVE",
"373 819 CURVE SMOOTH",
"345 819 OFFCURVE",
"326 852 OFFCURVE",
"288 852 CURVE SMOOTH",
"254 852 OFFCURVE",
"211 817 OFFCURVE",
"172 765 CURVE",
"204 735 LINE"
);
}
);
width = 639;
}
);
leftKerningGroup = kc0_1;
rightKerningGroup = kc0_1;
unicode = 00C3;
},
{
glyphname = AE;
layers = (
{
layerId = "25D154CF-C470-4D68-A10D-6356F2BE0292";
paths = (
{
closed = 1;
nodes = (
"815 -13 LINE",
"815 143 LINE",
"785 152 LINE",
"780 132 LINE SMOOTH",
"763 68 OFFCURVE",
"746 52 OFFCURVE",
"681 52 CURVE SMOOTH",
"583 52 LINE SMOOTH",
"536 52 OFFCURVE",
"525 63 OFFCURVE",
"525 120 CURVE SMOOTH",
"525 277 LINE",
"603 277 LINE SMOOTH",
"667 277 OFFCURVE",
"690 269 OFFCURVE",
"701 226 CURVE SMOOTH",
"706 205 LINE",
"737 216 LINE",
"737 370 LINE",
"719 381 LINE",
"712 370 LINE SMOOTH",
"690 339 OFFCURVE",
"668 328 OFFCURVE",
"640 328 CURVE SMOOTH",
"525 328 LINE",
"525 530 LINE SMOOTH",
"525 586 OFFCURVE",
"536 600 OFFCURVE",
"583 600 CURVE SMOOTH",
"671 600 LINE SMOOTH",
"735 600 OFFCURVE",
"753 583 OFFCURVE",
"770 519 CURVE SMOOTH",
"775 497 LINE",
"807 508 LINE",
"807 669 LINE",
"792 681 LINE",
"775 669 LINE SMOOTH",
"758 655 OFFCURVE",
"724 650 OFFCURVE",
"672 650 CURVE SMOOTH",
"394 650 LINE",
"79 85 LINE SMOOTH",
"60 52 OFFCURVE",
"35 43 OFFCURVE",
"9 36 CURVE SMOOTH",
"-13 31 LINE",
"-2 0 LINE",
"165 0 LINE",
"182 15 LINE",
"174 31 LINE",
"170 41 OFFCURVE",
"162 57 OFFCURVE",
"162 71 CURVE SMOOTH",
"162 90 OFFCURVE",
"163 106 OFFCURVE",
"181 140 CURVE SMOOTH",
"257 277 LINE",
"437 277 LINE",
"437 114 LINE SMOOTH",
"437 61 OFFCURVE",
"425 47 OFFCURVE",
"381 34 CURVE SMOOTH",
"361 29 LINE",
"371 0 LINE",
"753 0 LINE SMOOTH",
"771 0 OFFCURVE",
"785 -3 OFFCURVE",
"791 -13 CURVE",
"798 -22 LINE"
);
},
{
closed = 1;
nodes = (
"437 603 LINE",
"437 328 LINE",
"285 328 LINE"
);
}
);
width = 873;
}
);
unicode = 00C6;
},
{
glyphname = AEacute;
layers = (
{
layerId = "25D154CF-C470-4D68-A10D-6356F2BE0292";
paths = (
{
closed = 1;
nodes = (
"815 -13 LINE",
"815 143 LINE",
"785 152 LINE",
"780 132 LINE SMOOTH",
"763 68 OFFCURVE",
"746 52 OFFCURVE",
"681 52 CURVE SMOOTH",
"583 52 LINE SMOOTH",
"536 52 OFFCURVE",
"525 63 OFFCURVE",
"525 120 CURVE SMOOTH",
"525 277 LINE",
"603 277 LINE SMOOTH",
"667 277 OFFCURVE",
"690 269 OFFCURVE",
"701 226 CURVE SMOOTH",
"706 205 LINE",
"737 216 LINE",
"737 370 LINE",
"719 381 LINE",
"712 370 LINE SMOOTH",
"690 339 OFFCURVE",
"668 328 OFFCURVE",
"640 328 CURVE SMOOTH",
"525 328 LINE",
"525 530 LINE SMOOTH",
"525 586 OFFCURVE",
"536 600 OFFCURVE",
"583 600 CURVE SMOOTH",
"671 600 LINE SMOOTH",
"735 600 OFFCURVE",
"753 583 OFFCURVE",
"770 519 CURVE SMOOTH",
"775 497 LINE",
"807 508 LINE",
"807 669 LINE",
"792 681 LINE",
"775 669 LINE SMOOTH",
"758 655 OFFCURVE",
"724 650 OFFCURVE",
"672 650 CURVE SMOOTH",
"394 650 LINE",
"79 85 LINE SMOOTH",
"60 52 OFFCURVE",
"35 43 OFFCURVE",
"9 36 CURVE SMOOTH",
"-13 31 LINE",
"-2 0 LINE",
"165 0 LINE",
"182 15 LINE",
"174 31 LINE",
"170 41 OFFCURVE",
"162 57 OFFCURVE",
"162 71 CURVE SMOOTH",
"162 90 OFFCURVE",
"163 106 OFFCURVE",
"181 140 CURVE SMOOTH",
"257 277 LINE",
"437 277 LINE",
"437 114 LINE SMOOTH",
"437 61 OFFCURVE",
"425 47 OFFCURVE",
"381 34 CURVE SMOOTH",
"361 29 LINE",
"371 0 LINE",
"753 0 LINE SMOOTH",
"771 0 OFFCURVE",
"785 -3 OFFCURVE",
"791 -13 CURVE",
"798 -22 LINE"
);
},
{
closed = 1;
nodes = (
"437 603 LINE",
"437 328 LINE",
"285 328 LINE"
);
},
{
closed = 1;
nodes = (
"636 766 LINE SMOOTH",
"673 784 OFFCURVE",
"687 805 OFFCURVE",
"687 832 CURVE SMOOTH",
"687 857 OFFCURVE",
"670 878 OFFCURVE",
"648 889 CURVE",
"507 747 LINE",
"533 716 LINE"
);
}
);
width = 873;
}
);
unicode = 01FC;
},
{
glyphname = B;
layers = (
{
layerId = "25D154CF-C470-4D68-A10D-6356F2BE0292";
paths = (
{
closed = 1;
nodes = (
"305 0 LINE SMOOTH",
"478 0 OFFCURVE",
"539 76 OFFCURVE",
"539 179 CURVE SMOOTH",
"539 243 OFFCURVE",
"492 302 OFFCURVE",
"411 329 CURVE",
"477 360 OFFCURVE",
"506 420 OFFCURVE",
"506 485 CURVE SMOOTH",
"506 583 OFFCURVE",
"437 663 OFFCURVE",
"261 663 CURVE SMOOTH",
"177 663 OFFCURVE",
"82 641 OFFCURVE",
"36 623 CURVE",
"47 589 LINE",
"100 589 LINE SMOOTH",
"113 589 OFFCURVE",
"119 584 OFFCURVE",
"119 568 CURVE SMOOTH",
"119 120 LINE SMOOTH",
"119 63 OFFCURVE",
"106 50 OFFCURVE",
"62 36 CURVE",
"40 31 LINE",
"52 0 LINE"
);
},
{
closed = 1;
nodes = (
"274 47 OFFCURVE",
"210 52 OFFCURVE",
"210 166 CURVE SMOOTH",
"210 570 LINE SMOOTH",
"210 587 OFFCURVE",
"217 613 OFFCURVE",
"271 613 CURVE SMOOTH",
"366 613 OFFCURVE",
"417 558 OFFCURVE",
"417 483 CURVE SMOOTH",
"417 405 OFFCURVE",
"370 352 OFFCURVE",
"287 352 CURVE SMOOTH",
"260 352 OFFCURVE",
"250 356 OFFCURVE",
"241 356 CURVE SMOOTH",
"232 356 OFFCURVE",
"229 351 OFFCURVE",
"229 341 CURVE SMOOTH",
"229 334 OFFCURVE",
"232 325 OFFCURVE",
"242 320 CURVE",
"256 314 OFFCURVE",
"280 309 OFFCURVE",
"303 309 CURVE SMOOTH",
"392 309 OFFCURVE",
"445 251 OFFCURVE",
"445 183 CURVE SMOOTH",
"445 104 OFFCURVE",
"396 47 OFFCURVE",
"310 47 CURVE SMOOTH"
);
}
);
width = 589;
}
);
unicode = 0042;
},
{
glyphname = C;
layers = (
{
layerId = "25D154CF-C470-4D68-A10D-6356F2BE0292";
paths = (
{
closed = 1;
nodes = (
"418 -13 OFFCURVE",
"485 33 OFFCURVE",
"533 102 CURVE",
"534 104 OFFCURVE",
"535 107 OFFCURVE",
"535 109 CURVE SMOOTH",
"535 122 OFFCURVE",
"518 135 OFFCURVE",
"506 135 CURVE SMOOTH",
"503 135 OFFCURVE",
"502 134 OFFCURVE",
"500 131 CURVE SMOOTH",
"467 82 OFFCURVE",
"409 50 OFFCURVE",
"329 50 CURVE SMOOTH",
"209 50 OFFCURVE",
"134 174 OFFCURVE",
"134 324 CURVE SMOOTH",
"134 460 OFFCURVE",
"182 613 OFFCURVE",
"324 613 CURVE SMOOTH",
"394 613 OFFCURVE",
"439 573 OFFCURVE",
"439 518 CURVE SMOOTH",
"439 468 OFFCURVE",
"411 444 OFFCURVE",
"411 436 CURVE SMOOTH",
"411 429 OFFCURVE",
"418 425 OFFCURVE",
"432 425 CURVE SMOOTH",
"486 425 OFFCURVE",
"527 468 OFFCURVE",
"527 530 CURVE SMOOTH",
"527 609 OFFCURVE",
"443 663 OFFCURVE",
"324 663 CURVE SMOOTH",
"126 663 OFFCURVE",
"32 512 OFFCURVE",
"32 324 CURVE SMOOTH",
"32 139 OFFCURVE",
"126 -13 OFFCURVE",
"321 -13 CURVE SMOOTH"
);
}
);
width = 559;
}
);
leftKerningGroup = kc0_2;
unicode = 0043;
},
{
glyphname = Cacute;
layers = (
{
layerId = "25D154CF-C470-4D68-A10D-6356F2BE0292";
paths = (
{
closed = 1;
nodes = (
"418 -13 OFFCURVE",
"485 33 OFFCURVE",
"533 102 CURVE",
"534 104 OFFCURVE",
"535 107 OFFCURVE",
"535 109 CURVE SMOOTH",
"535 122 OFFCURVE",
"518 135 OFFCURVE",
"506 135 CURVE SMOOTH",
"503 135 OFFCURVE",
"502 134 OFFCURVE",
"500 131 CURVE SMOOTH",
"467 82 OFFCURVE",
"409 50 OFFCURVE",
"329 50 CURVE SMOOTH",
"209 50 OFFCURVE",
"134 174 OFFCURVE",
"134 324 CURVE SMOOTH",
"134 460 OFFCURVE",
"182 613 OFFCURVE",
"324 613 CURVE SMOOTH",
"394 613 OFFCURVE",
"439 573 OFFCURVE",
"439 518 CURVE SMOOTH",
"439 468 OFFCURVE",
"411 444 OFFCURVE",
"411 436 CURVE SMOOTH",
"411 429 OFFCURVE",
"418 425 OFFCURVE",
"432 425 CURVE SMOOTH",
"486 425 OFFCURVE",
"527 468 OFFCURVE",
"527 530 CURVE SMOOTH",
"527 609 OFFCURVE",
"443 663 OFFCURVE",
"324 663 CURVE SMOOTH",
"126 663 OFFCURVE",
"32 512 OFFCURVE",
"32 324 CURVE SMOOTH",
"32 139 OFFCURVE",
"126 -13 OFFCURVE",
"321 -13 CURVE SMOOTH"
);
},
{
closed = 1;
nodes = (
"365 766 LINE SMOOTH",
"402 784 OFFCURVE",
"417 805 OFFCURVE",
"417 832 CURVE SMOOTH",
"417 857 OFFCURVE",
"399 878 OFFCURVE",
"378 889 CURVE",
"237 747 LINE",
"263 716 LINE"
);
}
);
width = 559;
}
);
leftKerningGroup = kc0_2;
unicode = 0106;
},
{
glyphname = Ccaron;
layers = (
{
layerId = "25D154CF-C470-4D68-A10D-6356F2BE0292";
paths = (
{
closed = 1;
nodes = (
"418 -13 OFFCURVE",
"485 33 OFFCURVE",
"533 102 CURVE",
"534 104 OFFCURVE",
"535 107 OFFCURVE",
"535 109 CURVE SMOOTH",
"535 122 OFFCURVE",
"518 135 OFFCURVE",
"506 135 CURVE SMOOTH",
"503 135 OFFCURVE",
"502 134 OFFCURVE",
"500 131 CURVE SMOOTH",
"467 82 OFFCURVE",
"409 50 OFFCURVE",
"329 50 CURVE SMOOTH",
"209 50 OFFCURVE",
"134 174 OFFCURVE",
"134 324 CURVE SMOOTH",
"134 460 OFFCURVE",
"182 613 OFFCURVE",
"324 613 CURVE SMOOTH",
"394 613 OFFCURVE",
"439 573 OFFCURVE",
"439 518 CURVE SMOOTH",
"439 468 OFFCURVE",
"411 444 OFFCURVE",
"411 436 CURVE SMOOTH",
"411 429 OFFCURVE",
"418 425 OFFCURVE",
"432 425 CURVE SMOOTH",
"486 425 OFFCURVE",
"527 468 OFFCURVE",
"527 530 CURVE SMOOTH",
"527 609 OFFCURVE",
"443 663 OFFCURVE",
"324 663 CURVE SMOOTH",
"126 663 OFFCURVE",
"32 512 OFFCURVE",
"32 324 CURVE SMOOTH",
"32 139 OFFCURVE",
"126 -13 OFFCURVE",
"321 -13 CURVE SMOOTH"
);
},
{
closed = 1;
nodes = (
"335 723 LINE",
"355 735 OFFCURVE",
"407 796 OFFCURVE",
"446 867 CURVE",
"418 893 LINE",
"323 815 LINE",
"229 893 LINE",
"198 867 LINE",
"237 798 OFFCURVE",
"287 737 OFFCURVE",
"311 723 CURVE"
);
}
);
width = 559;
}
);
leftKerningGroup = kc0_2;
unicode = 010C;
},
{
glyphname = Ccedilla;
layers = (
{
layerId = "25D154CF-C470-4D68-A10D-6356F2BE0292";
paths = (
{
closed = 1;
nodes = (
"340 -267 OFFCURVE",
"392 -220 OFFCURVE",
"392 -162 CURVE SMOOTH",
"392 -93 OFFCURVE",
"343 -60 OFFCURVE",
"290 -60 CURVE SMOOTH",
"278 -60 OFFCURVE",
"268 -61 OFFCURVE",
"256 -63 CURVE",
"295 -12 LINE",
"304 -12 OFFCURVE",
"312 -13 OFFCURVE",
"321 -13 CURVE SMOOTH",
"418 -13 OFFCURVE",
"485 33 OFFCURVE",
"533 102 CURVE",
"534 104 OFFCURVE",
"535 107 OFFCURVE",
"535 109 CURVE SMOOTH",
"535 122 OFFCURVE",
"518 135 OFFCURVE",
"506 135 CURVE SMOOTH",
"503 135 OFFCURVE",
"502 134 OFFCURVE",
"500 131 CURVE SMOOTH",
"467 82 OFFCURVE",
"409 50 OFFCURVE",
"329 50 CURVE SMOOTH",
"209 50 OFFCURVE",
"134 174 OFFCURVE",
"134 324 CURVE SMOOTH",
"134 460 OFFCURVE",
"182 613 OFFCURVE",
"324 613 CURVE SMOOTH",
"394 613 OFFCURVE",
"439 573 OFFCURVE",
"439 518 CURVE SMOOTH",
"439 468 OFFCURVE",
"411 444 OFFCURVE",
"411 436 CURVE SMOOTH",
"411 429 OFFCURVE",
"418 425 OFFCURVE",
"432 425 CURVE SMOOTH",
"486 425 OFFCURVE",
"527 468 OFFCURVE",
"527 530 CURVE SMOOTH",
"527 609 OFFCURVE",
"443 663 OFFCURVE",
"324 663 CURVE SMOOTH",
"126 663 OFFCURVE",
"32 512 OFFCURVE",
"32 324 CURVE SMOOTH",
"32 158 OFFCURVE",
"106 21 OFFCURVE",
"262 -7 CURVE",
"197 -93 LINE",
"215 -108 LINE",
"233 -98 OFFCURVE",
"250 -94 OFFCURVE",
"264 -94 CURVE SMOOTH",
"306 -94 OFFCURVE",
"325 -127 OFFCURVE",
"325 -161 CURVE SMOOTH",
"325 -194 OFFCURVE",
"305 -229 OFFCURVE",
"268 -229 CURVE SMOOTH",
"249 -229 OFFCURVE",
"230 -216 OFFCURVE",
"230 -193 CURVE SMOOTH",
"230 -167 OFFCURVE",
"244 -162 OFFCURVE",
"244 -153 CURVE SMOOTH",
"244 -148 OFFCURVE",
"238 -145 OFFCURVE",
"228 -145 CURVE SMOOTH",
"197 -145 OFFCURVE",
"170 -165 OFFCURVE",
"170 -197 CURVE SMOOTH",
"170 -243 OFFCURVE",
"220 -267 OFFCURVE",
"270 -267 CURVE SMOOTH"
);
}
);
width = 559;
}
);
leftKerningGroup = kc0_2;
unicode = 00C7;
},
{
glyphname = Ccircumflex;
layers = (
{
layerId = "25D154CF-C470-4D68-A10D-6356F2BE0292";
paths = (
{
closed = 1;
nodes = (
"418 -13 OFFCURVE",
"485 33 OFFCURVE",
"533 102 CURVE",
"534 104 OFFCURVE",
"535 107 OFFCURVE",
"535 109 CURVE SMOOTH",
"535 122 OFFCURVE",
"518 135 OFFCURVE",
"506 135 CURVE SMOOTH",
"503 135 OFFCURVE",
"502 134 OFFCURVE",
"500 131 CURVE SMOOTH",
"467 82 OFFCURVE",
"409 50 OFFCURVE",
"329 50 CURVE SMOOTH",
"209 50 OFFCURVE",
"134 174 OFFCURVE",
"134 324 CURVE SMOOTH",
"134 460 OFFCURVE",
"182 613 OFFCURVE",
"324 613 CURVE SMOOTH",
"394 613 OFFCURVE",
"439 573 OFFCURVE",
"439 518 CURVE SMOOTH",
"439 468 OFFCURVE",
"411 444 OFFCURVE",
"411 436 CURVE SMOOTH",
"411 429 OFFCURVE",
"418 425 OFFCURVE",
"432 425 CURVE SMOOTH",
"486 425 OFFCURVE",
"527 468 OFFCURVE",
"527 530 CURVE SMOOTH",
"527 609 OFFCURVE",
"443 663 OFFCURVE",
"324 663 CURVE SMOOTH",
"126 663 OFFCURVE",
"32 512 OFFCURVE",
"32 324 CURVE SMOOTH",
"32 139 OFFCURVE",
"126 -13 OFFCURVE",
"321 -13 CURVE SMOOTH"
);
},
{
closed = 1;
nodes = (
"323 791 LINE",
"418 716 LINE",
"446 742 LINE",
"407 812 OFFCURVE",
"355 872 OFFCURVE",
"335 884 CURVE",
"311 884 LINE",
"287 870 OFFCURVE",
"237 810 OFFCURVE",
"198 742 CURVE",
"229 716 LINE"
);
}
);
width = 559;
}
);
leftKerningGroup = kc0_2;
unicode = 0108;
},
{
glyphname = Cdotaccent;
layers = (
{
layerId = "25D154CF-C470-4D68-A10D-6356F2BE0292";
paths = (
{
closed = 1;
nodes = (
"418 -13 OFFCURVE",
"485 33 OFFCURVE",
"533 102 CURVE",
"534 104 OFFCURVE",
"535 107 OFFCURVE",
"535 109 CURVE SMOOTH",
"535 122 OFFCURVE",
"518 135 OFFCURVE",
"506 135 CURVE SMOOTH",
"503 135 OFFCURVE",
"502 134 OFFCURVE",
"500 131 CURVE SMOOTH",
"467 82 OFFCURVE",
"409 50 OFFCURVE",
"329 50 CURVE SMOOTH",
"209 50 OFFCURVE",
"134 174 OFFCURVE",
"134 324 CURVE SMOOTH",
"134 460 OFFCURVE",
"182 613 OFFCURVE",
"324 613 CURVE SMOOTH",
"394 613 OFFCURVE",
"439 573 OFFCURVE",
"439 518 CURVE SMOOTH",
"439 468 OFFCURVE",
"411 444 OFFCURVE",
"411 436 CURVE SMOOTH",
"411 429 OFFCURVE",
"418 425 OFFCURVE",
"432 425 CURVE SMOOTH",
"486 425 OFFCURVE",
"527 468 OFFCURVE",
"527 530 CURVE SMOOTH",
"527 609 OFFCURVE",
"443 663 OFFCURVE",
"324 663 CURVE SMOOTH",
"126 663 OFFCURVE",
"32 512 OFFCURVE",
"32 324 CURVE SMOOTH",
"32 139 OFFCURVE",
"126 -13 OFFCURVE",
"321 -13 CURVE SMOOTH"
);
},
{
closed = 1;
nodes = (
"349 729 OFFCURVE",
"388 769 OFFCURVE",
"388 796 CURVE SMOOTH",
"388 824 OFFCURVE",
"349 865 OFFCURVE",
"323 865 CURVE SMOOTH",
"297 865 OFFCURVE",
"259 824 OFFCURVE",
"259 796 CURVE SMOOTH",
"259 769 OFFCURVE",
"298 729 OFFCURVE",
"323 729 CURVE SMOOTH"
);
}
);
width = 559;
}
);
leftKerningGroup = kc0_2;
unicode = 010A;
},
{
glyphname = D;
layers = (
{
layerId = "25D154CF-C470-4D68-A10D-6356F2BE0292";
paths = (
{
closed = 1;
nodes = (
"331 0 LINE SMOOTH",
"533 0 OFFCURVE",
"632 144 OFFCURVE",
"632 324 CURVE SMOOTH",
"632 504 OFFCURVE",
"548 663 OFFCURVE",
"277 663 CURVE SMOOTH",
"185 663 OFFCURVE",
"82 641 OFFCURVE",
"32 623 CURVE",
"43 589 LINE",
"95 589 LINE SMOOTH",
"108 589 OFFCURVE",
"115 584 OFFCURVE",
"115 568 CURVE SMOOTH",
"115 110 LINE SMOOTH",
"115 61 OFFCURVE",
"91 46 OFFCURVE",
"58 36 CURVE",
"36 31 LINE",
"47 0 LINE"
);
},
{
closed = 1;
nodes = (
"254 46 OFFCURVE",
"205 63 OFFCURVE",
"205 159 CURVE SMOOTH",
"205 570 LINE SMOOTH",
"205 587 OFFCURVE",
"214 613 OFFCURVE",
"294 613 CURVE SMOOTH",
"460 613 OFFCURVE",
"534 473 OFFCURVE",
"534 326 CURVE SMOOTH",
"534 145 OFFCURVE",
"461 46 OFFCURVE",
"303 46 CURVE SMOOTH"
);
}
);
width = 663;
}
);
rightKerningGroup = kc0_2;
unicode = 0044;
},
{
glyphname = Eth;
layers = (
{
layerId = "25D154CF-C470-4D68-A10D-6356F2BE0292";
paths = (
{
closed = 1;
nodes = (
"331 0 LINE SMOOTH",
"533 0 OFFCURVE",
"632 144 OFFCURVE",
"632 324 CURVE SMOOTH",
"632 504 OFFCURVE",
"548 663 OFFCURVE",
"277 663 CURVE SMOOTH",
"185 663 OFFCURVE",
"82 641 OFFCURVE",
"32 623 CURVE",
"43 589 LINE",
"95 589 LINE SMOOTH",
"108 589 OFFCURVE",
"115 584 OFFCURVE",
"115 568 CURVE SMOOTH",
"115 357 LINE",
"30 357 LINE",
"14 346 OFFCURVE",
"10 320 OFFCURVE",
"10 302 CURVE",
"115 302 LINE",
"115 110 LINE SMOOTH",
"115 61 OFFCURVE",
"91 46 OFFCURVE",
"58 36 CURVE",
"36 31 LINE",
"47 0 LINE"
);
},
{
closed = 1;
nodes = (
"254 46 OFFCURVE",
"205 63 OFFCURVE",
"205 159 CURVE SMOOTH",
"205 302 LINE",
"360 302 LINE",
"376 314 OFFCURVE",
"381 339 OFFCURVE",
"381 357 CURVE",
"205 357 LINE",
"205 570 LINE SMOOTH",
"205 587 OFFCURVE",
"214 613 OFFCURVE",
"294 613 CURVE SMOOTH",
"460 613 OFFCURVE",
"534 473 OFFCURVE",
"534 326 CURVE SMOOTH",
"534 145 OFFCURVE",
"461 46 OFFCURVE",
"303 46 CURVE SMOOTH"
);
}
);
width = 663;
}
);
rightKerningGroup = kc0_2;
unicode = 00D0;
},
{
glyphname = Dcaron;
layers = (
{
layerId = "25D154CF-C470-4D68-A10D-6356F2BE0292";
paths = (
{
closed = 1;
nodes = (
"331 0 LINE SMOOTH",
"533 0 OFFCURVE",
"632 144 OFFCURVE",
"632 324 CURVE SMOOTH",
"632 504 OFFCURVE",
"548 663 OFFCURVE",
"277 663 CURVE SMOOTH",
"185 663 OFFCURVE",
"82 641 OFFCURVE",
"32 623 CURVE",
"43 589 LINE",
"95 589 LINE SMOOTH",
"108 589 OFFCURVE",
"115 584 OFFCURVE",
"115 568 CURVE SMOOTH",
"115 110 LINE SMOOTH",
"115 61 OFFCURVE",
"91 46 OFFCURVE",
"58 36 CURVE",
"36 31 LINE",
"47 0 LINE"
);
},
{
closed = 1;
nodes = (
"254 46 OFFCURVE",
"205 63 OFFCURVE",
"205 159 CURVE SMOOTH",
"205 570 LINE SMOOTH",
"205 587 OFFCURVE",
"214 613 OFFCURVE",
"294 613 CURVE SMOOTH",
"460 613 OFFCURVE",
"534 473 OFFCURVE",
"534 326 CURVE SMOOTH",
"534 145 OFFCURVE",
"461 46 OFFCURVE",
"303 46 CURVE SMOOTH"
);
},
{
closed = 1;
nodes = (
"344 723 LINE",
"364 735 OFFCURVE",
"417 796 OFFCURVE",
"456 867 CURVE",
"427 893 LINE",
"332 815 LINE",
"238 893 LINE",
"208 867 LINE",
"247 798 OFFCURVE",
"297 737 OFFCURVE",
"320 723 CURVE"
);
}
);
width = 663;
}
);
rightKerningGroup = kc0_2;
unicode = 010E;
},
{
glyphname = Dcroat;
layers = (
{
layerId = "25D154CF-C470-4D68-A10D-6356F2BE0292";
paths = (
{
closed = 1;
nodes = (
"331 0 LINE SMOOTH",
"533 0 OFFCURVE",
"632 144 OFFCURVE",
"632 324 CURVE SMOOTH",
"632 504 OFFCURVE",
"548 663 OFFCURVE",
"277 663 CURVE SMOOTH",
"185 663 OFFCURVE",
"82 641 OFFCURVE",
"32 623 CURVE",
"43 589 LINE",
"95 589 LINE SMOOTH",
"108 589 OFFCURVE",
"115 584 OFFCURVE",
"115 568 CURVE SMOOTH",
"115 357 LINE",
"30 357 LINE",
"14 346 OFFCURVE",
"10 320 OFFCURVE",
"10 302 CURVE",
"115 302 LINE",
"115 110 LINE SMOOTH",
"115 61 OFFCURVE",
"91 46 OFFCURVE",
"58 36 CURVE",
"36 31 LINE",
"47 0 LINE"
);
},
{
closed = 1;
nodes = (
"254 46 OFFCURVE",
"205 63 OFFCURVE",
"205 159 CURVE SMOOTH",
"205 302 LINE",
"360 302 LINE",
"376 314 OFFCURVE",
"381 339 OFFCURVE",
"381 357 CURVE",
"205 357 LINE",
"205 570 LINE SMOOTH",
"205 587 OFFCURVE",
"214 613 OFFCURVE",
"294 613 CURVE SMOOTH",
"460 613 OFFCURVE",
"534 473 OFFCURVE",
"534 326 CURVE SMOOTH",
"534 145 OFFCURVE",
"461 46 OFFCURVE",
"303 46 CURVE SMOOTH"
);
}
);
width = 663;
}
);
rightKerningGroup = kc0_2;
unicode = 0110;
},
{
glyphname = E;
layers = (
{
layerId = "25D154CF-C470-4D68-A10D-6356F2BE0292";
paths = (
{
closed = 1;
nodes = (
"495 -13 LINE",
"495 143 LINE",
"465 152 LINE",
"459 132 LINE SMOOTH",
"442 68 OFFCURVE",
"425 52 OFFCURVE",
"360 52 CURVE SMOOTH",
"263 52 LINE SMOOTH",
"216 52 OFFCURVE",
"205 63 OFFCURVE",
"205 120 CURVE SMOOTH",
"205 305 LINE",
"281 305 LINE SMOOTH",
"346 305 OFFCURVE",
"368 297 OFFCURVE",
"381 254 CURVE SMOOTH",
"387 231 LINE",
"417 242 LINE",
"417 397 LINE",
"399 407 LINE",
"392 397 LINE",
"369 365 OFFCURVE",
"349 356 OFFCURVE",
"320 356 CURVE SMOOTH",
"205 356 LINE",
"205 530 LINE SMOOTH",
"205 586 OFFCURVE",
"216 600 OFFCURVE",
"263 600 CURVE SMOOTH",
"352 600 LINE SMOOTH",
"415 600 OFFCURVE",
"433 583 OFFCURVE",
"449 519 CURVE SMOOTH",
"454 497 LINE",
"485 508 LINE",
"485 669 LINE",
"472 681 LINE",
"454 669 LINE",
"437 655 OFFCURVE",
"404 650 OFFCURVE",
"352 650 CURVE SMOOTH",
"75 650 LINE",
"63 636 LINE",
"75 619 LINE SMOOTH",
"104 580 OFFCURVE",
"115 541 OFFCURVE",
"115 469 CURVE SMOOTH",
"115 114 LINE SMOOTH",
"115 61 OFFCURVE",
"104 47 OFFCURVE",
"60 34 CURVE SMOOTH",
"40 29 LINE",
"51 0 LINE",
"433 0 LINE SMOOTH",
"451 0 OFFCURVE",
"462 -3 OFFCURVE",
"471 -13 CURVE",
"478 -22 LINE"
);
}
);
width = 551;
}
);
unicode = 0045;
},
{
glyphname = Eacute;
layers = (
{
layerId = "25D154CF-C470-4D68-A10D-6356F2BE0292";
paths = (
{
closed = 1;
nodes = (
"495 -13 LINE",
"495 143 LINE",
"465 152 LINE",
"459 132 LINE SMOOTH",
"442 68 OFFCURVE",
"425 52 OFFCURVE",
"360 52 CURVE SMOOTH",
"263 52 LINE SMOOTH",
"216 52 OFFCURVE",
"205 63 OFFCURVE",
"205 120 CURVE SMOOTH",
"205 305 LINE",
"281 305 LINE SMOOTH",
"346 305 OFFCURVE",
"368 297 OFFCURVE",
"381 254 CURVE SMOOTH",
"387 231 LINE",
"417 242 LINE",
"417 397 LINE",
"399 407 LINE",
"392 397 LINE",
"369 365 OFFCURVE",
"349 356 OFFCURVE",
"320 356 CURVE SMOOTH",
"205 356 LINE",
"205 530 LINE SMOOTH",
"205 586 OFFCURVE",
"216 600 OFFCURVE",
"263 600 CURVE SMOOTH",
"352 600 LINE SMOOTH",
"415 600 OFFCURVE",
"433 583 OFFCURVE",
"449 519 CURVE SMOOTH",
"454 497 LINE",
"485 508 LINE",
"485 669 LINE",
"472 681 LINE",
"454 669 LINE",
"437 655 OFFCURVE",
"404 650 OFFCURVE",
"352 650 CURVE SMOOTH",
"75 650 LINE",
"63 636 LINE",
"75 619 LINE SMOOTH",
"104 580 OFFCURVE",
"115 541 OFFCURVE",
"115 469 CURVE SMOOTH",
"115 114 LINE SMOOTH",
"115 61 OFFCURVE",
"104 47 OFFCURVE",
"60 34 CURVE SMOOTH",
"40 29 LINE",
"51 0 LINE",
"433 0 LINE SMOOTH",
"451 0 OFFCURVE",
"462 -3 OFFCURVE",
"471 -13 CURVE",
"478 -22 LINE"
);
},
{
closed = 1;
nodes = (
"347 767 LINE SMOOTH",
"383 784 OFFCURVE",
"396 806 OFFCURVE",
"396 831 CURVE SMOOTH",
"396 858 OFFCURVE",
"382 878 OFFCURVE",
"358 890 CURVE",
"218 747 LINE",
"244 717 LINE"
);
}
);
width = 551;
}
);
unicode = 00C9;
},
{
glyphname = Ebreve;
layers = (
{
layerId = "25D154CF-C470-4D68-A10D-6356F2BE0292";
paths = (
{
closed = 1;
nodes = (
"495 -13 LINE",
"495 143 LINE",
"465 152 LINE",
"459 132 LINE SMOOTH",
"442 68 OFFCURVE",
"425 52 OFFCURVE",
"360 52 CURVE SMOOTH",
"263 52 LINE SMOOTH",
"216 52 OFFCURVE",
"205 63 OFFCURVE",
"205 120 CURVE SMOOTH",
"205 305 LINE",
"281 305 LINE SMOOTH",
"346 305 OFFCURVE",
"368 297 OFFCURVE",
"381 254 CURVE SMOOTH",
"387 231 LINE",
"417 242 LINE",
"417 397 LINE",
"399 407 LINE",
"392 397 LINE",
"369 365 OFFCURVE",
"349 356 OFFCURVE",
"320 356 CURVE SMOOTH",
"205 356 LINE",
"205 530 LINE SMOOTH",
"205 586 OFFCURVE",
"216 600 OFFCURVE",
"263 600 CURVE SMOOTH",
"352 600 LINE SMOOTH",
"415 600 OFFCURVE",
"433 583 OFFCURVE",
"449 519 CURVE SMOOTH",
"454 497 LINE",
"485 508 LINE",
"485 669 LINE",
"472 681 LINE",
"454 669 LINE",
"437 655 OFFCURVE",
"404 650 OFFCURVE",
"352 650 CURVE SMOOTH",
"75 650 LINE",
"63 636 LINE",
"75 619 LINE SMOOTH",
"104 580 OFFCURVE",
"115 541 OFFCURVE",
"115 469 CURVE SMOOTH",
"115 114 LINE SMOOTH",
"115 61 OFFCURVE",
"104 47 OFFCURVE",
"60 34 CURVE SMOOTH",
"40 29 LINE",
"51 0 LINE",
"433 0 LINE SMOOTH",
"451 0 OFFCURVE",
"462 -3 OFFCURVE",
"471 -13 CURVE",
"478 -22 LINE"
);
},
{
closed = 1;
nodes = (
"351 726 OFFCURVE",
"399 767 OFFCURVE",
"399 852 CURVE",
"349 852 LINE",
"349 815 OFFCURVE",
"322 795 OFFCURVE",
"288 795 CURVE SMOOTH",
"252 795 OFFCURVE",
"224 815 OFFCURVE",
"224 852 CURVE",
"174 852 LINE",
"174 767 OFFCURVE",
"223 726 OFFCURVE",
"288 726 CURVE SMOOTH"
);
}
);
width = 551;
}
);
unicode = 0114;
},
{
glyphname = Ecaron;
layers = (
{
layerId = "25D154CF-C470-4D68-A10D-6356F2BE0292";
paths = (
{
closed = 1;
nodes = (
"495 -13 LINE",
"495 143 LINE",
"465 152 LINE",
"459 132 LINE SMOOTH",
"442 68 OFFCURVE",
"425 52 OFFCURVE",
"360 52 CURVE SMOOTH",
"263 52 LINE SMOOTH",
"216 52 OFFCURVE",
"205 63 OFFCURVE",
"205 120 CURVE SMOOTH",
"205 305 LINE",
"281 305 LINE SMOOTH",
"346 305 OFFCURVE",
"368 297 OFFCURVE",
"381 254 CURVE SMOOTH",
"387 231 LINE",
"417 242 LINE",
"417 397 LINE",
"399 407 LINE",
"392 397 LINE",
"369 365 OFFCURVE",
"349 356 OFFCURVE",
"320 356 CURVE SMOOTH",
"205 356 LINE",
"205 530 LINE SMOOTH",
"205 586 OFFCURVE",
"216 600 OFFCURVE",
"263 600 CURVE SMOOTH",
"352 600 LINE SMOOTH",
"415 600 OFFCURVE",
"433 583 OFFCURVE",
"449 519 CURVE SMOOTH",
"454 497 LINE",
"485 508 LINE",
"485 669 LINE",
"472 681 LINE",
"454 669 LINE",
"437 655 OFFCURVE",
"404 650 OFFCURVE",
"352 650 CURVE SMOOTH",
"75 650 LINE",
"63 636 LINE",
"75 619 LINE SMOOTH",
"104 580 OFFCURVE",
"115 541 OFFCURVE",
"115 469 CURVE SMOOTH",
"115 114 LINE SMOOTH",
"115 61 OFFCURVE",
"104 47 OFFCURVE",
"60 34 CURVE SMOOTH",
"40 29 LINE",
"51 0 LINE",
"433 0 LINE SMOOTH",
"451 0 OFFCURVE",
"462 -3 OFFCURVE",
"471 -13 CURVE",
"478 -22 LINE"
);
},
{
closed = 1;
nodes = (
"302 723 LINE",
"322 735 OFFCURVE",
"374 796 OFFCURVE",
"413 867 CURVE",
"385 893 LINE",
"290 815 LINE",
"195 893 LINE",
"165 867 LINE",
"204 798 OFFCURVE",
"254 737 OFFCURVE",
"277 723 CURVE"
);
}
);
width = 551;
}
);
unicode = 011A;
},
{
glyphname = Ecircumflex;
layers = (
{
layerId = "25D154CF-C470-4D68-A10D-6356F2BE0292";
paths = (
{
closed = 1;
nodes = (
"495 -13 LINE",
"495 143 LINE",
"465 152 LINE",
"459 132 LINE SMOOTH",
"442 68 OFFCURVE",
"425 52 OFFCURVE",
"360 52 CURVE SMOOTH",
"263 52 LINE SMOOTH",
"216 52 OFFCURVE",
"205 63 OFFCURVE",
"205 120 CURVE SMOOTH",
"205 305 LINE",
"281 305 LINE SMOOTH",
"346 305 OFFCURVE",
"368 297 OFFCURVE",
"381 254 CURVE SMOOTH",
"387 231 LINE",
"417 242 LINE",
"417 397 LINE",
"399 407 LINE",
"392 397 LINE",
"369 365 OFFCURVE",
"349 356 OFFCURVE",
"320 356 CURVE SMOOTH",
"205 356 LINE",
"205 530 LINE SMOOTH",
"205 586 OFFCURVE",
"216 600 OFFCURVE",
"263 600 CURVE SMOOTH",
"352 600 LINE SMOOTH",
"415 600 OFFCURVE",
"433 583 OFFCURVE",
"449 519 CURVE SMOOTH",
"454 497 LINE",
"485 508 LINE",
"485 669 LINE",
"472 681 LINE",
"454 669 LINE",
"437 655 OFFCURVE",
"404 650 OFFCURVE",
"352 650 CURVE SMOOTH",
"75 650 LINE",
"63 636 LINE",
"75 619 LINE SMOOTH",
"104 580 OFFCURVE",
"115 541 OFFCURVE",
"115 469 CURVE SMOOTH",
"115 114 LINE SMOOTH",
"115 61 OFFCURVE",
"104 47 OFFCURVE",
"60 34 CURVE SMOOTH",
"40 29 LINE",
"51 0 LINE",
"433 0 LINE SMOOTH",
"451 0 OFFCURVE",
"462 -3 OFFCURVE",
"471 -13 CURVE",
"478 -22 LINE"
);
},
{
closed = 1;
nodes = (
"289 791 LINE",
"385 717 LINE",
"413 741 LINE",
"373 813 OFFCURVE",
"322 872 OFFCURVE",
"302 884 CURVE",
"277 884 LINE",
"254 870 OFFCURVE",
"204 811 OFFCURVE",
"165 741 CURVE",
"195 717 LINE"
);
}
);
width = 551;
}
);
unicode = 00CA;
},
{
glyphname = Edieresis;
layers = (
{
layerId = "25D154CF-C470-4D68-A10D-6356F2BE0292";
paths = (
{
closed = 1;
nodes = (
"495 -13 LINE",
"495 143 LINE",
"465 152 LINE",
"459 132 LINE SMOOTH",
"442 68 OFFCURVE",
"425 52 OFFCURVE",
"360 52 CURVE SMOOTH",
"263 52 LINE SMOOTH",
"216 52 OFFCURVE",
"205 63 OFFCURVE",
"205 120 CURVE SMOOTH",
"205 305 LINE",
"281 305 LINE SMOOTH",
"346 305 OFFCURVE",
"368 297 OFFCURVE",
"381 254 CURVE SMOOTH",
"387 231 LINE",
"417 242 LINE",
"417 397 LINE",
"399 407 LINE",
"392 397 LINE",
"369 365 OFFCURVE",
"349 356 OFFCURVE",
"320 356 CURVE SMOOTH",
"205 356 LINE",
"205 530 LINE SMOOTH",
"205 586 OFFCURVE",
"216 600 OFFCURVE",
"263 600 CURVE SMOOTH",
"352 600 LINE SMOOTH",
"415 600 OFFCURVE",
"433 583 OFFCURVE",
"449 519 CURVE SMOOTH",
"454 497 LINE",
"485 508 LINE",
"485 669 LINE",
"472 681 LINE",
"454 669 LINE",
"437 655 OFFCURVE",
"404 650 OFFCURVE",
"352 650 CURVE SMOOTH",
"75 650 LINE",
"63 636 LINE",
"75 619 LINE SMOOTH",
"104 580 OFFCURVE",
"115 541 OFFCURVE",
"115 469 CURVE SMOOTH",
"115 114 LINE SMOOTH",
"115 61 OFFCURVE",
"104 47 OFFCURVE",
"60 34 CURVE SMOOTH",
"40 29 LINE",
"51 0 LINE",
"433 0 LINE SMOOTH",
"451 0 OFFCURVE",
"462 -3 OFFCURVE",
"471 -13 CURVE",
"478 -22 LINE"
);
},
{
closed = 1;
nodes = (
"224 737 OFFCURVE",
"260 773 OFFCURVE",
"260 796 CURVE SMOOTH",
"260 819 OFFCURVE",
"224 856 OFFCURVE",
"201 856 CURVE SMOOTH",
"180 856 OFFCURVE",
"146 819 OFFCURVE",
"146 796 CURVE SMOOTH",
"146 773 OFFCURVE",
"181 737 OFFCURVE",
"201 737 CURVE SMOOTH"
);
},
{
closed = 1;
nodes = (
"396 737 OFFCURVE",
"432 773 OFFCURVE",
"432 796 CURVE SMOOTH",
"432 819 OFFCURVE",
"396 856 OFFCURVE",
"373 856 CURVE SMOOTH",
"352 856 OFFCURVE",
"318 819 OFFCURVE",
"318 796 CURVE SMOOTH",
"318 773 OFFCURVE",
"353 737 OFFCURVE",
"373 737 CURVE SMOOTH"
);
}
);
width = 551;
}
);
unicode = 00CB;
},
{
glyphname = Edotaccent;
layers = (
{
layerId = "25D154CF-C470-4D68-A10D-6356F2BE0292";
paths = (
{
closed = 1;
nodes = (
"495 -13 LINE",
"495 143 LINE",
"465 152 LINE",
"459 132 LINE SMOOTH",
"442 68 OFFCURVE",
"425 52 OFFCURVE",
"360 52 CURVE SMOOTH",
"263 52 LINE SMOOTH",
"216 52 OFFCURVE",
"205 63 OFFCURVE",
"205 120 CURVE SMOOTH",
"205 305 LINE",
"281 305 LINE SMOOTH",
"346 305 OFFCURVE",
"368 297 OFFCURVE",
"381 254 CURVE SMOOTH",
"387 231 LINE",
"417 242 LINE",
"417 397 LINE",
"399 407 LINE",
"392 397 LINE",
"369 365 OFFCURVE",
"349 356 OFFCURVE",
"320 356 CURVE SMOOTH",
"205 356 LINE",
"205 530 LINE SMOOTH",
"205 586 OFFCURVE",
"216 600 OFFCURVE",
"263 600 CURVE SMOOTH",
"352 600 LINE SMOOTH",
"415 600 OFFCURVE",
"433 583 OFFCURVE",
"449 519 CURVE SMOOTH",
"454 497 LINE",
"485 508 LINE",
"485 669 LINE",
"472 681 LINE",
"454 669 LINE",
"437 655 OFFCURVE",
"404 650 OFFCURVE",
"352 650 CURVE SMOOTH",
"75 650 LINE",
"63 636 LINE",
"75 619 LINE SMOOTH",
"104 580 OFFCURVE",
"115 541 OFFCURVE",
"115 469 CURVE SMOOTH",
"115 114 LINE SMOOTH",
"115 61 OFFCURVE",
"104 47 OFFCURVE",
"60 34 CURVE SMOOTH",
"40 29 LINE",
"51 0 LINE",
"433 0 LINE SMOOTH",
"451 0 OFFCURVE",
"462 -3 OFFCURVE",
"471 -13 CURVE",
"478 -22 LINE"
);
},
{
closed = 1;
nodes = (
"313 729 OFFCURVE",
"353 769 OFFCURVE",
"353 796 CURVE SMOOTH",
"353 824 OFFCURVE",
"313 865 OFFCURVE",
"288 865 CURVE SMOOTH",
"262 865 OFFCURVE",
"224 824 OFFCURVE",
"224 796 CURVE SMOOTH",
"224 769 OFFCURVE",
"263 729 OFFCURVE",
"288 729 CURVE SMOOTH"
);
}
);
width = 551;
}
);
unicode = 0116;
},
{
glyphname = Egrave;
layers = (
{
layerId = "25D154CF-C470-4D68-A10D-6356F2BE0292";
paths = (
{
closed = 1;
nodes = (
"495 -13 LINE",
"495 143 LINE",
"465 152 LINE",
"459 132 LINE SMOOTH",
"442 68 OFFCURVE",
"425 52 OFFCURVE",
"360 52 CURVE SMOOTH",
"263 52 LINE SMOOTH",
"216 52 OFFCURVE",
"205 63 OFFCURVE",
"205 120 CURVE SMOOTH",
"205 305 LINE",
"281 305 LINE SMOOTH",
"346 305 OFFCURVE",
"368 297 OFFCURVE",
"381 254 CURVE SMOOTH",
"387 231 LINE",
"417 242 LINE",
"417 397 LINE",
"399 407 LINE",
"392 397 LINE",
"369 365 OFFCURVE",
"349 356 OFFCURVE",
"320 356 CURVE SMOOTH",
"205 356 LINE",
"205 530 LINE SMOOTH",
"205 586 OFFCURVE",
"216 600 OFFCURVE",
"263 600 CURVE SMOOTH",
"352 600 LINE SMOOTH",
"415 600 OFFCURVE",
"433 583 OFFCURVE",
"449 519 CURVE SMOOTH",
"454 497 LINE",
"485 508 LINE",
"485 669 LINE",
"472 681 LINE",
"454 669 LINE",
"437 655 OFFCURVE",
"404 650 OFFCURVE",
"352 650 CURVE SMOOTH",
"75 650 LINE",
"63 636 LINE",
"75 619 LINE SMOOTH",
"104 580 OFFCURVE",
"115 541 OFFCURVE",
"115 469 CURVE SMOOTH",
"115 114 LINE SMOOTH",
"115 61 OFFCURVE",
"104 47 OFFCURVE",
"60 34 CURVE SMOOTH",
"40 29 LINE",
"51 0 LINE",
"433 0 LINE SMOOTH",
"451 0 OFFCURVE",
"462 -3 OFFCURVE",
"471 -13 CURVE",
"478 -22 LINE"
);
},
{
closed = 1;
nodes = (
"370 747 LINE",
"229 890 LINE",
"205 878 OFFCURVE",
"190 858 OFFCURVE",
"190 831 CURVE SMOOTH",
"190 806 OFFCURVE",
"204 784 OFFCURVE",
"241 767 CURVE SMOOTH",
"344 717 LINE"
);
}
);
width = 551;
}
);
unicode = 00C8;
},
{
glyphname = Emacron;
layers = (
{
layerId = "25D154CF-C470-4D68-A10D-6356F2BE0292";
paths = (
{
closed = 1;
nodes = (
"495 -13 LINE",
"495 143 LINE",
"465 152 LINE",
"459 132 LINE SMOOTH",
"442 68 OFFCURVE",
"425 52 OFFCURVE",
"360 52 CURVE SMOOTH",
"263 52 LINE SMOOTH",
"216 52 OFFCURVE",
"205 63 OFFCURVE",
"205 120 CURVE SMOOTH",
"205 305 LINE",
"281 305 LINE SMOOTH",
"346 305 OFFCURVE",
"368 297 OFFCURVE",
"381 254 CURVE SMOOTH",
"387 231 LINE",
"417 242 LINE",
"417 397 LINE",
"399 407 LINE",
"392 397 LINE",
"369 365 OFFCURVE",
"349 356 OFFCURVE",
"320 356 CURVE SMOOTH",
"205 356 LINE",
"205 530 LINE SMOOTH",
"205 586 OFFCURVE",
"216 600 OFFCURVE",
"263 600 CURVE SMOOTH",
"352 600 LINE SMOOTH",
"415 600 OFFCURVE",
"433 583 OFFCURVE",
"449 519 CURVE SMOOTH",
"454 497 LINE",
"485 508 LINE",
"485 669 LINE",
"472 681 LINE",
"454 669 LINE",
"437 655 OFFCURVE",
"404 650 OFFCURVE",
"352 650 CURVE SMOOTH",
"75 650 LINE",
"63 636 LINE",
"75 619 LINE SMOOTH",
"104 580 OFFCURVE",
"115 541 OFFCURVE",
"115 469 CURVE SMOOTH",
"115 114 LINE SMOOTH",
"115 61 OFFCURVE",
"104 47 OFFCURVE",
"60 34 CURVE SMOOTH",
"40 29 LINE",
"51 0 LINE",
"433 0 LINE SMOOTH",
"451 0 OFFCURVE",
"462 -3 OFFCURVE",
"471 -13 CURVE",
"478 -22 LINE"
);
},
{
closed = 1;
nodes = (
"396 760 LINE",
"415 774 OFFCURVE",
"421 807 OFFCURVE",
"421 832 CURVE",
"177 832 LINE",
"159 815 OFFCURVE",
"152 785 OFFCURVE",
"152 760 CURVE"
);
}
);
width = 551;
}
);
unicode = 0112;
},
{
glyphname = Eogonek;
layers = (
{
layerId = "25D154CF-C470-4D68-A10D-6356F2BE0292";
paths = (
{
closed = 1;
nodes = (
"420 -253 OFFCURVE",
"471 -223 OFFCURVE",
"521 -160 CURVE",
"490 -133 LINE",
"459 -170 OFFCURVE",
"418 -190 OFFCURVE",
"386 -190 CURVE SMOOTH",
"354 -190 OFFCURVE",
"334 -173 OFFCURVE",
"334 -137 CURVE SMOOTH",
"334 -102 OFFCURVE",
"362 -54 OFFCURVE",
"442 0 CURVE",
"455 -1 OFFCURVE",
"464 -6 OFFCURVE",
"471 -13 CURVE",
"478 -22 LINE",
"495 -13 LINE",
"495 143 LINE",
"465 152 LINE",
"459 132 LINE SMOOTH",
"442 68 OFFCURVE",
"425 52 OFFCURVE",
"360 52 CURVE SMOOTH",
"263 52 LINE SMOOTH",
"216 52 OFFCURVE",
"205 63 OFFCURVE",
"205 120 CURVE SMOOTH",
"205 305 LINE",
"281 305 LINE SMOOTH",
"346 305 OFFCURVE",
"368 297 OFFCURVE",
"381 254 CURVE SMOOTH",
"387 231 LINE",
"417 242 LINE",
"417 397 LINE",
"399 407 LINE",
"392 397 LINE",
"369 365 OFFCURVE",
"349 356 OFFCURVE",
"320 356 CURVE SMOOTH",
"205 356 LINE",
"205 530 LINE SMOOTH",
"205 586 OFFCURVE",
"216 600 OFFCURVE",
"263 600 CURVE SMOOTH",
"352 600 LINE SMOOTH",
"415 600 OFFCURVE",
"433 583 OFFCURVE",
"449 519 CURVE SMOOTH",
"454 497 LINE",
"485 508 LINE",
"485 669 LINE",
"472 681 LINE",
"454 669 LINE",
"437 655 OFFCURVE",
"404 650 OFFCURVE",
"352 650 CURVE SMOOTH",
"75 650 LINE",
"63 636 LINE",
"75 619 LINE SMOOTH",
"104 580 OFFCURVE",
"115 541 OFFCURVE",
"115 469 CURVE SMOOTH",
"115 114 LINE SMOOTH",
"115 61 OFFCURVE",
"104 47 OFFCURVE",
"60 34 CURVE SMOOTH",
"40 29 LINE",
"51 0 LINE",
"374 0 LINE",
"297 -56 OFFCURVE",
"260 -100 OFFCURVE",
"260 -157 CURVE SMOOTH",
"260 -218 OFFCURVE",
"303 -253 OFFCURVE",
"360 -253 CURVE SMOOTH"
);
}
);
width = 551;
}
);
unicode = 0118;
},
{
glyphname = F;
layers = (
{
layerId = "25D154CF-C470-4D68-A10D-6356F2BE0292";
paths = (
{
closed = 1;
nodes = (
"251 0 LINE",
"262 31 LINE",
"240 36 LINE",
"195 50 OFFCURVE",
"183 63 OFFCURVE",
"183 120 CURVE SMOOTH",
"183 296 LINE",
"251 296 LINE SMOOTH",
"314 296 OFFCURVE",
"339 286 OFFCURVE",
"351 243 CURVE SMOOTH",
"355 223 LINE",
"387 233 LINE",
"387 389 LINE",
"368 399 LINE",
"360 389 LINE SMOOTH",
"339 356 OFFCURVE",
"317 347 OFFCURVE",
"290 347 CURVE SMOOTH",
"183 347 LINE",
"183 530 LINE SMOOTH",
"183 586 OFFCURVE",
"193 600 OFFCURVE",
"240 600 CURVE SMOOTH",
"320 600 LINE SMOOTH",
"385 600 OFFCURVE",
"401 583 OFFCURVE",
"418 519 CURVE",
"425 497 LINE",
"454 508 LINE",
"454 669 LINE",
"440 681 LINE",
"425 669 LINE SMOOTH",
"405 655 OFFCURVE",
"373 650 OFFCURVE",
"320 650 CURVE SMOOTH",
"52 650 LINE",
"40 636 LINE",
"52 619 LINE SMOOTH",
"82 580 OFFCURVE",
"94 541 OFFCURVE",
"94 469 CURVE SMOOTH",
"94 182 LINE SMOOTH",
"94 107 OFFCURVE",
"82 70 OFFCURVE",
"52 31 CURVE SMOOTH",
"40 15 LINE",
"52 0 LINE"
);
}
);
width = 495;
}
);
unicode = 0046;
},
{
glyphname = G;
layers = (
{
layerId = "25D154CF-C470-4D68-A10D-6356F2BE0292";
paths = (
{
closed = 1;
nodes = (
"470 -253 OFFCURVE",
"553 -179 OFFCURVE",
"553 15 CURVE SMOOTH",
"553 119 LINE SMOOTH",
"553 191 OFFCURVE",
"564 231 OFFCURVE",
"595 271 CURVE SMOOTH",
"606 287 LINE",
"595 303 LINE",
"404 303 LINE",
"394 271 LINE",
"413 265 LINE",
"459 252 OFFCURVE",
"473 236 OFFCURVE",
"473 181 CURVE SMOOTH",
"473 135 LINE",
"434 96 OFFCURVE",
"384 74 OFFCURVE",
"320 74 CURVE SMOOTH",
"202 74 OFFCURVE",
"130 195 OFFCURVE",
"130 345 CURVE SMOOTH",
"130 460 OFFCURVE",
"180 613 OFFCURVE",
"331 613 CURVE SMOOTH",
"409 613 OFFCURVE",
"460 570 OFFCURVE",
"460 508 CURVE SMOOTH",
"460 457 OFFCURVE",
"435 436 OFFCURVE",
"435 426 CURVE SMOOTH",
"435 416 OFFCURVE",
"435 414 OFFCURVE",
"453 414 CURVE SMOOTH",
"508 414 OFFCURVE",
"550 458 OFFCURVE",
"550 521 CURVE SMOOTH",
"550 605 OFFCURVE",
"459 663 OFFCURVE",
"331 663 CURVE SMOOTH",
"129 663 OFFCURVE",
"32 511 OFFCURVE",
"32 341 CURVE SMOOTH",
"32 161 OFFCURVE",
"123 15 OFFCURVE",
"313 15 CURVE SMOOTH",
"375 15 OFFCURVE",
"429 39 OFFCURVE",
"473 75 CURVE",
"473 -11 LINE SMOOTH",
"473 -152 OFFCURVE",
"431 -205 OFFCURVE",
"354 -205 CURVE SMOOTH",
"295 -205 OFFCURVE",
"261 -167 OFFCURVE",
"261 -120 CURVE SMOOTH",
"261 -54 OFFCURVE",
"306 -34 OFFCURVE",
"306 -22 CURVE SMOOTH",
"306 -18 OFFCURVE",
"302 -13 OFFCURVE",
"289 -13 CURVE SMOOTH",
"213 -13 OFFCURVE",
"174 -65 OFFCURVE",
"174 -123 CURVE SMOOTH",
"174 -187 OFFCURVE",
"227 -253 OFFCURVE",
"339 -253 CURVE SMOOTH"
);
}
);
width = 625;
}
);
leftKerningGroup = kc0_2;
unicode = 0047;
},
{
glyphname = Gbreve;
layers = (
{
layerId = "25D154CF-C470-4D68-A10D-6356F2BE0292";
paths = (
{
closed = 1;
nodes = (
"470 -253 OFFCURVE",
"553 -179 OFFCURVE",
"553 15 CURVE SMOOTH",
"553 119 LINE SMOOTH",
"553 191 OFFCURVE",
"564 231 OFFCURVE",
"595 271 CURVE SMOOTH",
"606 287 LINE",
"595 303 LINE",
"404 303 LINE",
"394 271 LINE",
"413 265 LINE",
"459 252 OFFCURVE",
"473 236 OFFCURVE",
"473 181 CURVE SMOOTH",
"473 135 LINE",
"434 96 OFFCURVE",
"384 74 OFFCURVE",
"320 74 CURVE SMOOTH",
"202 74 OFFCURVE",
"130 195 OFFCURVE",
"130 345 CURVE SMOOTH",
"130 460 OFFCURVE",
"180 613 OFFCURVE",
"331 613 CURVE SMOOTH",
"409 613 OFFCURVE",
"460 570 OFFCURVE",
"460 508 CURVE SMOOTH",
"460 457 OFFCURVE",
"435 436 OFFCURVE",
"435 426 CURVE SMOOTH",
"435 416 OFFCURVE",
"435 414 OFFCURVE",
"453 414 CURVE SMOOTH",
"508 414 OFFCURVE",
"550 458 OFFCURVE",
"550 521 CURVE SMOOTH",
"550 605 OFFCURVE",
"459 663 OFFCURVE",
"331 663 CURVE SMOOTH",
"129 663 OFFCURVE",
"32 511 OFFCURVE",
"32 341 CURVE SMOOTH",
"32 161 OFFCURVE",
"123 15 OFFCURVE",
"313 15 CURVE SMOOTH",
"375 15 OFFCURVE",
"429 39 OFFCURVE",
"473 75 CURVE",
"473 -11 LINE SMOOTH",
"473 -152 OFFCURVE",
"431 -205 OFFCURVE",
"354 -205 CURVE SMOOTH",
"295 -205 OFFCURVE",
"261 -167 OFFCURVE",
"261 -120 CURVE SMOOTH",
"261 -54 OFFCURVE",
"306 -34 OFFCURVE",
"306 -22 CURVE SMOOTH",
"306 -18 OFFCURVE",
"302 -13 OFFCURVE",
"289 -13 CURVE SMOOTH",
"213 -13 OFFCURVE",
"174 -65 OFFCURVE",
"174 -123 CURVE SMOOTH",
"174 -187 OFFCURVE",
"227 -253 OFFCURVE",
"339 -253 CURVE SMOOTH"
);
},
{
closed = 1;
nodes = (
"393 726 OFFCURVE",
"441 767 OFFCURVE",
"441 852 CURVE",
"392 852 LINE",
"392 815 OFFCURVE",
"364 795 OFFCURVE",
"330 795 CURVE SMOOTH",
"294 795 OFFCURVE",
"266 815 OFFCURVE",
"266 852 CURVE",
"216 852 LINE",
"216 767 OFFCURVE",
"265 726 OFFCURVE",
"330 726 CURVE SMOOTH"
);
}
);
width = 625;
}
);
leftKerningGroup = kc0_2;
unicode = 011E;
},
{
glyphname = Gcircumflex;
layers = (
{
layerId = "25D154CF-C470-4D68-A10D-6356F2BE0292";
paths = (
{
closed = 1;
nodes = (
"470 -253 OFFCURVE",
"553 -179 OFFCURVE",
"553 15 CURVE SMOOTH",
"553 119 LINE SMOOTH",
"553 191 OFFCURVE",
"564 231 OFFCURVE",
"595 271 CURVE SMOOTH",
"606 287 LINE",
"595 303 LINE",
"404 303 LINE",
"394 271 LINE",
"413 265 LINE",
"459 252 OFFCURVE",
"473 236 OFFCURVE",
"473 181 CURVE SMOOTH",
"473 135 LINE",
"434 96 OFFCURVE",
"384 74 OFFCURVE",
"320 74 CURVE SMOOTH",
"202 74 OFFCURVE",
"130 195 OFFCURVE",
"130 345 CURVE SMOOTH",
"130 460 OFFCURVE",
"180 613 OFFCURVE",
"331 613 CURVE SMOOTH",
"409 613 OFFCURVE",
"460 570 OFFCURVE",
"460 508 CURVE SMOOTH",
"460 457 OFFCURVE",
"435 436 OFFCURVE",
"435 426 CURVE SMOOTH",
"435 416 OFFCURVE",
"435 414 OFFCURVE",
"453 414 CURVE SMOOTH",
"508 414 OFFCURVE",
"550 458 OFFCURVE",
"550 521 CURVE SMOOTH",
"550 605 OFFCURVE",
"459 663 OFFCURVE",
"331 663 CURVE SMOOTH",
"129 663 OFFCURVE",
"32 511 OFFCURVE",
"32 341 CURVE SMOOTH",
"32 161 OFFCURVE",
"123 15 OFFCURVE",
"313 15 CURVE SMOOTH",
"375 15 OFFCURVE",
"429 39 OFFCURVE",
"473 75 CURVE",
"473 -11 LINE SMOOTH",
"473 -152 OFFCURVE",
"431 -205 OFFCURVE",
"354 -205 CURVE SMOOTH",
"295 -205 OFFCURVE",
"261 -167 OFFCURVE",
"261 -120 CURVE SMOOTH",
"261 -54 OFFCURVE",
"306 -34 OFFCURVE",
"306 -22 CURVE SMOOTH",
"306 -18 OFFCURVE",
"302 -13 OFFCURVE",
"289 -13 CURVE SMOOTH",
"213 -13 OFFCURVE",
"174 -65 OFFCURVE",
"174 -123 CURVE SMOOTH",
"174 -187 OFFCURVE",
"227 -253 OFFCURVE",
"339 -253 CURVE SMOOTH"
);
},
{
closed = 1;
nodes = (
"331 791 LINE",
"426 716 LINE",
"455 742 LINE",
"416 812 OFFCURVE",
"363 872 OFFCURVE",
"343 884 CURVE",
"319 884 LINE",
"296 870 OFFCURVE",
"246 810 OFFCURVE",
"207 742 CURVE",
"237 716 LINE"
);
}
);
width = 625;
}
);
leftKerningGroup = kc0_2;
unicode = 011C;
},
{
glyphname = Gcommaaccent;
layers = (
{
layerId = "25D154CF-C470-4D68-A10D-6356F2BE0292";
paths = (
{
closed = 1;
nodes = (
"470 -253 OFFCURVE",
"553 -179 OFFCURVE",
"553 15 CURVE SMOOTH",
"553 119 LINE SMOOTH",
"553 191 OFFCURVE",
"564 231 OFFCURVE",
"595 271 CURVE SMOOTH",
"606 287 LINE",
"595 303 LINE",
"404 303 LINE",
"394 271 LINE",
"413 265 LINE",
"459 252 OFFCURVE",
"473 236 OFFCURVE",
"473 181 CURVE SMOOTH",
"473 135 LINE",
"434 96 OFFCURVE",
"384 74 OFFCURVE",
"320 74 CURVE SMOOTH",
"202 74 OFFCURVE",
"130 195 OFFCURVE",
"130 345 CURVE SMOOTH",
"130 460 OFFCURVE",
"180 613 OFFCURVE",
"331 613 CURVE SMOOTH",
"409 613 OFFCURVE",
"460 570 OFFCURVE",
"460 508 CURVE SMOOTH",
"460 457 OFFCURVE",
"435 436 OFFCURVE",
"435 426 CURVE SMOOTH",
"435 416 OFFCURVE",
"435 414 OFFCURVE",
"453 414 CURVE SMOOTH",
"508 414 OFFCURVE",
"550 458 OFFCURVE",
"550 521 CURVE SMOOTH",
"550 605 OFFCURVE",
"459 663 OFFCURVE",
"331 663 CURVE SMOOTH",
"129 663 OFFCURVE",
"32 511 OFFCURVE",
"32 341 CURVE SMOOTH",
"32 161 OFFCURVE",
"123 15 OFFCURVE",
"313 15 CURVE SMOOTH",
"375 15 OFFCURVE",
"429 39 OFFCURVE",
"473 75 CURVE",
"473 -11 LINE SMOOTH",
"473 -152 OFFCURVE",
"431 -205 OFFCURVE",
"354 -205 CURVE SMOOTH",
"295 -205 OFFCURVE",
"261 -167 OFFCURVE",
"261 -120 CURVE SMOOTH",
"261 -54 OFFCURVE",
"306 -34 OFFCURVE",
"306 -22 CURVE SMOOTH",
"306 -18 OFFCURVE",
"302 -13 OFFCURVE",
"289 -13 CURVE SMOOTH",
"213 -13 OFFCURVE",
"174 -65 OFFCURVE",
"174 -123 CURVE SMOOTH",
"174 -187 OFFCURVE",
"227 -253 OFFCURVE",
"339 -253 CURVE SMOOTH"
);
},
{
closed = 1;
nodes = (
"342 726 OFFCURVE",
"360 729 OFFCURVE",
"376 735 CURVE SMOOTH",
"393 742 LINE",
"389 764 LINE",
"371 774 LINE",
"357 785 OFFCURVE",
"352 795 OFFCURVE",
"352 809 CURVE SMOOTH",
"352 818 OFFCURVE",
"354 830 OFFCURVE",
"361 846 CURVE",
"403 927 LINE",
"376 944 LINE",
"341 906 LINE SMOOTH",
"299 860 OFFCURVE",
"267 822 OFFCURVE",
"267 785 CURVE SMOOTH",
"267 740 OFFCURVE",
"293 726 OFFCURVE",
"326 726 CURVE SMOOTH"
);
}
);
width = 625;
}
);
leftKerningGroup = kc0_2;
unicode = 0122;
},
{
glyphname = Gdotaccent;
layers = (
{
layerId = "25D154CF-C470-4D68-A10D-6356F2BE0292";
paths = (
{
closed = 1;
nodes = (
"470 -253 OFFCURVE",
"553 -179 OFFCURVE",
"553 15 CURVE SMOOTH",
"553 119 LINE SMOOTH",
"553 191 OFFCURVE",
"564 231 OFFCURVE",
"595 271 CURVE SMOOTH",
"606 287 LINE",
"595 303 LINE",
"404 303 LINE",
"394 271 LINE",
"413 265 LINE",
"459 252 OFFCURVE",
"473 236 OFFCURVE",
"473 181 CURVE SMOOTH",
"473 135 LINE",
"434 96 OFFCURVE",
"384 74 OFFCURVE",
"320 74 CURVE SMOOTH",
"202 74 OFFCURVE",
"130 195 OFFCURVE",
"130 345 CURVE SMOOTH",
"130 460 OFFCURVE",
"180 613 OFFCURVE",
"331 613 CURVE SMOOTH",
"409 613 OFFCURVE",
"460 570 OFFCURVE",
"460 508 CURVE SMOOTH",
"460 457 OFFCURVE",
"435 436 OFFCURVE",
"435 426 CURVE SMOOTH",
"435 416 OFFCURVE",
"435 414 OFFCURVE",
"453 414 CURVE SMOOTH",
"508 414 OFFCURVE",
"550 458 OFFCURVE",
"550 521 CURVE SMOOTH",
"550 605 OFFCURVE",
"459 663 OFFCURVE",
"331 663 CURVE SMOOTH",
"129 663 OFFCURVE",
"32 511 OFFCURVE",
"32 341 CURVE SMOOTH",
"32 161 OFFCURVE",
"123 15 OFFCURVE",
"313 15 CURVE SMOOTH",
"375 15 OFFCURVE",
"429 39 OFFCURVE",
"473 75 CURVE",
"473 -11 LINE SMOOTH",
"473 -152 OFFCURVE",
"431 -205 OFFCURVE",
"354 -205 CURVE SMOOTH",
"295 -205 OFFCURVE",
"261 -167 OFFCURVE",
"261 -120 CURVE SMOOTH",
"261 -54 OFFCURVE",
"306 -34 OFFCURVE",
"306 -22 CURVE SMOOTH",
"306 -18 OFFCURVE",
"302 -13 OFFCURVE",
"289 -13 CURVE SMOOTH",
"213 -13 OFFCURVE",
"174 -65 OFFCURVE",
"174 -123 CURVE SMOOTH",
"174 -187 OFFCURVE",
"227 -253 OFFCURVE",
"339 -253 CURVE SMOOTH"
);
},
{
closed = 1;
nodes = (
"355 729 OFFCURVE",
"395 769 OFFCURVE",
"395 796 CURVE SMOOTH",
"395 824 OFFCURVE",
"355 865 OFFCURVE",
"330 865 CURVE SMOOTH",
"304 865 OFFCURVE",
"266 824 OFFCURVE",
"266 796 CURVE SMOOTH",
"266 769 OFFCURVE",
"305 729 OFFCURVE",
"330 729 CURVE SMOOTH"
);
}
);
width = 625;
}
);
leftKerningGroup = kc0_2;
unicode = 0120;
},
{
glyphname = H;
layers = (
{
layerId = "25D154CF-C470-4D68-A10D-6356F2BE0292";
paths = (
{
closed = 1;
nodes = (
"270 0 LINE",
"278 29 LINE",
"260 34 LINE SMOOTH",
"217 47 OFFCURVE",
"205 61 OFFCURVE",
"205 114 CURVE SMOOTH",
"205 303 LINE",
"501 303 LINE",
"501 120 LINE SMOOTH",
"501 63 OFFCURVE",
"488 50 OFFCURVE",
"442 36 CURVE SMOOTH",
"423 31 LINE",
"434 0 LINE",
"655 0 LINE",
"665 29 LINE",
"646 34 LINE SMOOTH",
"603 47 OFFCURVE",
"590 61 OFFCURVE",
"590 114 CURVE SMOOTH",
"590 469 LINE SMOOTH",
"590 541 OFFCURVE",
"602 580 OFFCURVE",
"631 619 CURVE SMOOTH",
"645 636 LINE",
"631 650 LINE",
"434 650 LINE",
"423 619 LINE",
"442 614 LINE SMOOTH",
"488 602 OFFCURVE",
"501 586 OFFCURVE",
"501 530 CURVE SMOOTH",
"501 357 LINE",
"205 357 LINE",
"205 469 LINE SMOOTH",
"205 541 OFFCURVE",
"216 580 OFFCURVE",
"246 619 CURVE SMOOTH",
"258 636 LINE",
"246 650 LINE",
"47 650 LINE",
"36 619 LINE",
"58 614 LINE",
"103 602 OFFCURVE",
"115 586 OFFCURVE",
"115 530 CURVE SMOOTH",
"115 120 LINE SMOOTH",
"115 63 OFFCURVE",
"103 50 OFFCURVE",
"58 36 CURVE",
"36 31 LINE",
"47 0 LINE"
);
}
);
width = 705;
}
);
unicode = 0048;
},
{
glyphname = Hbar;
layers = (
{
layerId = "25D154CF-C470-4D68-A10D-6356F2BE0292";
paths = (
{
closed = 1;
nodes = (
"270 0 LINE",
"278 29 LINE",
"260 34 LINE SMOOTH",
"217 47 OFFCURVE",
"205 61 OFFCURVE",
"205 114 CURVE SMOOTH",
"205 303 LINE",
"501 303 LINE",
"501 120 LINE SMOOTH",
"501 63 OFFCURVE",
"488 50 OFFCURVE",
"442 36 CURVE SMOOTH",
"423 31 LINE",
"434 0 LINE",
"655 0 LINE",
"665 29 LINE",
"646 34 LINE SMOOTH",
"603 47 OFFCURVE",
"590 61 OFFCURVE",
"590 114 CURVE SMOOTH",
"590 450 LINE",
"641 450 LINE",
"668 463 OFFCURVE",
"678 487 OFFCURVE",
"678 506 CURVE",
"591 506 LINE",
"594 556 OFFCURVE",
"607 587 OFFCURVE",
"631 619 CURVE",
"645 636 LINE",
"631 650 LINE",
"434 650 LINE",
"423 619 LINE",
"442 614 LINE SMOOTH",
"488 602 OFFCURVE",
"501 586 OFFCURVE",
"501 530 CURVE SMOOTH",
"501 506 LINE",
"206 506 LINE",
"209 556 OFFCURVE",
"221 587 OFFCURVE",
"246 619 CURVE",
"258 636 LINE",
"246 650 LINE",
"47 650 LINE",
"36 619 LINE",
"58 614 LINE",
"103 602 OFFCURVE",
"115 586 OFFCURVE",
"115 530 CURVE SMOOTH",
"115 506 LINE",
"63 506 LINE",
"34 494 OFFCURVE",
"27 469 OFFCURVE",
"27 450 CURVE",
"115 450 LINE",
"115 120 LINE SMOOTH",
"115 63 OFFCURVE",
"103 50 OFFCURVE",
"58 36 CURVE",
"36 31 LINE",
"47 0 LINE"
);
},
{
closed = 1;
nodes = (
"205 450 LINE",
"501 450 LINE",
"501 357 LINE",
"205 357 LINE"
);
}
);
width = 705;
}
);
unicode = 0126;
},
{
glyphname = Hcircumflex;
layers = (
{
layerId = "25D154CF-C470-4D68-A10D-6356F2BE0292";
paths = (
{
closed = 1;
nodes = (
"270 0 LINE",
"278 29 LINE",
"260 34 LINE SMOOTH",
"217 47 OFFCURVE",
"205 61 OFFCURVE",
"205 114 CURVE SMOOTH",
"205 303 LINE",
"501 303 LINE",
"501 120 LINE SMOOTH",
"501 63 OFFCURVE",
"488 50 OFFCURVE",
"442 36 CURVE SMOOTH",
"423 31 LINE",
"434 0 LINE",
"655 0 LINE",
"665 29 LINE",
"646 34 LINE SMOOTH",
"603 47 OFFCURVE",
"590 61 OFFCURVE",
"590 114 CURVE SMOOTH",
"590 469 LINE SMOOTH",
"590 541 OFFCURVE",
"602 580 OFFCURVE",
"631 619 CURVE SMOOTH",
"645 636 LINE",
"631 650 LINE",
"434 650 LINE",
"423 619 LINE",
"442 614 LINE SMOOTH",
"488 602 OFFCURVE",
"501 586 OFFCURVE",
"501 530 CURVE SMOOTH",
"501 357 LINE",
"205 357 LINE",
"205 469 LINE SMOOTH",
"205 541 OFFCURVE",
"216 580 OFFCURVE",
"246 619 CURVE SMOOTH",
"258 636 LINE",
"246 650 LINE",
"47 650 LINE",
"36 619 LINE",
"58 614 LINE",
"103 602 OFFCURVE",
"115 586 OFFCURVE",
"115 530 CURVE SMOOTH",
"115 120 LINE SMOOTH",
"115 63 OFFCURVE",
"103 50 OFFCURVE",
"58 36 CURVE",
"36 31 LINE",
"47 0 LINE"
);
},
{
closed = 1;
nodes = (
"354 791 LINE",
"448 716 LINE",
"477 742 LINE",
"438 812 OFFCURVE",
"385 872 OFFCURVE",
"364 884 CURVE",
"341 884 LINE",
"317 870 OFFCURVE",
"268 810 OFFCURVE",
"229 742 CURVE",
"259 716 LINE"
);
}
);
width = 705;
}
);
unicode = 0124;
},
{
glyphname = I;
layers = (
{
layerId = "25D154CF-C470-4D68-A10D-6356F2BE0292";
paths = (
{
closed = 1;
nodes = (
"270 0 LINE",
"278 29 LINE",
"260 34 LINE SMOOTH",
"217 47 OFFCURVE",
"205 61 OFFCURVE",
"205 114 CURVE SMOOTH",
"205 469 LINE SMOOTH",
"205 541 OFFCURVE",
"216 580 OFFCURVE",
"246 619 CURVE SMOOTH",
"258 636 LINE",
"246 650 LINE",
"47 650 LINE",
"36 619 LINE",
"58 614 LINE",
"103 602 OFFCURVE",
"115 586 OFFCURVE",
"115 530 CURVE SMOOTH",
"115 120 LINE SMOOTH",
"115 63 OFFCURVE",
"103 50 OFFCURVE",
"58 36 CURVE",
"36 31 LINE",
"47 0 LINE"
);
}
);
width = 319;
}
);
unicode = 0049;
},
{
glyphname = IJ;
layers = (
{
layerId = "25D154CF-C470-4D68-A10D-6356F2BE0292";
paths = (
{
closed = 1;
nodes = (
"579 -13 OFFCURVE",
"656 50 OFFCURVE",
"656 214 CURVE SMOOTH",
"656 469 LINE SMOOTH",
"656 541 OFFCURVE",
"667 580 OFFCURVE",
"696 619 CURVE SMOOTH",
"709 636 LINE",
"696 650 LINE",
"499 650 LINE",
"488 619 LINE",
"508 614 LINE SMOOTH",
"554 602 OFFCURVE",
"567 586 OFFCURVE",
"567 530 CURVE SMOOTH",
"567 159 LINE SMOOTH",
"567 59 OFFCURVE",
"522 34 OFFCURVE",
"473 34 CURVE SMOOTH",
"420 34 OFFCURVE",
"391 72 OFFCURVE",
"391 119 CURVE SMOOTH",
"391 185 OFFCURVE",
"435 204 OFFCURVE",
"435 217 CURVE SMOOTH",
"435 221 OFFCURVE",
"430 227 OFFCURVE",
"417 227 CURVE SMOOTH",
"341 227 OFFCURVE",
"303 173 OFFCURVE",
"303 117 CURVE SMOOTH",
"303 53 OFFCURVE",
"355 -13 OFFCURVE",
"467 -13 CURVE SMOOTH"
);
},
{
closed = 1;
nodes = (
"270 0 LINE",
"278 29 LINE",
"260 34 LINE SMOOTH",
"217 47 OFFCURVE",
"205 61 OFFCURVE",
"205 114 CURVE SMOOTH",
"205 469 LINE SMOOTH",
"205 541 OFFCURVE",
"216 580 OFFCURVE",
"246 619 CURVE SMOOTH",
"258 636 LINE",
"246 650 LINE",
"47 650 LINE",
"36 619 LINE",
"58 614 LINE",
"103 602 OFFCURVE",
"115 586 OFFCURVE",
"115 530 CURVE SMOOTH",
"115 120 LINE SMOOTH",
"115 63 OFFCURVE",
"103 50 OFFCURVE",
"58 36 CURVE",
"36 31 LINE",
"47 0 LINE"
);
}
);
width = 744;
}
);
unicode = 0132;
},
{
glyphname = Iacute;
layers = (
{
layerId = "25D154CF-C470-4D68-A10D-6356F2BE0292";
paths = (
{
closed = 1;
nodes = (
"270 0 LINE",
"278 29 LINE",
"260 34 LINE SMOOTH",
"217 47 OFFCURVE",
"205 61 OFFCURVE",
"205 114 CURVE SMOOTH",
"205 469 LINE SMOOTH",
"205 541 OFFCURVE",
"216 580 OFFCURVE",
"246 619 CURVE SMOOTH",
"258 636 LINE",
"246 650 LINE",
"47 650 LINE",
"36 619 LINE",
"58 614 LINE",
"103 602 OFFCURVE",
"115 586 OFFCURVE",
"115 530 CURVE SMOOTH",
"115 120 LINE SMOOTH",
"115 63 OFFCURVE",
"103 50 OFFCURVE",
"58 36 CURVE",
"36 31 LINE",
"47 0 LINE"
);
},
{
closed = 1;
nodes = (
"207 767 LINE SMOOTH",
"243 784 OFFCURVE",
"257 806 OFFCURVE",
"257 831 CURVE SMOOTH",
"257 858 OFFCURVE",
"241 878 OFFCURVE",
"218 890 CURVE",
"78 747 LINE",
"104 717 LINE"
);
}
);
width = 319;
}
);
unicode = 00CD;
},
{
glyphname = Ibreve;
layers = (
{
layerId = "25D154CF-C470-4D68-A10D-6356F2BE0292";
paths = (
{
closed = 1;
nodes = (
"270 0 LINE",
"278 29 LINE",
"260 34 LINE SMOOTH",
"217 47 OFFCURVE",
"205 61 OFFCURVE",
"205 114 CURVE SMOOTH",
"205 469 LINE SMOOTH",
"205 541 OFFCURVE",
"216 580 OFFCURVE",
"246 619 CURVE SMOOTH",
"258 636 LINE",
"246 650 LINE",
"47 650 LINE",
"36 619 LINE",
"58 614 LINE",
"103 602 OFFCURVE",
"115 586 OFFCURVE",
"115 530 CURVE SMOOTH",
"115 120 LINE SMOOTH",
"115 63 OFFCURVE",
"103 50 OFFCURVE",
"58 36 CURVE",
"36 31 LINE",
"47 0 LINE"
);
},
{
closed = 1;
nodes = (
"224 726 OFFCURVE",
"272 767 OFFCURVE",
"272 852 CURVE",
"223 852 LINE",
"223 815 OFFCURVE",
"195 795 OFFCURVE",
"161 795 CURVE SMOOTH",
"125 795 OFFCURVE",
"97 815 OFFCURVE",
"97 852 CURVE",
"47 852 LINE",
"47 767 OFFCURVE",
"96 726 OFFCURVE",
"161 726 CURVE SMOOTH"
);
}
);
width = 319;
}
);
unicode = 012C;
},
{
glyphname = Icircumflex;
layers = (
{
layerId = "25D154CF-C470-4D68-A10D-6356F2BE0292";
paths = (
{
closed = 1;
nodes = (
"270 0 LINE",
"278 29 LINE",
"260 34 LINE SMOOTH",
"217 47 OFFCURVE",
"205 61 OFFCURVE",
"205 114 CURVE SMOOTH",
"205 469 LINE SMOOTH",
"205 541 OFFCURVE",
"216 580 OFFCURVE",
"246 619 CURVE SMOOTH",
"258 636 LINE",
"246 650 LINE",
"47 650 LINE",
"36 619 LINE",
"58 614 LINE",
"103 602 OFFCURVE",
"115 586 OFFCURVE",
"115 530 CURVE SMOOTH",
"115 120 LINE SMOOTH",
"115 63 OFFCURVE",
"103 50 OFFCURVE",
"58 36 CURVE",
"36 31 LINE",
"47 0 LINE"
);
},
{
closed = 1;
nodes = (
"160 791 LINE",
"256 717 LINE",
"285 741 LINE",
"245 813 OFFCURVE",
"193 872 OFFCURVE",
"173 884 CURVE",
"148 884 LINE",
"125 870 OFFCURVE",
"75 811 OFFCURVE",
"36 741 CURVE",
"66 717 LINE"
);
}
);
width = 319;
}
);
unicode = 00CE;
},
{
glyphname = Idieresis;
layers = (
{
layerId = "25D154CF-C470-4D68-A10D-6356F2BE0292";
paths = (
{
closed = 1;
nodes = (
"270 0 LINE",
"278 29 LINE",
"260 34 LINE SMOOTH",
"217 47 OFFCURVE",
"205 61 OFFCURVE",
"205 114 CURVE SMOOTH",
"205 469 LINE SMOOTH",
"205 541 OFFCURVE",
"216 580 OFFCURVE",
"246 619 CURVE SMOOTH",
"258 636 LINE",
"246 650 LINE",
"47 650 LINE",
"36 619 LINE",
"58 614 LINE",
"103 602 OFFCURVE",
"115 586 OFFCURVE",
"115 530 CURVE SMOOTH",
"115 120 LINE SMOOTH",
"115 63 OFFCURVE",
"103 50 OFFCURVE",
"58 36 CURVE",
"36 31 LINE",
"47 0 LINE"
);
},
{
closed = 1;
nodes = (
"95 737 OFFCURVE",
"131 773 OFFCURVE",
"131 796 CURVE SMOOTH",
"131 819 OFFCURVE",
"95 856 OFFCURVE",
"72 856 CURVE SMOOTH",
"51 856 OFFCURVE",
"18 819 OFFCURVE",
"18 796 CURVE SMOOTH",
"18 773 OFFCURVE",
"52 737 OFFCURVE",
"72 737 CURVE SMOOTH"
);
},
{
closed = 1;
nodes = (
"267 737 OFFCURVE",
"303 773 OFFCURVE",
"303 796 CURVE SMOOTH",
"303 819 OFFCURVE",
"267 856 OFFCURVE",
"244 856 CURVE SMOOTH",
"223 856 OFFCURVE",
"189 819 OFFCURVE",
"189 796 CURVE SMOOTH",
"189 773 OFFCURVE",
"224 737 OFFCURVE",
"244 737 CURVE SMOOTH"
);
}
);
width = 319;
}
);
unicode = 00CF;
},
{
glyphname = Idotaccent;
layers = (
{
layerId = "25D154CF-C470-4D68-A10D-6356F2BE0292";
paths = (
{
closed = 1;
nodes = (
"270 0 LINE",
"278 29 LINE",
"260 34 LINE SMOOTH",
"217 47 OFFCURVE",
"205 61 OFFCURVE",
"205 114 CURVE SMOOTH",
"205 469 LINE SMOOTH",
"205 541 OFFCURVE",
"216 580 OFFCURVE",
"246 619 CURVE SMOOTH",
"258 636 LINE",
"246 650 LINE",
"47 650 LINE",
"36 619 LINE",
"58 614 LINE",
"103 602 OFFCURVE",
"115 586 OFFCURVE",
"115 530 CURVE SMOOTH",
"115 120 LINE SMOOTH",
"115 63 OFFCURVE",
"103 50 OFFCURVE",
"58 36 CURVE",
"36 31 LINE",
"47 0 LINE"
);
},
{
closed = 1;
nodes = (
"185 729 OFFCURVE",
"224 769 OFFCURVE",
"224 796 CURVE SMOOTH",
"224 824 OFFCURVE",
"185 865 OFFCURVE",
"159 865 CURVE SMOOTH",
"133 865 OFFCURVE",
"95 824 OFFCURVE",
"95 796 CURVE SMOOTH",
"95 769 OFFCURVE",
"134 729 OFFCURVE",
"159 729 CURVE SMOOTH"
);
}
);
width = 319;
}
);
unicode = 0130;
},
{
glyphname = Igrave;
layers = (
{
layerId = "25D154CF-C470-4D68-A10D-6356F2BE0292";
paths = (
{
closed = 1;
nodes = (
"270 0 LINE",
"278 29 LINE",
"260 34 LINE SMOOTH",
"217 47 OFFCURVE",
"205 61 OFFCURVE",
"205 114 CURVE SMOOTH",
"205 469 LINE SMOOTH",
"205 541 OFFCURVE",
"216 580 OFFCURVE",
"246 619 CURVE SMOOTH",
"258 636 LINE",
"246 650 LINE",
"47 650 LINE",
"36 619 LINE",
"58 614 LINE",
"103 602 OFFCURVE",
"115 586 OFFCURVE",
"115 530 CURVE SMOOTH",
"115 120 LINE SMOOTH",
"115 63 OFFCURVE",
"103 50 OFFCURVE",
"58 36 CURVE",
"36 31 LINE",
"47 0 LINE"
);
},
{
closed = 1;
nodes = (
"249 747 LINE",
"108 890 LINE",
"85 878 OFFCURVE",
"69 858 OFFCURVE",
"69 831 CURVE SMOOTH",
"69 806 OFFCURVE",
"83 784 OFFCURVE",
"120 767 CURVE SMOOTH",
"224 717 LINE"
);
}
);
width = 319;
}
);
unicode = 00CC;
},
{
glyphname = Imacron;
layers = (
{
layerId = "25D154CF-C470-4D68-A10D-6356F2BE0292";
paths = (
{
closed = 1;
nodes = (
"270 0 LINE",
"278 29 LINE",
"260 34 LINE SMOOTH",
"217 47 OFFCURVE",
"205 61 OFFCURVE",
"205 114 CURVE SMOOTH",
"205 469 LINE SMOOTH",
"205 541 OFFCURVE",
"216 580 OFFCURVE",
"246 619 CURVE SMOOTH",
"258 636 LINE",
"246 650 LINE",
"47 650 LINE",
"36 619 LINE",
"58 614 LINE",
"103 602 OFFCURVE",
"115 586 OFFCURVE",
"115 530 CURVE SMOOTH",
"115 120 LINE SMOOTH",
"115 63 OFFCURVE",
"103 50 OFFCURVE",
"58 36 CURVE",
"36 31 LINE",
"47 0 LINE"
);
},
{
closed = 1;
nodes = (
"271 760 LINE",
"289 774 OFFCURVE",
"294 807 OFFCURVE",
"294 832 CURVE",
"50 832 LINE",
"32 815 OFFCURVE",
"26 785 OFFCURVE",
"26 760 CURVE"
);
}
);
width = 319;
}
);
unicode = 012A;
},
{
glyphname = Iogonek;
layers = (
{
layerId = "25D154CF-C470-4D68-A10D-6356F2BE0292";
paths = (
{
closed = 1;
nodes = (
"208 -253 OFFCURVE",
"259 -223 OFFCURVE",
"309 -160 CURVE",
"278 -133 LINE",
"247 -170 OFFCURVE",
"206 -190 OFFCURVE",
"174 -190 CURVE SMOOTH",
"143 -190 OFFCURVE",
"121 -173 OFFCURVE",
"121 -137 CURVE SMOOTH",
"121 -102 OFFCURVE",
"150 -54 OFFCURVE",
"230 0 CURVE",
"270 0 LINE",
"278 29 LINE",
"260 34 LINE SMOOTH",
"217 47 OFFCURVE",
"205 61 OFFCURVE",
"205 114 CURVE SMOOTH",
"205 469 LINE SMOOTH",
"205 541 OFFCURVE",
"216 580 OFFCURVE",
"246 619 CURVE SMOOTH",
"258 636 LINE",
"246 650 LINE",
"47 650 LINE",
"36 619 LINE",
"58 614 LINE",
"103 602 OFFCURVE",
"115 586 OFFCURVE",
"115 530 CURVE SMOOTH",
"115 120 LINE SMOOTH",
"115 63 OFFCURVE",
"103 50 OFFCURVE",
"58 36 CURVE",
"36 31 LINE",
"47 0 LINE",
"162 0 LINE",
"85 -56 OFFCURVE",
"48 -100 OFFCURVE",
"48 -157 CURVE SMOOTH",
"48 -218 OFFCURVE",
"91 -253 OFFCURVE",
"148 -253 CURVE SMOOTH"
);
}
);
width = 319;
}
);
unicode = 012E;
},
{
glyphname = Itilde;
layers = (
{
layerId = "25D154CF-C470-4D68-A10D-6356F2BE0292";
paths = (
{
closed = 1;
nodes = (
"270 0 LINE",
"278 29 LINE",
"260 34 LINE SMOOTH",
"217 47 OFFCURVE",
"205 61 OFFCURVE",
"205 114 CURVE SMOOTH",
"205 469 LINE SMOOTH",
"205 541 OFFCURVE",
"216 580 OFFCURVE",
"246 619 CURVE SMOOTH",
"258 636 LINE",
"246 650 LINE",
"47 650 LINE",
"36 619 LINE",
"58 614 LINE",
"103 602 OFFCURVE",
"115 586 OFFCURVE",
"115 530 CURVE SMOOTH",
"115 120 LINE SMOOTH",
"115 63 OFFCURVE",
"103 50 OFFCURVE",
"58 36 CURVE",
"36 31 LINE",
"47 0 LINE"
);
},
{
closed = 1;
nodes = (
"70 759 OFFCURVE",
"91 771 OFFCURVE",
"106 771 CURVE SMOOTH",
"135 771 OFFCURVE",
"151 739 OFFCURVE",
"191 739 CURVE SMOOTH",
"226 739 OFFCURVE",
"270 773 OFFCURVE",
"307 827 CURVE",
"275 855 LINE",
"250 830 OFFCURVE",
"229 820 OFFCURVE",
"215 820 CURVE SMOOTH",
"185 820 OFFCURVE",
"168 851 OFFCURVE",
"130 851 CURVE SMOOTH",
"94 851 OFFCURVE",
"51 816 OFFCURVE",
"13 764 CURVE",
"45 735 LINE"
);
}
);
width = 319;
}
);
unicode = 0128;
},
{
glyphname = J;
layers = (
{
layerId = "25D154CF-C470-4D68-A10D-6356F2BE0292";
paths = (
{
closed = 1;
nodes = (
"259 -13 OFFCURVE",
"337 50 OFFCURVE",
"337 214 CURVE SMOOTH",
"337 469 LINE SMOOTH",
"337 541 OFFCURVE",
"347 580 OFFCURVE",
"376 619 CURVE SMOOTH",
"389 636 LINE",
"376 650 LINE",
"179 650 LINE",
"168 619 LINE",
"188 614 LINE SMOOTH",
"234 602 OFFCURVE",
"247 586 OFFCURVE",
"247 530 CURVE SMOOTH",
"247 159 LINE SMOOTH",
"247 59 OFFCURVE",
"202 34 OFFCURVE",
"152 34 CURVE SMOOTH",
"100 34 OFFCURVE",
"70 72 OFFCURVE",
"70 119 CURVE SMOOTH",
"70 185 OFFCURVE",
"114 204 OFFCURVE",
"114 217 CURVE SMOOTH",
"114 221 OFFCURVE",
"109 227 OFFCURVE",
"97 227 CURVE SMOOTH",
"21 227 OFFCURVE",
"-18 173 OFFCURVE",
"-18 117 CURVE SMOOTH",
"-18 53 OFFCURVE",
"35 -13 OFFCURVE",
"146 -13 CURVE SMOOTH"
);
}
);
width = 425;
}
);
unicode = 004A;
},
{
glyphname = Jcircumflex;
layers = (
{
layerId = "25D154CF-C470-4D68-A10D-6356F2BE0292";
paths = (
{
closed = 1;
nodes = (
"259 -13 OFFCURVE",
"337 50 OFFCURVE",
"337 214 CURVE SMOOTH",
"337 469 LINE SMOOTH",
"337 541 OFFCURVE",
"347 580 OFFCURVE",
"376 619 CURVE SMOOTH",
"389 636 LINE",
"376 650 LINE",
"179 650 LINE",
"168 619 LINE",
"188 614 LINE SMOOTH",
"234 602 OFFCURVE",
"247 586 OFFCURVE",
"247 530 CURVE SMOOTH",
"247 159 LINE SMOOTH",
"247 59 OFFCURVE",
"202 34 OFFCURVE",
"152 34 CURVE SMOOTH",
"100 34 OFFCURVE",
"70 72 OFFCURVE",
"70 119 CURVE SMOOTH",
"70 185 OFFCURVE",
"114 204 OFFCURVE",
"114 217 CURVE SMOOTH",
"114 221 OFFCURVE",
"109 227 OFFCURVE",
"97 227 CURVE SMOOTH",
"21 227 OFFCURVE",
"-18 173 OFFCURVE",
"-18 117 CURVE SMOOTH",
"-18 53 OFFCURVE",
"35 -13 OFFCURVE",
"146 -13 CURVE SMOOTH"
);
},
{
closed = 1;
nodes = (
"285 791 LINE",
"379 716 LINE",
"408 742 LINE",
"369 812 OFFCURVE",
"316 872 OFFCURVE",
"296 884 CURVE",
"272 884 LINE",
"249 870 OFFCURVE",
"199 810 OFFCURVE",
"160 742 CURVE",
"190 716 LINE"
);
}
);
width = 425;
}
);
unicode = 0134;
},
{
glyphname = K;
layers = (
{
layerId = "25D154CF-C470-4D68-A10D-6356F2BE0292";
paths = (
{
closed = 1;
nodes = (
"534 -13 OFFCURVE",
"563 -3 OFFCURVE",
"589 23 CURVE",
"574 50 LINE",
"562 40 OFFCURVE",
"551 37 OFFCURVE",
"539 37 CURVE SMOOTH",
"522 37 OFFCURVE",
"515 49 OFFCURVE",
"504 64 CURVE",
"389 271 LINE SMOOTH",
"371 302 OFFCURVE",
"350 318 OFFCURVE",
"326 329 CURVE",
"489 565 LINE SMOOTH",
"511 597 OFFCURVE",
"533 608 OFFCURVE",
"560 614 CURVE SMOOTH",
"581 619 LINE",
"570 650 LINE",
"405 650 LINE",
"389 636 LINE",
"396 619 LINE",
"400 609 OFFCURVE",
"408 594 OFFCURVE",
"408 579 CURVE SMOOTH",
"408 564 OFFCURVE",
"405 553 OFFCURVE",
"390 527 CURVE SMOOTH",
"266 345 LINE",
"245 345 LINE SMOOTH",
"229 345 OFFCURVE",
"227 332 OFFCURVE",
"227 323 CURVE SMOOTH",
"227 319 OFFCURVE",
"228 314 OFFCURVE",
"230 313 CURVE",
"253 303 OFFCURVE",
"264 296 OFFCURVE",
"277 272 CURVE SMOOTH",
"386 76 LINE SMOOTH",
"416 21 OFFCURVE",
"448 -13 OFFCURVE",
"506 -13 CURVE SMOOTH"
);
},
{
closed = 1;
nodes = (
"270 0 LINE",
"278 29 LINE",
"260 34 LINE SMOOTH",
"217 47 OFFCURVE",
"205 61 OFFCURVE",
"205 114 CURVE SMOOTH",
"205 469 LINE SMOOTH",
"205 541 OFFCURVE",
"216 580 OFFCURVE",
"246 619 CURVE SMOOTH",
"258 636 LINE",
"246 650 LINE",
"47 650 LINE",
"36 619 LINE",
"58 614 LINE",
"103 602 OFFCURVE",
"115 586 OFFCURVE",
"115 530 CURVE SMOOTH",
"115 120 LINE SMOOTH",
"115 63 OFFCURVE",
"103 50 OFFCURVE",
"58 36 CURVE",
"36 31 LINE",
"47 0 LINE"
);
}
);
width = 605;
}
);
rightKerningGroup = kc0_4;
unicode = 004B;
},
{
glyphname = Kcommaaccent;
layers = (
{
layerId = "25D154CF-C470-4D68-A10D-6356F2BE0292";
paths = (
{
closed = 1;
nodes = (
"534 -13 OFFCURVE",
"563 -3 OFFCURVE",
"589 23 CURVE",
"574 50 LINE",
"562 40 OFFCURVE",
"551 37 OFFCURVE",
"539 37 CURVE SMOOTH",
"522 37 OFFCURVE",
"515 49 OFFCURVE",
"504 64 CURVE",
"389 271 LINE SMOOTH",
"371 302 OFFCURVE",
"350 318 OFFCURVE",
"326 329 CURVE",
"489 565 LINE SMOOTH",
"511 597 OFFCURVE",
"533 608 OFFCURVE",
"560 614 CURVE SMOOTH",
"581 619 LINE",
"570 650 LINE",
"405 650 LINE",
"389 636 LINE",
"396 619 LINE",
"400 609 OFFCURVE",
"408 594 OFFCURVE",
"408 579 CURVE SMOOTH",
"408 564 OFFCURVE",
"405 553 OFFCURVE",
"390 527 CURVE SMOOTH",
"266 345 LINE",
"245 345 LINE SMOOTH",
"229 345 OFFCURVE",
"227 332 OFFCURVE",
"227 323 CURVE SMOOTH",
"227 319 OFFCURVE",
"228 314 OFFCURVE",
"230 313 CURVE",
"253 303 OFFCURVE",
"264 296 OFFCURVE",
"277 272 CURVE SMOOTH",
"386 76 LINE SMOOTH",
"416 21 OFFCURVE",
"448 -13 OFFCURVE",
"506 -13 CURVE SMOOTH"
);
},
{
closed = 1;
nodes = (
"315 -227 LINE SMOOTH",
"357 -181 OFFCURVE",
"390 -144 OFFCURVE",
"390 -106 CURVE SMOOTH",
"390 -62 OFFCURVE",
"363 -46 OFFCURVE",
"330 -46 CURVE SMOOTH",
"314 -46 OFFCURVE",
"296 -50 OFFCURVE",
"280 -56 CURVE SMOOTH",
"264 -63 LINE",
"268 -84 LINE",
"286 -95 LINE",
"300 -105 OFFCURVE",
"306 -115 OFFCURVE",
"306 -129 CURVE SMOOTH",
"306 -139 OFFCURVE",
"302 -150 OFFCURVE",
"295 -166 CURVE",
"254 -247 LINE",
"280 -265 LINE"
);
},
{
closed = 1;
nodes = (
"270 0 LINE",
"278 29 LINE",
"260 34 LINE SMOOTH",
"217 47 OFFCURVE",
"205 61 OFFCURVE",
"205 114 CURVE SMOOTH",
"205 469 LINE SMOOTH",
"205 541 OFFCURVE",
"216 580 OFFCURVE",
"246 619 CURVE SMOOTH",
"258 636 LINE",
"246 650 LINE",
"47 650 LINE",
"36 619 LINE",
"58 614 LINE",
"103 602 OFFCURVE",
"115 586 OFFCURVE",
"115 530 CURVE SMOOTH",
"115 120 LINE SMOOTH",
"115 63 OFFCURVE",
"103 50 OFFCURVE",
"58 36 CURVE",
"36 31 LINE",
"47 0 LINE"
);
}
);
width = 605;
}
);
rightKerningGroup = kc0_4;
unicode = 0136;
},
{
glyphname = L;
layers = (
{
layerId = "25D154CF-C470-4D68-A10D-6356F2BE0292";
paths = (
{
closed = 1;
nodes = (
"477 -13 LINE",
"477 143 LINE",
"445 152 LINE",
"440 132 LINE SMOOTH",
"424 68 OFFCURVE",
"405 52 OFFCURVE",
"342 52 CURVE SMOOTH",
"263 52 LINE SMOOTH",
"216 52 OFFCURVE",
"205 63 OFFCURVE",
"205 120 CURVE SMOOTH",
"205 469 LINE SMOOTH",
"205 541 OFFCURVE",
"216 580 OFFCURVE",
"246 619 CURVE SMOOTH",
"258 636 LINE",
"246 650 LINE",
"47 650 LINE",
"36 619 LINE",
"58 614 LINE",
"103 602 OFFCURVE",
"115 586 OFFCURVE",
"115 530 CURVE SMOOTH",
"115 114 LINE SMOOTH",
"115 61 OFFCURVE",
"104 47 OFFCURVE",
"60 34 CURVE SMOOTH",
"40 29 LINE",
"51 0 LINE",
"412 0 LINE SMOOTH",
"432 0 OFFCURVE",
"444 -3 OFFCURVE",
"451 -13 CURVE SMOOTH",
"458 -22 LINE"
);
}
);
width = 497;
}
);
rightKerningGroup = kc0_5;
unicode = 004C;
},
{
glyphname = Lacute;
layers = (
{
layerId = "25D154CF-C470-4D68-A10D-6356F2BE0292";
paths = (
{
closed = 1;
nodes = (
"477 -13 LINE",
"477 143 LINE",
"445 152 LINE",
"440 132 LINE SMOOTH",
"424 68 OFFCURVE",
"405 52 OFFCURVE",
"342 52 CURVE SMOOTH",
"263 52 LINE SMOOTH",
"216 52 OFFCURVE",
"205 63 OFFCURVE",
"205 120 CURVE SMOOTH",
"205 469 LINE SMOOTH",
"205 541 OFFCURVE",
"216 580 OFFCURVE",
"246 619 CURVE SMOOTH",
"258 636 LINE",
"246 650 LINE",
"47 650 LINE",
"36 619 LINE",
"58 614 LINE",
"103 602 OFFCURVE",
"115 586 OFFCURVE",
"115 530 CURVE SMOOTH",
"115 114 LINE SMOOTH",
"115 61 OFFCURVE",
"104 47 OFFCURVE",
"60 34 CURVE SMOOTH",
"40 29 LINE",
"51 0 LINE",
"412 0 LINE SMOOTH",
"432 0 OFFCURVE",
"444 -3 OFFCURVE",
"451 -13 CURVE SMOOTH",
"458 -22 LINE"
);
},
{
closed = 1;
nodes = (
"195 766 LINE SMOOTH",
"232 784 OFFCURVE",
"246 805 OFFCURVE",
"246 832 CURVE SMOOTH",
"246 857 OFFCURVE",
"229 878 OFFCURVE",
"208 889 CURVE",
"66 747 LINE",
"93 716 LINE"
);
}
);
width = 497;
}
);
rightKerningGroup = kc0_5;
unicode = 0139;
},
{
glyphname = Lcaron;
layers = (
{
layerId = "25D154CF-C470-4D68-A10D-6356F2BE0292";
paths = (
{
closed = 1;
nodes = (
"477 -13 LINE",
"477 143 LINE",
"445 152 LINE",
"440 132 LINE SMOOTH",
"424 68 OFFCURVE",
"405 52 OFFCURVE",
"342 52 CURVE SMOOTH",
"263 52 LINE SMOOTH",
"216 52 OFFCURVE",
"205 63 OFFCURVE",
"205 120 CURVE SMOOTH",
"205 469 LINE SMOOTH",
"205 541 OFFCURVE",
"216 580 OFFCURVE",
"246 619 CURVE SMOOTH",
"258 636 LINE",
"246 650 LINE",
"47 650 LINE",
"36 619 LINE",
"58 614 LINE",
"103 602 OFFCURVE",
"115 586 OFFCURVE",
"115 530 CURVE SMOOTH",
"115 114 LINE SMOOTH",
"115 61 OFFCURVE",
"104 47 OFFCURVE",
"60 34 CURVE SMOOTH",
"40 29 LINE",
"51 0 LINE",
"412 0 LINE SMOOTH",
"432 0 OFFCURVE",
"444 -3 OFFCURVE",
"451 -13 CURVE SMOOTH",
"458 -22 LINE"
);
},
{
closed = 1;
nodes = (
"359 579 LINE SMOOTH",
"401 625 OFFCURVE",
"434 662 OFFCURVE",
"434 699 CURVE SMOOTH",
"434 744 OFFCURVE",
"407 760 OFFCURVE",
"374 760 CURVE SMOOTH",
"358 760 OFFCURVE",
"340 755 OFFCURVE",
"324 749 CURVE SMOOTH",
"308 743 LINE",
"312 722 LINE",
"329 710 LINE SMOOTH",
"343 700 OFFCURVE",
"349 691 OFFCURVE",
"349 678 CURVE SMOOTH",
"349 667 OFFCURVE",
"346 654 OFFCURVE",
"339 640 CURVE SMOOTH",
"297 558 LINE",
"324 540 LINE"
);
}
);
width = 497;
}
);
rightKerningGroup = kc0_5;
unicode = 013D;
},
{
glyphname = Lcommaaccent;
layers = (
{
layerId = "25D154CF-C470-4D68-A10D-6356F2BE0292";
paths = (
{
closed = 1;
nodes = (
"477 -13 LINE",
"477 143 LINE",
"445 152 LINE",
"440 132 LINE SMOOTH",
"424 68 OFFCURVE",
"405 52 OFFCURVE",
"342 52 CURVE SMOOTH",
"263 52 LINE SMOOTH",
"216 52 OFFCURVE",
"205 63 OFFCURVE",
"205 120 CURVE SMOOTH",
"205 469 LINE SMOOTH",
"205 541 OFFCURVE",
"216 580 OFFCURVE",
"246 619 CURVE SMOOTH",
"258 636 LINE",
"246 650 LINE",
"47 650 LINE",
"36 619 LINE",
"58 614 LINE",
"103 602 OFFCURVE",
"115 586 OFFCURVE",
"115 530 CURVE SMOOTH",
"115 114 LINE SMOOTH",
"115 61 OFFCURVE",
"104 47 OFFCURVE",
"60 34 CURVE SMOOTH",
"40 29 LINE",
"51 0 LINE",
"412 0 LINE SMOOTH",
"432 0 OFFCURVE",
"444 -3 OFFCURVE",
"451 -13 CURVE SMOOTH",
"458 -22 LINE"
);
},
{
closed = 1;
nodes = (
"261 -227 LINE SMOOTH",
"303 -181 OFFCURVE",
"335 -144 OFFCURVE",
"335 -106 CURVE SMOOTH",
"335 -62 OFFCURVE",
"309 -46 OFFCURVE",
"275 -46 CURVE SMOOTH",
"260 -46 OFFCURVE",
"241 -50 OFFCURVE",
"226 -56 CURVE SMOOTH",
"209 -63 LINE",
"213 -84 LINE",
"230 -95 LINE",
"244 -105 OFFCURVE",
"250 -115 OFFCURVE",
"250 -129 CURVE SMOOTH",
"250 -139 OFFCURVE",
"247 -150 OFFCURVE",
"240 -166 CURVE",
"198 -247 LINE",
"226 -265 LINE"
);
}
);
width = 497;
}
);
rightKerningGroup = kc0_5;
unicode = 013B;
},
{
glyphname = Ldot;
layers = (
{
layerId = "25D154CF-C470-4D68-A10D-6356F2BE0292";
paths = (
{
closed = 1;
nodes = (
"477 -13 LINE",
"477 143 LINE",
"445 152 LINE",
"440 132 LINE SMOOTH",
"424 68 OFFCURVE",
"405 52 OFFCURVE",
"342 52 CURVE SMOOTH",
"263 52 LINE SMOOTH",
"216 52 OFFCURVE",
"205 63 OFFCURVE",
"205 120 CURVE SMOOTH",
"205 469 LINE SMOOTH",
"205 541 OFFCURVE",
"216 580 OFFCURVE",
"246 619 CURVE SMOOTH",
"258 636 LINE",
"246 650 LINE",
"47 650 LINE",
"36 619 LINE",
"58 614 LINE",
"103 602 OFFCURVE",
"115 586 OFFCURVE",
"115 530 CURVE SMOOTH",
"115 114 LINE SMOOTH",
"115 61 OFFCURVE",
"104 47 OFFCURVE",
"60 34 CURVE SMOOTH",
"40 29 LINE",
"51 0 LINE",
"412 0 LINE SMOOTH",
"432 0 OFFCURVE",
"444 -3 OFFCURVE",
"451 -13 CURVE SMOOTH",
"458 -22 LINE"
);
},
{
closed = 1;
nodes = (
"385 324 OFFCURVE",
"421 360 OFFCURVE",
"421 383 CURVE SMOOTH",
"421 408 OFFCURVE",
"385 442 OFFCURVE",
"363 442 CURVE SMOOTH",
"342 442 OFFCURVE",
"309 408 OFFCURVE",
"309 383 CURVE SMOOTH",
"309 360 OFFCURVE",
"342 324 OFFCURVE",
"363 324 CURVE SMOOTH"
);
}
);
width = 497;
}
);
rightKerningGroup = kc0_5;
unicode = 013F;
},
{
glyphname = Lslash;
layers = (
{
layerId = "25D154CF-C470-4D68-A10D-6356F2BE0292";
paths = (
{
closed = 1;
nodes = (
"477 -13 LINE",
"477 143 LINE",
"445 152 LINE",
"440 132 LINE SMOOTH",
"424 68 OFFCURVE",
"405 52 OFFCURVE",
"342 52 CURVE SMOOTH",
"263 52 LINE SMOOTH",
"216 52 OFFCURVE",
"205 63 OFFCURVE",
"205 120 CURVE SMOOTH",
"205 312 LINE",
"276 348 LINE SMOOTH",
"295 356 OFFCURVE",
"299 378 OFFCURVE",
"299 430 CURVE",
"205 383 LINE",
"205 469 LINE SMOOTH",
"205 541 OFFCURVE",
"216 580 OFFCURVE",
"246 619 CURVE SMOOTH",
"258 636 LINE",
"246 650 LINE",
"47 650 LINE",
"36 619 LINE",
"58 614 LINE",
"103 602 OFFCURVE",
"115 586 OFFCURVE",
"115 530 CURVE SMOOTH",
"115 338 LINE",
"45 303 LINE SMOOTH",
"27 294 OFFCURVE",
"22 272 OFFCURVE",
"22 222 CURVE",
"115 267 LINE",
"115 114 LINE SMOOTH",
"115 61 OFFCURVE",
"104 47 OFFCURVE",
"60 34 CURVE SMOOTH",
"40 29 LINE",
"51 0 LINE",
"412 0 LINE SMOOTH",
"432 0 OFFCURVE",
"444 -3 OFFCURVE",
"451 -13 CURVE SMOOTH",
"458 -22 LINE"
);
}
);
width = 497;
}
);
rightKerningGroup = kc0_5;
unicode = 0141;
},
{
glyphname = M;
layers = (
{
layerId = "25D154CF-C470-4D68-A10D-6356F2BE0292";
paths = (
{
closed = 1;
nodes = (
"193 0 LINE",
"208 15 LINE",
"196 31 LINE SMOOTH",
"174 63 OFFCURVE",
"164 95 OFFCURVE",
"164 145 CURVE SMOOTH",
"164 156 OFFCURVE",
"167 202 OFFCURVE",
"169 233 CURVE SMOOTH",
"189 514 LINE",
"379 64 LINE",
"428 64 LINE",
"617 514 LINE",
"645 135 LINE",
"645 125 OFFCURVE",
"646 109 OFFCURVE",
"646 101 CURVE SMOOTH",
"646 63 OFFCURVE",
"631 48 OFFCURVE",
"593 36 CURVE",
"572 31 LINE",
"583 0 LINE",
"782 0 LINE",
"794 15 LINE",
"754 55 OFFCURVE",
"736 102 OFFCURVE",
"730 176 CURVE SMOOTH",
"713 425 LINE SMOOTH",
"712 438 OFFCURVE",
"709 494 OFFCURVE",
"709 505 CURVE SMOOTH",
"709 557 OFFCURVE",
"719 587 OFFCURVE",
"742 619 CURVE",
"752 636 LINE",
"738 650 LINE",
"607 650 LINE",
"416 194 LINE",
"229 650 LINE",
"63 650 LINE",
"54 619 LINE",
"76 614 LINE SMOOTH",
"115 604 OFFCURVE",
"128 591 OFFCURVE",
"128 549 CURVE SMOOTH",
"128 534 OFFCURVE",
"125 485 OFFCURVE",
"124 479 CURVE",
"99 120 LINE SMOOTH",
"95 63 OFFCURVE",
"81 50 OFFCURVE",
"34 36 CURVE",
"14 31 LINE",
"23 0 LINE"
);
}
);
width = 834;
}
);
unicode = 004D;
},
{
glyphname = N;
layers = (
{
layerId = "25D154CF-C470-4D68-A10D-6356F2BE0292";
paths = (
{
closed = 1;
nodes = (
"214 0 LINE",
"226 15 LINE",
"214 31 LINE SMOOTH",
"184 70 OFFCURVE",
"174 107 OFFCURVE",
"174 182 CURVE SMOOTH",
"174 513 LINE",
"519 0 LINE",
"610 0 LINE",
"621 15 LINE",
"610 31 LINE SMOOTH",
"602 44 OFFCURVE",
"597 57 OFFCURVE",
"597 80 CURVE SMOOTH",
"597 469 LINE SMOOTH",
"597 541 OFFCURVE",
"607 580 OFFCURVE",
"637 619 CURVE SMOOTH",
"650 636 LINE",
"637 650 LINE",
"467 650 LINE",
"454 619 LINE",
"476 614 LINE SMOOTH",
"521 602 OFFCURVE",
"534 586 OFFCURVE",
"534 530 CURVE SMOOTH",
"534 137 LINE",
"188 650 LINE",
"42 650 LINE",
"31 619 LINE",
"52 614 LINE SMOOTH",
"97 602 OFFCURVE",
"109 586 OFFCURVE",
"109 530 CURVE SMOOTH",
"109 120 LINE SMOOTH",
"109 63 OFFCURVE",
"97 50 OFFCURVE",
"52 36 CURVE",
"31 31 LINE",
"42 0 LINE"
);
}
);
width = 705;
}
);
rightKerningGroup = kc0_3;
unicode = 004E;
},
{
glyphname = Nacute;
layers = (
{
layerId = "25D154CF-C470-4D68-A10D-6356F2BE0292";
paths = (
{
closed = 1;
nodes = (
"214 0 LINE",
"226 15 LINE",
"214 31 LINE SMOOTH",
"184 70 OFFCURVE",
"174 107 OFFCURVE",
"174 182 CURVE SMOOTH",
"174 513 LINE",
"519 0 LINE",
"610 0 LINE",
"621 15 LINE",
"610 31 LINE SMOOTH",
"602 44 OFFCURVE",
"597 57 OFFCURVE",
"597 80 CURVE SMOOTH",
"597 469 LINE SMOOTH",
"597 541 OFFCURVE",
"607 580 OFFCURVE",
"637 619 CURVE SMOOTH",
"650 636 LINE",
"637 650 LINE",
"467 650 LINE",
"454 619 LINE",
"476 614 LINE SMOOTH",
"521 602 OFFCURVE",
"534 586 OFFCURVE",
"534 530 CURVE SMOOTH",
"534 137 LINE",
"188 650 LINE",
"42 650 LINE",
"31 619 LINE",
"52 614 LINE SMOOTH",
"97 602 OFFCURVE",
"109 586 OFFCURVE",
"109 530 CURVE SMOOTH",
"109 120 LINE SMOOTH",
"109 63 OFFCURVE",
"97 50 OFFCURVE",
"52 36 CURVE",
"31 31 LINE",
"42 0 LINE"
);
},
{
closed = 1;
nodes = (
"416 766 LINE SMOOTH",
"453 784 OFFCURVE",
"467 805 OFFCURVE",
"467 832 CURVE SMOOTH",
"467 857 OFFCURVE",
"449 878 OFFCURVE",
"428 889 CURVE",
"287 747 LINE",
"313 716 LINE"
);
}
);
width = 705;
}
);
rightKerningGroup = kc0_3;
unicode = 0143;
},
{
glyphname = Ncaron;
layers = (
{
layerId = "25D154CF-C470-4D68-A10D-6356F2BE0292";
paths = (
{
closed = 1;
nodes = (
"214 0 LINE",
"226 15 LINE",
"214 31 LINE SMOOTH",
"184 70 OFFCURVE",
"174 107 OFFCURVE",
"174 182 CURVE SMOOTH",
"174 513 LINE",
"519 0 LINE",
"610 0 LINE",
"621 15 LINE",
"610 31 LINE SMOOTH",
"602 44 OFFCURVE",
"597 57 OFFCURVE",
"597 80 CURVE SMOOTH",
"597 469 LINE SMOOTH",
"597 541 OFFCURVE",
"607 580 OFFCURVE",
"637 619 CURVE SMOOTH",
"650 636 LINE",
"637 650 LINE",
"467 650 LINE",
"454 619 LINE",
"476 614 LINE SMOOTH",
"521 602 OFFCURVE",
"534 586 OFFCURVE",
"534 530 CURVE SMOOTH",
"534 137 LINE",
"188 650 LINE",
"42 650 LINE",
"31 619 LINE",
"52 614 LINE SMOOTH",
"97 602 OFFCURVE",
"109 586 OFFCURVE",
"109 530 CURVE SMOOTH",
"109 120 LINE SMOOTH",
"109 63 OFFCURVE",
"97 50 OFFCURVE",
"52 36 CURVE",
"31 31 LINE",
"42 0 LINE"
);
},
{
closed = 1;
nodes = (
"364 723 LINE",
"385 735 OFFCURVE",
"438 796 OFFCURVE",
"477 867 CURVE",
"448 893 LINE",
"354 815 LINE",
"259 893 LINE",
"229 867 LINE",
"268 798 OFFCURVE",
"317 737 OFFCURVE",
"341 723 CURVE"
);
}
);
width = 705;
}
);
rightKerningGroup = kc0_3;
unicode = 0147;
},
{
glyphname = Ncommaaccent;
layers = (
{
layerId = "25D154CF-C470-4D68-A10D-6356F2BE0292";
paths = (
{
closed = 1;
nodes = (
"214 0 LINE",
"226 15 LINE",
"214 31 LINE SMOOTH",
"184 70 OFFCURVE",
"174 107 OFFCURVE",
"174 182 CURVE SMOOTH",
"174 513 LINE",
"519 0 LINE",
"610 0 LINE",
"621 15 LINE",
"610 31 LINE SMOOTH",
"602 44 OFFCURVE",
"597 57 OFFCURVE",
"597 80 CURVE SMOOTH",
"597 469 LINE SMOOTH",
"597 541 OFFCURVE",
"607 580 OFFCURVE",
"637 619 CURVE SMOOTH",
"650 636 LINE",
"637 650 LINE",
"467 650 LINE",
"454 619 LINE",
"476 614 LINE SMOOTH",
"521 602 OFFCURVE",
"534 586 OFFCURVE",
"534 530 CURVE SMOOTH",
"534 137 LINE",
"188 650 LINE",
"42 650 LINE",
"31 619 LINE",
"52 614 LINE SMOOTH",
"97 602 OFFCURVE",
"109 586 OFFCURVE",
"109 530 CURVE SMOOTH",
"109 120 LINE SMOOTH",
"109 63 OFFCURVE",
"97 50 OFFCURVE",
"52 36 CURVE",
"31 31 LINE",
"42 0 LINE"
);
},
{
closed = 1;
nodes = (
"346 -227 LINE SMOOTH",
"388 -181 OFFCURVE",
"420 -144 OFFCURVE",
"420 -106 CURVE SMOOTH",
"420 -62 OFFCURVE",
"394 -46 OFFCURVE",
"360 -46 CURVE SMOOTH",
"345 -46 OFFCURVE",
"326 -50 OFFCURVE",
"311 -56 CURVE SMOOTH",
"294 -63 LINE",
"298 -84 LINE",
"315 -95 LINE",
"329 -105 OFFCURVE",
"336 -115 OFFCURVE",
"336 -129 CURVE SMOOTH",
"336 -139 OFFCURVE",
"332 -150 OFFCURVE",
"325 -166 CURVE",
"283 -247 LINE",
"311 -265 LINE"
);
}
);
width = 705;
}
);
rightKerningGroup = kc0_3;
unicode = 0145;
},
{
glyphname = Eng;
layers = (
{
layerId = "25D154CF-C470-4D68-A10D-6356F2BE0292";
paths = (
{
closed = 1;
nodes = (
"545 -253 OFFCURVE",
"597 -169 OFFCURVE",
"597 -48 CURVE SMOOTH",
"597 469 LINE SMOOTH",
"597 541 OFFCURVE",
"607 580 OFFCURVE",
"637 619 CURVE SMOOTH",
"650 636 LINE",
"637 650 LINE",
"467 650 LINE",
"454 619 LINE",
"476 614 LINE SMOOTH",
"521 602 OFFCURVE",
"534 586 OFFCURVE",
"534 530 CURVE SMOOTH",
"534 137 LINE",
"188 650 LINE",
"42 650 LINE",
"31 619 LINE",
"52 614 LINE SMOOTH",
"97 602 OFFCURVE",
"109 586 OFFCURVE",
"109 530 CURVE SMOOTH",
"109 120 LINE SMOOTH",
"109 63 OFFCURVE",
"97 50 OFFCURVE",
"52 36 CURVE",
"31 31 LINE",
"42 0 LINE",
"214 0 LINE",
"226 15 LINE",
"214 31 LINE SMOOTH",
"184 70 OFFCURVE",
"174 107 OFFCURVE",
"174 182 CURVE SMOOTH",
"174 513 LINE",
"516 5 LINE",
"516 -118 LINE SMOOTH",
"516 -184 OFFCURVE",
"485 -213 OFFCURVE",
"451 -213 CURVE SMOOTH",
"424 -213 OFFCURVE",
"401 -190 OFFCURVE",
"401 -152 CURVE SMOOTH",
"401 -109 OFFCURVE",
"427 -95 OFFCURVE",
"427 -88 CURVE SMOOTH",
"427 -81 OFFCURVE",
"422 -78 OFFCURVE",
"409 -78 CURVE SMOOTH",
"357 -78 OFFCURVE",
"320 -113 OFFCURVE",
"320 -160 CURVE SMOOTH",
"320 -218 OFFCURVE",
"369 -253 OFFCURVE",
"434 -253 CURVE SMOOTH"
);
}
);
width = 705;
}
);
rightKerningGroup = kc0_3;
unicode = 014A;
},
{
glyphname = Ntilde;
layers = (
{
layerId = "25D154CF-C470-4D68-A10D-6356F2BE0292";
paths = (
{
closed = 1;
nodes = (
"214 0 LINE",
"226 15 LINE",
"214 31 LINE SMOOTH",
"184 70 OFFCURVE",
"174 107 OFFCURVE",
"174 182 CURVE SMOOTH",
"174 513 LINE",
"519 0 LINE",
"610 0 LINE",
"621 15 LINE",
"610 31 LINE SMOOTH",
"602 44 OFFCURVE",
"597 57 OFFCURVE",
"597 80 CURVE SMOOTH",
"597 469 LINE SMOOTH",
"597 541 OFFCURVE",
"607 580 OFFCURVE",
"637 619 CURVE SMOOTH",
"650 636 LINE",
"637 650 LINE",
"467 650 LINE",
"454 619 LINE",
"476 614 LINE SMOOTH",
"521 602 OFFCURVE",
"534 586 OFFCURVE",
"534 530 CURVE SMOOTH",
"534 137 LINE",
"188 650 LINE",
"42 650 LINE",
"31 619 LINE",
"52 614 LINE SMOOTH",
"97 602 OFFCURVE",
"109 586 OFFCURVE",
"109 530 CURVE SMOOTH",
"109 120 LINE SMOOTH",
"109 63 OFFCURVE",
"97 50 OFFCURVE",
"52 36 CURVE",
"31 31 LINE",
"42 0 LINE"
);
},
{
closed = 1;
nodes = (
"269 761 OFFCURVE",
"291 771 OFFCURVE",
"306 771 CURVE SMOOTH",
"335 771 OFFCURVE",
"350 739 OFFCURVE",
"392 739 CURVE SMOOTH",
"426 739 OFFCURVE",
"470 774 OFFCURVE",
"507 827 CURVE",
"477 856 LINE",
"449 830 OFFCURVE",
"430 819 OFFCURVE",
"414 819 CURVE SMOOTH",
"386 819 OFFCURVE",
"367 852 OFFCURVE",
"329 852 CURVE SMOOTH",
"295 852 OFFCURVE",
"252 817 OFFCURVE",
"213 765 CURVE",
"245 735 LINE"
);
}
);
width = 705;
}
);
rightKerningGroup = kc0_3;
unicode = 00D1;
},
{
glyphname = O;
layers = (
{
layerId = "25D154CF-C470-4D68-A10D-6356F2BE0292";
paths = (
{
closed = 1;
nodes = (
"533 -13 OFFCURVE",
"632 137 OFFCURVE",
"632 324 CURVE SMOOTH",
"632 512 OFFCURVE",
"533 663 OFFCURVE",
"331 663 CURVE SMOOTH",
"129 663 OFFCURVE",
"32 512 OFFCURVE",
"32 324 CURVE SMOOTH",
"32 137 OFFCURVE",
"129 -13 OFFCURVE",
"331 -13 CURVE SMOOTH"
);
},
{
closed = 1;
nodes = (
"196 40 OFFCURVE",
"130 163 OFFCURVE",
"130 316 CURVE SMOOTH",
"130 478 OFFCURVE",
"205 612 OFFCURVE",
"337 612 CURVE SMOOTH",
"490 612 OFFCURVE",
"534 436 OFFCURVE",
"534 321 CURVE SMOOTH",
"534 166 OFFCURVE",
"458 40 OFFCURVE",
"327 40 CURVE SMOOTH"
);
}
);
width = 663;
}
);
leftKerningGroup = kc0_2;
rightKerningGroup = kc0_2;
unicode = 004F;
},
{
glyphname = Oacute;
layers = (
{
layerId = "25D154CF-C470-4D68-A10D-6356F2BE0292";
paths = (
{
closed = 1;
nodes = (
"533 -13 OFFCURVE",
"632 137 OFFCURVE",
"632 324 CURVE SMOOTH",
"632 512 OFFCURVE",
"533 663 OFFCURVE",
"331 663 CURVE SMOOTH",
"129 663 OFFCURVE",
"32 512 OFFCURVE",
"32 324 CURVE SMOOTH",
"32 137 OFFCURVE",
"129 -13 OFFCURVE",
"331 -13 CURVE SMOOTH"
);
},
{
closed = 1;
nodes = (
"196 40 OFFCURVE",
"130 163 OFFCURVE",
"130 316 CURVE SMOOTH",
"130 478 OFFCURVE",
"205 612 OFFCURVE",
"337 612 CURVE SMOOTH",
"490 612 OFFCURVE",
"534 436 OFFCURVE",
"534 321 CURVE SMOOTH",
"534 166 OFFCURVE",
"458 40 OFFCURVE",
"327 40 CURVE SMOOTH"
);
},
{
closed = 1;
nodes = (
"371 767 LINE SMOOTH",
"407 784 OFFCURVE",
"421 806 OFFCURVE",
"421 831 CURVE SMOOTH",
"421 858 OFFCURVE",
"406 878 OFFCURVE",
"383 890 CURVE",
"242 747 LINE",
"268 717 LINE"
);
}
);
width = 663;
}
);
leftKerningGroup = kc0_2;
rightKerningGroup = kc0_2;
unicode = 00D3;
},
{
glyphname = Obreve;
layers = (
{
layerId = "25D154CF-C470-4D68-A10D-6356F2BE0292";
paths = (
{
closed = 1;
nodes = (
"533 -13 OFFCURVE",
"632 137 OFFCURVE",
"632 324 CURVE SMOOTH",
"632 512 OFFCURVE",
"533 663 OFFCURVE",
"331 663 CURVE SMOOTH",
"129 663 OFFCURVE",
"32 512 OFFCURVE",
"32 324 CURVE SMOOTH",
"32 137 OFFCURVE",
"129 -13 OFFCURVE",
"331 -13 CURVE SMOOTH"
);
},
{
closed = 1;
nodes = (
"196 40 OFFCURVE",
"130 163 OFFCURVE",
"130 316 CURVE SMOOTH",
"130 478 OFFCURVE",
"205 612 OFFCURVE",
"337 612 CURVE SMOOTH",
"490 612 OFFCURVE",
"534 436 OFFCURVE",
"534 321 CURVE SMOOTH",
"534 166 OFFCURVE",
"458 40 OFFCURVE",
"327 40 CURVE SMOOTH"
);
},
{
closed = 1;
nodes = (
"396 726 OFFCURVE",
"444 767 OFFCURVE",
"444 852 CURVE",
"395 852 LINE",
"395 815 OFFCURVE",
"368 795 OFFCURVE",
"334 795 CURVE SMOOTH",
"298 795 OFFCURVE",
"270 815 OFFCURVE",
"270 852 CURVE",
"219 852 LINE",
"219 767 OFFCURVE",
"269 726 OFFCURVE",
"334 726 CURVE SMOOTH"
);
}
);
width = 663;
}
);
leftKerningGroup = kc0_2;
rightKerningGroup = kc0_2;
unicode = 014E;
},
{
glyphname = Ocircumflex;
layers = (
{
layerId = "25D154CF-C470-4D68-A10D-6356F2BE0292";
paths = (
{
closed = 1;
nodes = (
"533 -13 OFFCURVE",
"632 137 OFFCURVE",
"632 324 CURVE SMOOTH",
"632 512 OFFCURVE",
"533 663 OFFCURVE",
"331 663 CURVE SMOOTH",
"129 663 OFFCURVE",
"32 512 OFFCURVE",
"32 324 CURVE SMOOTH",
"32 137 OFFCURVE",
"129 -13 OFFCURVE",
"331 -13 CURVE SMOOTH"
);
},
{
closed = 1;
nodes = (
"196 40 OFFCURVE",
"130 163 OFFCURVE",
"130 316 CURVE SMOOTH",
"130 478 OFFCURVE",
"205 612 OFFCURVE",
"337 612 CURVE SMOOTH",
"490 612 OFFCURVE",
"534 436 OFFCURVE",
"534 321 CURVE SMOOTH",
"534 166 OFFCURVE",
"458 40 OFFCURVE",
"327 40 CURVE SMOOTH"
);
},
{
closed = 1;
nodes = (
"331 791 LINE",
"427 717 LINE",
"456 741 LINE",
"416 813 OFFCURVE",
"364 872 OFFCURVE",
"344 884 CURVE",
"320 884 LINE",
"297 870 OFFCURVE",
"247 811 OFFCURVE",
"208 741 CURVE",
"238 717 LINE"
);
}
);
width = 663;
}
);
leftKerningGroup = kc0_2;
rightKerningGroup = kc0_2;
unicode = 00D4;
},
{
glyphname = Odieresis;
layers = (
{
layerId = "25D154CF-C470-4D68-A10D-6356F2BE0292";
paths = (
{
closed = 1;
nodes = (
"533 -13 OFFCURVE",
"632 137 OFFCURVE",
"632 324 CURVE SMOOTH",
"632 512 OFFCURVE",
"533 663 OFFCURVE",
"331 663 CURVE SMOOTH",
"129 663 OFFCURVE",
"32 512 OFFCURVE",
"32 324 CURVE SMOOTH",
"32 137 OFFCURVE",
"129 -13 OFFCURVE",
"331 -13 CURVE SMOOTH"
);
},
{
closed = 1;
nodes = (
"196 40 OFFCURVE",
"130 163 OFFCURVE",
"130 316 CURVE SMOOTH",
"130 478 OFFCURVE",
"205 612 OFFCURVE",
"337 612 CURVE SMOOTH",
"490 612 OFFCURVE",
"534 436 OFFCURVE",
"534 321 CURVE SMOOTH",
"534 166 OFFCURVE",
"458 40 OFFCURVE",
"327 40 CURVE SMOOTH"
);
},
{
closed = 1;
nodes = (
"268 737 OFFCURVE",
"304 773 OFFCURVE",
"304 796 CURVE SMOOTH",
"304 819 OFFCURVE",
"268 856 OFFCURVE",
"245 856 CURVE SMOOTH",
"224 856 OFFCURVE",
"190 819 OFFCURVE",
"190 796 CURVE SMOOTH",
"190 773 OFFCURVE",
"225 737 OFFCURVE",
"245 737 CURVE SMOOTH"
);
},
{
closed = 1;
nodes = (
"439 737 OFFCURVE",
"475 773 OFFCURVE",
"475 796 CURVE SMOOTH",
"475 819 OFFCURVE",
"439 856 OFFCURVE",
"417 856 CURVE SMOOTH",
"396 856 OFFCURVE",
"361 819 OFFCURVE",
"361 796 CURVE SMOOTH",
"361 773 OFFCURVE",
"396 737 OFFCURVE",
"417 737 CURVE SMOOTH"
);
}
);
width = 663;
}
);
leftKerningGroup = kc0_2;
rightKerningGroup = kc0_2;
unicode = 00D6;
},
{
glyphname = Ograve;
layers = (
{
layerId = "25D154CF-C470-4D68-A10D-6356F2BE0292";
paths = (
{
closed = 1;
nodes = (
"533 -13 OFFCURVE",
"632 137 OFFCURVE",
"632 324 CURVE SMOOTH",
"632 512 OFFCURVE",
"533 663 OFFCURVE",
"331 663 CURVE SMOOTH",
"129 663 OFFCURVE",
"32 512 OFFCURVE",
"32 324 CURVE SMOOTH",
"32 137 OFFCURVE",
"129 -13 OFFCURVE",
"331 -13 CURVE SMOOTH"
);
},
{
closed = 1;
nodes = (
"196 40 OFFCURVE",
"130 163 OFFCURVE",
"130 316 CURVE SMOOTH",
"130 478 OFFCURVE",
"205 612 OFFCURVE",
"337 612 CURVE SMOOTH",
"490 612 OFFCURVE",
"534 436 OFFCURVE",
"534 321 CURVE SMOOTH",
"534 166 OFFCURVE",
"458 40 OFFCURVE",
"327 40 CURVE SMOOTH"
);
},
{
closed = 1;
nodes = (
"421 747 LINE",
"279 890 LINE",
"256 878 OFFCURVE",
"241 858 OFFCURVE",
"241 831 CURVE SMOOTH",
"241 806 OFFCURVE",
"255 784 OFFCURVE",
"292 767 CURVE SMOOTH",
"395 717 LINE"
);
}
);
width = 663;
}
);
leftKerningGroup = kc0_2;
rightKerningGroup = kc0_2;
unicode = 00D2;
},
{
glyphname = Ohungarumlaut;
layers = (
{
layerId = "25D154CF-C470-4D68-A10D-6356F2BE0292";
paths = (
{
closed = 1;
nodes = (
"533 -13 OFFCURVE",
"632 137 OFFCURVE",
"632 324 CURVE SMOOTH",
"632 512 OFFCURVE",
"533 663 OFFCURVE",
"331 663 CURVE SMOOTH",
"129 663 OFFCURVE",
"32 512 OFFCURVE",
"32 324 CURVE SMOOTH",
"32 137 OFFCURVE",
"129 -13 OFFCURVE",
"331 -13 CURVE SMOOTH"
);
},
{
closed = 1;
nodes = (
"196 40 OFFCURVE",
"130 163 OFFCURVE",
"130 316 CURVE SMOOTH",
"130 478 OFFCURVE",
"205 612 OFFCURVE",
"337 612 CURVE SMOOTH",
"490 612 OFFCURVE",
"534 436 OFFCURVE",
"534 321 CURVE SMOOTH",
"534 166 OFFCURVE",
"458 40 OFFCURVE",
"327 40 CURVE SMOOTH"
);
},
{
closed = 1;
nodes = (
"296 766 LINE SMOOTH",
"331 784 OFFCURVE",
"346 805 OFFCURVE",
"346 832 CURVE SMOOTH",
"346 857 OFFCURVE",
"330 878 OFFCURVE",
"308 889 CURVE",
"167 747 LINE",
"192 716 LINE"
);
},
{
closed = 1;
nodes = (
"483 766 LINE SMOOTH",
"521 784 OFFCURVE",
"534 805 OFFCURVE",
"534 832 CURVE SMOOTH",
"534 857 OFFCURVE",
"518 878 OFFCURVE",
"495 889 CURVE",
"354 747 LINE",
"381 716 LINE"
);
}
);
width = 663;
}
);
leftKerningGroup = kc0_2;
rightKerningGroup = kc0_2;
unicode = 0150;
},
{
glyphname = Omacron;
layers = (
{
layerId = "25D154CF-C470-4D68-A10D-6356F2BE0292";
paths = (
{
closed = 1;
nodes = (
"533 -13 OFFCURVE",
"632 137 OFFCURVE",
"632 324 CURVE SMOOTH",
"632 512 OFFCURVE",
"533 663 OFFCURVE",
"331 663 CURVE SMOOTH",
"129 663 OFFCURVE",
"32 512 OFFCURVE",
"32 324 CURVE SMOOTH",
"32 137 OFFCURVE",
"129 -13 OFFCURVE",
"331 -13 CURVE SMOOTH"
);
},
{
closed = 1;
nodes = (
"196 40 OFFCURVE",
"130 163 OFFCURVE",
"130 316 CURVE SMOOTH",
"130 478 OFFCURVE",
"205 612 OFFCURVE",
"337 612 CURVE SMOOTH",
"490 612 OFFCURVE",
"534 436 OFFCURVE",
"534 321 CURVE SMOOTH",
"534 166 OFFCURVE",
"458 40 OFFCURVE",
"327 40 CURVE SMOOTH"
);
},
{
closed = 1;
nodes = (
"442 760 LINE",
"461 774 OFFCURVE",
"467 807 OFFCURVE",
"467 832 CURVE",
"223 832 LINE",
"205 815 OFFCURVE",
"198 785 OFFCURVE",
"198 760 CURVE"
);
}
);
width = 663;
}
);
leftKerningGroup = kc0_2;
rightKerningGroup = kc0_2;
unicode = 014C;
},
{
glyphname = Oslash;
layers = (
{
layerId = "25D154CF-C470-4D68-A10D-6356F2BE0292";
paths = (
{
closed = 1;
nodes = (
"228 -58 LINE",
"247 -2 LINE",
"272 -8 OFFCURVE",
"300 -13 OFFCURVE",
"331 -13 CURVE SMOOTH",
"533 -13 OFFCURVE",
"632 137 OFFCURVE",
"632 324 CURVE SMOOTH",
"632 460 OFFCURVE",
"580 577 OFFCURVE",
"474 631 CURVE",
"501 708 LINE",
"436 708 LINE",
"416 652 LINE",
"390 658 OFFCURVE",
"361 663 OFFCURVE",
"331 663 CURVE SMOOTH",
"129 663 OFFCURVE",
"32 512 OFFCURVE",
"32 324 CURVE SMOOTH",
"32 188 OFFCURVE",
"83 70 OFFCURVE",
"190 18 CURVE",
"164 -58 LINE"
);
},
{
closed = 1;
nodes = (
"157 130 OFFCURVE",
"130 217 OFFCURVE",
"130 316 CURVE SMOOTH",
"130 478 OFFCURVE",
"205 612 OFFCURVE",
"337 612 CURVE SMOOTH",
"359 612 OFFCURVE",
"379 607 OFFCURVE",
"396 602 CURVE",
"213 81 LINE"
);
},
{
closed = 1;
nodes = (
"305 40 OFFCURVE",
"284 44 OFFCURVE",
"266 51 CURVE",
"451 567 LINE",
"514 507 OFFCURVE",
"534 399 OFFCURVE",
"534 321 CURVE SMOOTH",
"534 166 OFFCURVE",
"458 40 OFFCURVE",
"327 40 CURVE SMOOTH"
);
}
);
width = 663;
}
);
leftKerningGroup = kc0_2;
rightKerningGroup = kc0_2;
unicode = 00D8;
},
{
glyphname = Oslashacute;
layers = (
{
layerId = "25D154CF-C470-4D68-A10D-6356F2BE0292";
paths = (
{
closed = 1;
nodes = (
"228 -58 LINE",
"247 -2 LINE",
"272 -8 OFFCURVE",
"300 -13 OFFCURVE",
"331 -13 CURVE SMOOTH",
"533 -13 OFFCURVE",
"632 137 OFFCURVE",
"632 324 CURVE SMOOTH",
"632 460 OFFCURVE",
"580 577 OFFCURVE",
"474 631 CURVE",
"501 708 LINE",
"436 708 LINE",
"416 652 LINE",
"390 658 OFFCURVE",
"361 663 OFFCURVE",
"331 663 CURVE SMOOTH",
"129 663 OFFCURVE",
"32 512 OFFCURVE",
"32 324 CURVE SMOOTH",
"32 188 OFFCURVE",
"83 70 OFFCURVE",
"190 18 CURVE",
"164 -58 LINE"
);
},
{
closed = 1;
nodes = (
"157 130 OFFCURVE",
"130 217 OFFCURVE",
"130 316 CURVE SMOOTH",
"130 478 OFFCURVE",
"205 612 OFFCURVE",
"337 612 CURVE SMOOTH",
"359 612 OFFCURVE",
"379 607 OFFCURVE",
"396 602 CURVE",
"213 81 LINE"
);
},
{
closed = 1;
nodes = (
"305 40 OFFCURVE",
"284 44 OFFCURVE",
"266 51 CURVE",
"451 567 LINE",
"514 507 OFFCURVE",
"534 399 OFFCURVE",
"534 321 CURVE SMOOTH",
"534 166 OFFCURVE",
"458 40 OFFCURVE",
"327 40 CURVE SMOOTH"
);
},
{
closed = 1;
nodes = (
"371 766 LINE SMOOTH",
"408 784 OFFCURVE",
"422 805 OFFCURVE",
"422 832 CURVE SMOOTH",
"422 857 OFFCURVE",
"405 878 OFFCURVE",
"384 889 CURVE",
"242 747 LINE",
"268 716 LINE"
);
}
);
width = 663;
}
);
leftKerningGroup = kc0_2;
rightKerningGroup = kc0_2;
unicode = 01FE;
},
{
glyphname = Otilde;
layers = (
{
layerId = "25D154CF-C470-4D68-A10D-6356F2BE0292";
paths = (
{
closed = 1;
nodes = (
"533 -13 OFFCURVE",
"632 137 OFFCURVE",
"632 324 CURVE SMOOTH",
"632 512 OFFCURVE",
"533 663 OFFCURVE",
"331 663 CURVE SMOOTH",
"129 663 OFFCURVE",
"32 512 OFFCURVE",
"32 324 CURVE SMOOTH",
"32 137 OFFCURVE",
"129 -13 OFFCURVE",
"331 -13 CURVE SMOOTH"
);
},
{
closed = 1;
nodes = (
"196 40 OFFCURVE",
"130 163 OFFCURVE",
"130 316 CURVE SMOOTH",
"130 478 OFFCURVE",
"205 612 OFFCURVE",
"337 612 CURVE SMOOTH",
"490 612 OFFCURVE",
"534 436 OFFCURVE",
"534 321 CURVE SMOOTH",
"534 166 OFFCURVE",
"458 40 OFFCURVE",
"327 40 CURVE SMOOTH"
);
},
{
closed = 1;
nodes = (
"240 761 OFFCURVE",
"263 771 OFFCURVE",
"277 771 CURVE SMOOTH",
"307 771 OFFCURVE",
"321 739 OFFCURVE",
"363 739 CURVE SMOOTH",
"397 739 OFFCURVE",
"441 774 OFFCURVE",
"479 827 CURVE",
"449 856 LINE",
"422 830 OFFCURVE",
"402 819 OFFCURVE",
"387 819 CURVE SMOOTH",
"358 819 OFFCURVE",
"340 852 OFFCURVE",
"302 852 CURVE SMOOTH",
"268 852 OFFCURVE",
"224 817 OFFCURVE",
"185 765 CURVE",
"217 735 LINE"
);
}
);
width = 663;
}
);
leftKerningGroup = kc0_2;
rightKerningGroup = kc0_2;
unicode = 00D5;
},
{
glyphname = OE;
layers = (
{
layerId = "25D154CF-C470-4D68-A10D-6356F2BE0292";
paths = (
{
closed = 1;
nodes = (
"809 -13 LINE",
"809 143 LINE",
"778 152 LINE",
"771 132 LINE",
"755 68 OFFCURVE",
"738 52 OFFCURVE",
"674 52 CURVE SMOOTH",
"576 52 LINE SMOOTH",
"528 52 OFFCURVE",
"519 63 OFFCURVE",
"519 120 CURVE SMOOTH",
"519 305 LINE",
"595 305 LINE SMOOTH",
"660 305 OFFCURVE",
"683 297 OFFCURVE",
"694 254 CURVE",
"699 231 LINE",
"729 242 LINE",
"729 397 LINE",
"712 407 LINE",
"704 397 LINE",
"682 365 OFFCURVE",
"662 356 OFFCURVE",
"633 356 CURVE SMOOTH",
"519 356 LINE",
"519 530 LINE SMOOTH",
"519 586 OFFCURVE",
"528 600 OFFCURVE",
"576 600 CURVE SMOOTH",
"664 600 LINE SMOOTH",
"729 600 OFFCURVE",
"746 583 OFFCURVE",
"763 519 CURVE SMOOTH",
"768 497 LINE",
"799 508 LINE",
"799 669 LINE",
"784 681 LINE",
"768 669 LINE SMOOTH",
"750 655 OFFCURVE",
"717 650 OFFCURVE",
"665 650 CURVE SMOOTH",
"331 650 LINE SMOOTH",
"129 650 OFFCURVE",
"32 503 OFFCURVE",
"32 324 CURVE SMOOTH",
"32 145 OFFCURVE",
"129 0 OFFCURVE",
"331 0 CURVE SMOOTH",
"746 0 LINE SMOOTH",
"765 0 OFFCURVE",
"777 -3 OFFCURVE",
"784 -13 CURVE SMOOTH",
"791 -22 LINE"
);
},
{
closed = 1;
nodes = (
"209 40 OFFCURVE",
"130 168 OFFCURVE",
"130 324 CURVE SMOOTH",
"130 460 OFFCURVE",
"177 611 OFFCURVE",
"321 611 CURVE SMOOTH",
"361 611 OFFCURVE",
"398 595 OFFCURVE",
"429 573 CURVE",
"429 63 LINE",
"402 49 OFFCURVE",
"373 40 OFFCURVE",
"340 40 CURVE SMOOTH"
);
}
);
width = 866;
}
);
leftKerningGroup = kc0_2;
unicode = 0152;
},
{
glyphname = P;
layers = (
{
layerId = "25D154CF-C470-4D68-A10D-6356F2BE0292";
paths = (
{
closed = 1;
nodes = (
"246 0 LINE",
"258 15 LINE",
"246 31 LINE SMOOTH",
"216 70 OFFCURVE",
"205 106 OFFCURVE",
"205 182 CURVE SMOOTH",
"205 570 LINE SMOOTH",
"205 587 OFFCURVE",
"212 613 OFFCURVE",
"273 613 CURVE SMOOTH",
"375 613 OFFCURVE",
"428 539 OFFCURVE",
"428 444 CURVE SMOOTH",
"428 348 OFFCURVE",
"375 283 OFFCURVE",
"283 283 CURVE SMOOTH",
"256 283 OFFCURVE",
"248 290 OFFCURVE",
"239 290 CURVE SMOOTH",
"229 290 OFFCURVE",
"225 278 OFFCURVE",
"225 268 CURVE SMOOTH",
"225 247 OFFCURVE",
"265 236 OFFCURVE",
"305 236 CURVE SMOOTH",
"454 236 OFFCURVE",
"521 335 OFFCURVE",
"521 448 CURVE SMOOTH",
"521 565 OFFCURVE",
"446 663 OFFCURVE",
"258 663 CURVE SMOOTH",
"173 663 OFFCURVE",
"78 641 OFFCURVE",
"32 623 CURVE",
"43 589 LINE",
"95 589 LINE SMOOTH",
"108 589 OFFCURVE",
"115 584 OFFCURVE",
"115 568 CURVE SMOOTH",
"115 120 LINE SMOOTH",
"115 64 OFFCURVE",
"103 48 OFFCURVE",
"58 36 CURVE SMOOTH",
"36 31 LINE",
"47 0 LINE"
);
}
);
width = 539;
}
);
rightKerningGroup = kc0_6;
unicode = 0050;
},
{
glyphname = Thorn;
layers = (
{
layerId = "25D154CF-C470-4D68-A10D-6356F2BE0292";
paths = (
{
closed = 1;
nodes = (
"270 0 LINE",
"278 29 LINE",
"260 34 LINE SMOOTH",
"217 47 OFFCURVE",
"205 61 OFFCURVE",
"205 114 CURVE SMOOTH",
"205 451 LINE SMOOTH",
"205 470 OFFCURVE",
"213 497 OFFCURVE",
"283 497 CURVE SMOOTH",
"379 497 OFFCURVE",
"428 423 OFFCURVE",
"428 326 CURVE SMOOTH",
"428 229 OFFCURVE",
"375 165 OFFCURVE",
"283 165 CURVE SMOOTH",
"256 165 OFFCURVE",
"248 172 OFFCURVE",
"239 172 CURVE SMOOTH",
"229 172 OFFCURVE",
"225 161 OFFCURVE",
"225 148 CURVE SMOOTH",
"225 128 OFFCURVE",
"265 118 OFFCURVE",
"305 118 CURVE SMOOTH",
"454 118 OFFCURVE",
"521 216 OFFCURVE",
"521 328 CURVE SMOOTH",
"521 448 OFFCURVE",
"433 544 OFFCURVE",
"309 544 CURVE SMOOTH",
"276 544 OFFCURVE",
"242 539 OFFCURVE",
"208 526 CURVE",
"213 563 OFFCURVE",
"225 591 OFFCURVE",
"246 619 CURVE SMOOTH",
"258 636 LINE",
"246 650 LINE",
"47 650 LINE",
"36 619 LINE",
"58 614 LINE",
"103 602 OFFCURVE",
"115 586 OFFCURVE",
"115 530 CURVE SMOOTH",
"115 120 LINE SMOOTH",
"115 63 OFFCURVE",
"103 50 OFFCURVE",
"58 36 CURVE",
"36 31 LINE",
"47 0 LINE"
);
}
);
width = 539;
}
);
unicode = 00DE;
},
{
glyphname = Q;
layers = (
{
layerId = "25D154CF-C470-4D68-A10D-6356F2BE0292";
paths = (
{
closed = 1;
nodes = (
"672 -201 OFFCURVE",
"710 -169 OFFCURVE",
"710 -126 CURVE SMOOTH",
"710 -121 OFFCURVE",
"705 -117 OFFCURVE",
"701 -117 CURVE SMOOTH",
"694 -117 OFFCURVE",
"679 -129 OFFCURVE",
"651 -129 CURVE SMOOTH",
"607 -129 OFFCURVE",
"577 -107 OFFCURVE",
"557 -59 CURVE SMOOTH",
"511 42 LINE",
"588 100 OFFCURVE",
"632 200 OFFCURVE",
"632 324 CURVE SMOOTH",
"632 532 OFFCURVE",
"516 663 OFFCURVE",
"331 663 CURVE SMOOTH",
"147 663 OFFCURVE",
"32 533 OFFCURVE",
"32 324 CURVE SMOOTH",
"32 117 OFFCURVE",
"146 -13 OFFCURVE",
"331 -13 CURVE SMOOTH",
"369 -13 OFFCURVE",
"406 -8 OFFCURVE",
"441 4 CURVE",
"477 -72 LINE SMOOTH",
"516 -159 OFFCURVE",
"563 -201 OFFCURVE",
"625 -201 CURVE SMOOTH"
);
},
{
closed = 1;
nodes = (
"264 40 OFFCURVE",
"222 72 OFFCURVE",
"222 120 CURVE SMOOTH",
"222 155 OFFCURVE",
"246 178 OFFCURVE",
"280 178 CURVE SMOOTH",
"328 178 OFFCURVE",
"379 135 OFFCURVE",
"414 63 CURVE",
"388 48 OFFCURVE",
"359 40 OFFCURVE",
"327 40 CURVE SMOOTH"
);
},
{
closed = 1;
nodes = (
"425 190 OFFCURVE",
"362 229 OFFCURVE",
"296 229 CURVE SMOOTH",
"226 229 OFFCURVE",
"182 192 OFFCURVE",
"182 133 CURVE SMOOTH",
"182 124 OFFCURVE",
"182 119 OFFCURVE",
"184 115 CURVE",
"148 163 OFFCURVE",
"130 233 OFFCURVE",
"130 316 CURVE SMOOTH",
"130 491 OFFCURVE",
"214 612 OFFCURVE",
"337 612 CURVE SMOOTH",
"452 612 OFFCURVE",
"534 491 OFFCURVE",
"534 321 CURVE SMOOTH",
"534 239 OFFCURVE",
"512 166 OFFCURVE",
"473 114 CURVE"
);
}
);
width = 663;
}
);
leftKerningGroup = kc0_2;
rightKerningGroup = kc0_2;
unicode = 0051;
},
{
glyphname = R;
layers = (
{
layerId = "25D154CF-C470-4D68-A10D-6356F2BE0292";
paths = (
{
closed = 1;
nodes = (
"509 -13 OFFCURVE",
"537 0 OFFCURVE",
"563 23 CURVE",
"547 50 LINE",
"534 40 OFFCURVE",
"524 37 OFFCURVE",
"513 37 CURVE SMOOTH",
"497 37 OFFCURVE",
"486 46 OFFCURVE",
"478 64 CURVE SMOOTH",
"394 236 LINE SMOOTH",
"382 259 OFFCURVE",
"370 270 OFFCURVE",
"356 280 CURVE",
"448 302 OFFCURVE",
"503 370 OFFCURVE",
"503 465 CURVE SMOOTH",
"503 590 OFFCURVE",
"405 663 OFFCURVE",
"239 663 CURVE SMOOTH",
"169 663 OFFCURVE",
"72 646 OFFCURVE",
"14 623 CURVE",
"25 589 LINE",
"77 589 LINE SMOOTH",
"92 589 OFFCURVE",
"97 583 OFFCURVE",
"97 568 CURVE SMOOTH",
"97 120 LINE SMOOTH",
"97 64 OFFCURVE",
"84 48 OFFCURVE",
"39 36 CURVE SMOOTH",
"18 31 LINE",
"29 0 LINE",
"228 0 LINE",
"239 15 LINE",
"228 31 LINE SMOOTH",
"196 73 OFFCURVE",
"186 109 OFFCURVE",
"186 182 CURVE SMOOTH",
"186 570 LINE SMOOTH",
"186 598 OFFCURVE",
"211 613 OFFCURVE",
"256 613 CURVE SMOOTH",
"351 613 OFFCURVE",
"409 553 OFFCURVE",
"409 461 CURVE SMOOTH",
"409 374 OFFCURVE",
"354 320 OFFCURVE",
"265 320 CURVE SMOOTH",
"237 320 OFFCURVE",
"229 326 OFFCURVE",
"222 326 CURVE SMOOTH",
"212 326 OFFCURVE",
"207 318 OFFCURVE",
"207 306 CURVE SMOOTH",
"207 296 OFFCURVE",
"213 289 OFFCURVE",
"224 283 CURVE",
"266 269 OFFCURVE",
"274 262 OFFCURVE",
"285 239 CURVE SMOOTH",
"354 94 LINE SMOOTH",
"391 15 OFFCURVE",
"423 -13 OFFCURVE",
"479 -13 CURVE SMOOTH"
);
}
);
width = 579;
}
);
unicode = 0052;
},
{
glyphname = Racute;
layers = (
{
layerId = "25D154CF-C470-4D68-A10D-6356F2BE0292";
paths = (
{
closed = 1;
nodes = (
"509 -13 OFFCURVE",
"537 0 OFFCURVE",
"563 23 CURVE",
"547 50 LINE",
"534 40 OFFCURVE",
"524 37 OFFCURVE",
"513 37 CURVE SMOOTH",
"497 37 OFFCURVE",
"486 46 OFFCURVE",
"478 64 CURVE SMOOTH",
"394 236 LINE SMOOTH",
"382 259 OFFCURVE",
"370 270 OFFCURVE",
"356 280 CURVE",
"448 302 OFFCURVE",
"503 370 OFFCURVE",
"503 465 CURVE SMOOTH",
"503 590 OFFCURVE",
"405 663 OFFCURVE",
"239 663 CURVE SMOOTH",
"169 663 OFFCURVE",
"72 646 OFFCURVE",
"14 623 CURVE",
"25 589 LINE",
"77 589 LINE SMOOTH",
"92 589 OFFCURVE",
"97 583 OFFCURVE",
"97 568 CURVE SMOOTH",
"97 120 LINE SMOOTH",
"97 64 OFFCURVE",
"84 48 OFFCURVE",
"39 36 CURVE SMOOTH",
"18 31 LINE",
"29 0 LINE",
"228 0 LINE",
"239 15 LINE",
"228 31 LINE SMOOTH",
"196 73 OFFCURVE",
"186 109 OFFCURVE",
"186 182 CURVE SMOOTH",
"186 570 LINE SMOOTH",
"186 598 OFFCURVE",
"211 613 OFFCURVE",
"256 613 CURVE SMOOTH",
"351 613 OFFCURVE",
"409 553 OFFCURVE",
"409 461 CURVE SMOOTH",
"409 374 OFFCURVE",
"354 320 OFFCURVE",
"265 320 CURVE SMOOTH",
"237 320 OFFCURVE",
"229 326 OFFCURVE",
"222 326 CURVE SMOOTH",
"212 326 OFFCURVE",
"207 318 OFFCURVE",
"207 306 CURVE SMOOTH",
"207 296 OFFCURVE",
"213 289 OFFCURVE",
"224 283 CURVE",
"266 269 OFFCURVE",
"274 262 OFFCURVE",
"285 239 CURVE SMOOTH",
"354 94 LINE SMOOTH",
"391 15 OFFCURVE",
"423 -13 OFFCURVE",
"479 -13 CURVE SMOOTH"
);
},
{
closed = 1;
nodes = (
"331 766 LINE SMOOTH",
"368 784 OFFCURVE",
"383 805 OFFCURVE",
"383 832 CURVE SMOOTH",
"383 857 OFFCURVE",
"365 878 OFFCURVE",
"344 889 CURVE",
"202 747 LINE",
"229 716 LINE"
);
}
);
width = 579;
}
);
unicode = 0154;
},
{
glyphname = Rcaron;
layers = (
{
layerId = "25D154CF-C470-4D68-A10D-6356F2BE0292";
paths = (
{
closed = 1;
nodes = (
"509 -13 OFFCURVE",
"537 0 OFFCURVE",
"563 23 CURVE",
"547 50 LINE",
"534 40 OFFCURVE",
"524 37 OFFCURVE",
"513 37 CURVE SMOOTH",
"497 37 OFFCURVE",
"486 46 OFFCURVE",
"478 64 CURVE SMOOTH",
"394 236 LINE SMOOTH",
"382 259 OFFCURVE",
"370 270 OFFCURVE",
"356 280 CURVE",
"448 302 OFFCURVE",
"503 370 OFFCURVE",
"503 465 CURVE SMOOTH",
"503 590 OFFCURVE",
"405 663 OFFCURVE",
"239 663 CURVE SMOOTH",
"169 663 OFFCURVE",
"72 646 OFFCURVE",
"14 623 CURVE",
"25 589 LINE",
"77 589 LINE SMOOTH",
"92 589 OFFCURVE",
"97 583 OFFCURVE",
"97 568 CURVE SMOOTH",
"97 120 LINE SMOOTH",
"97 64 OFFCURVE",
"84 48 OFFCURVE",
"39 36 CURVE SMOOTH",
"18 31 LINE",
"29 0 LINE",
"228 0 LINE",
"239 15 LINE",
"228 31 LINE SMOOTH",
"196 73 OFFCURVE",
"186 109 OFFCURVE",
"186 182 CURVE SMOOTH",
"186 570 LINE SMOOTH",
"186 598 OFFCURVE",
"211 613 OFFCURVE",
"256 613 CURVE SMOOTH",
"351 613 OFFCURVE",
"409 553 OFFCURVE",
"409 461 CURVE SMOOTH",
"409 374 OFFCURVE",
"354 320 OFFCURVE",
"265 320 CURVE SMOOTH",
"237 320 OFFCURVE",
"229 326 OFFCURVE",
"222 326 CURVE SMOOTH",
"212 326 OFFCURVE",
"207 318 OFFCURVE",
"207 306 CURVE SMOOTH",
"207 296 OFFCURVE",
"213 289 OFFCURVE",
"224 283 CURVE",
"266 269 OFFCURVE",
"274 262 OFFCURVE",
"285 239 CURVE SMOOTH",
"354 94 LINE SMOOTH",
"391 15 OFFCURVE",
"423 -13 OFFCURVE",
"479 -13 CURVE SMOOTH"
);
},
{
closed = 1;
nodes = (
"264 723 LINE",
"284 735 OFFCURVE",
"337 796 OFFCURVE",
"376 867 CURVE",
"347 893 LINE",
"253 815 LINE",
"158 893 LINE",
"128 867 LINE",
"167 798 OFFCURVE",
"217 737 OFFCURVE",
"240 723 CURVE"
);
}
);
width = 579;
}
);
unicode = 0158;
},
{
glyphname = Rcommaaccent;
layers = (
{
layerId = "25D154CF-C470-4D68-A10D-6356F2BE0292";
paths = (
{
closed = 1;
nodes = (
"509 -13 OFFCURVE",
"537 0 OFFCURVE",
"563 23 CURVE",
"547 50 LINE",
"534 40 OFFCURVE",
"524 37 OFFCURVE",
"513 37 CURVE SMOOTH",
"497 37 OFFCURVE",
"486 46 OFFCURVE",
"478 64 CURVE SMOOTH",
"394 236 LINE SMOOTH",
"382 259 OFFCURVE",
"370 270 OFFCURVE",
"356 280 CURVE",
"448 302 OFFCURVE",
"503 370 OFFCURVE",
"503 465 CURVE SMOOTH",
"503 590 OFFCURVE",
"405 663 OFFCURVE",
"239 663 CURVE SMOOTH",
"169 663 OFFCURVE",
"72 646 OFFCURVE",
"14 623 CURVE",
"25 589 LINE",
"77 589 LINE SMOOTH",
"92 589 OFFCURVE",
"97 583 OFFCURVE",
"97 568 CURVE SMOOTH",
"97 120 LINE SMOOTH",
"97 64 OFFCURVE",
"84 48 OFFCURVE",
"39 36 CURVE SMOOTH",
"18 31 LINE",
"29 0 LINE",
"228 0 LINE",
"239 15 LINE",
"228 31 LINE SMOOTH",
"196 73 OFFCURVE",
"186 109 OFFCURVE",
"186 182 CURVE SMOOTH",
"186 570 LINE SMOOTH",
"186 598 OFFCURVE",
"211 613 OFFCURVE",
"256 613 CURVE SMOOTH",
"351 613 OFFCURVE",
"409 553 OFFCURVE",
"409 461 CURVE SMOOTH",
"409 374 OFFCURVE",
"354 320 OFFCURVE",
"265 320 CURVE SMOOTH",
"237 320 OFFCURVE",
"229 326 OFFCURVE",
"222 326 CURVE SMOOTH",
"212 326 OFFCURVE",
"207 318 OFFCURVE",
"207 306 CURVE SMOOTH",
"207 296 OFFCURVE",
"213 289 OFFCURVE",
"224 283 CURVE",
"266 269 OFFCURVE",
"274 262 OFFCURVE",
"285 239 CURVE SMOOTH",
"354 94 LINE SMOOTH",
"391 15 OFFCURVE",
"423 -13 OFFCURVE",
"479 -13 CURVE SMOOTH"
);
},
{
closed = 1;
nodes = (
"285 -227 LINE SMOOTH",
"327 -181 OFFCURVE",
"358 -144 OFFCURVE",
"358 -106 CURVE SMOOTH",
"358 -62 OFFCURVE",
"332 -46 OFFCURVE",
"299 -46 CURVE SMOOTH",
"283 -46 OFFCURVE",
"265 -50 OFFCURVE",
"249 -56 CURVE SMOOTH",
"232 -63 LINE",
"237 -84 LINE",
"255 -95 LINE",
"269 -105 OFFCURVE",
"274 -115 OFFCURVE",
"274 -129 CURVE SMOOTH",
"274 -139 OFFCURVE",
"271 -150 OFFCURVE",
"264 -166 CURVE",
"223 -247 LINE",
"249 -265 LINE"
);
}
);
width = 579;
}
);
unicode = 0156;
},
{
glyphname = S;
layers = (
{
layerId = "25D154CF-C470-4D68-A10D-6356F2BE0292";
paths = (
{
closed = 1;
nodes = (
"400 -13 OFFCURVE",
"473 58 OFFCURVE",
"473 164 CURVE SMOOTH",
"473 389 OFFCURVE",
"142 350 OFFCURVE",
"142 508 CURVE SMOOTH",
"142 562 OFFCURVE",
"178 613 OFFCURVE",
"254 613 CURVE SMOOTH",
"321 613 OFFCURVE",
"368 573 OFFCURVE",
"368 518 CURVE SMOOTH",
"368 468 OFFCURVE",
"341 444 OFFCURVE",
"341 436 CURVE SMOOTH",
"341 429 OFFCURVE",
"346 425 OFFCURVE",
"359 425 CURVE SMOOTH",
"414 425 OFFCURVE",
"456 468 OFFCURVE",
"456 530 CURVE SMOOTH",
"456 609 OFFCURVE",
"372 663 OFFCURVE",
"254 663 CURVE SMOOTH",
"120 663 OFFCURVE",
"55 576 OFFCURVE",
"55 487 CURVE SMOOTH",
"55 266 OFFCURVE",
"381 317 OFFCURVE",
"381 141 CURVE SMOOTH",
"381 76 OFFCURVE",
"333 38 OFFCURVE",
"265 38 CURVE SMOOTH",
"186 38 OFFCURVE",
"134 82 OFFCURVE",
"134 146 CURVE SMOOTH",
"134 196 OFFCURVE",
"163 220 OFFCURVE",
"163 229 CURVE SMOOTH",
"163 233 OFFCURVE",
"158 239 OFFCURVE",
"144 239 CURVE SMOOTH",
"85 239 OFFCURVE",
"40 195 OFFCURVE",
"40 133 CURVE SMOOTH",
"40 47 OFFCURVE",
"133 -13 OFFCURVE",
"265 -13 CURVE SMOOTH"
);
}
);
width = 518;
}
);
rightKerningGroup = kc0_7;
unicode = 0053;
},
{
glyphname = Sacute;
layers = (
{
layerId = "25D154CF-C470-4D68-A10D-6356F2BE0292";
paths = (
{
closed = 1;
nodes = (
"400 -13 OFFCURVE",
"473 58 OFFCURVE",
"473 164 CURVE SMOOTH",
"473 389 OFFCURVE",
"142 350 OFFCURVE",
"142 508 CURVE SMOOTH",
"142 562 OFFCURVE",
"178 613 OFFCURVE",
"254 613 CURVE SMOOTH",
"321 613 OFFCURVE",
"368 573 OFFCURVE",
"368 518 CURVE SMOOTH",
"368 468 OFFCURVE",
"341 444 OFFCURVE",
"341 436 CURVE SMOOTH",
"341 429 OFFCURVE",
"346 425 OFFCURVE",
"359 425 CURVE SMOOTH",
"414 425 OFFCURVE",
"456 468 OFFCURVE",
"456 530 CURVE SMOOTH",
"456 609 OFFCURVE",
"372 663 OFFCURVE",
"254 663 CURVE SMOOTH",
"120 663 OFFCURVE",
"55 576 OFFCURVE",
"55 487 CURVE SMOOTH",
"55 266 OFFCURVE",
"381 317 OFFCURVE",
"381 141 CURVE SMOOTH",
"381 76 OFFCURVE",
"333 38 OFFCURVE",
"265 38 CURVE SMOOTH",
"186 38 OFFCURVE",
"134 82 OFFCURVE",
"134 146 CURVE SMOOTH",
"134 196 OFFCURVE",
"163 220 OFFCURVE",
"163 229 CURVE SMOOTH",
"163 233 OFFCURVE",
"158 239 OFFCURVE",
"144 239 CURVE SMOOTH",
"85 239 OFFCURVE",
"40 195 OFFCURVE",
"40 133 CURVE SMOOTH",
"40 47 OFFCURVE",
"133 -13 OFFCURVE",
"265 -13 CURVE SMOOTH"
);
},
{
closed = 1;
nodes = (
"320 766 LINE SMOOTH",
"357 784 OFFCURVE",
"371 805 OFFCURVE",
"371 832 CURVE SMOOTH",
"371 857 OFFCURVE",
"354 878 OFFCURVE",
"332 889 CURVE",
"191 747 LINE",
"217 716 LINE"
);
}
);
width = 518;
}
);
rightKerningGroup = kc0_7;
unicode = 015A;
},
{
glyphname = Scaron;
layers = (
{
layerId = "25D154CF-C470-4D68-A10D-6356F2BE0292";
paths = (
{
closed = 1;
nodes = (
"400 -13 OFFCURVE",
"473 58 OFFCURVE",
"473 164 CURVE SMOOTH",
"473 389 OFFCURVE",
"142 350 OFFCURVE",
"142 508 CURVE SMOOTH",
"142 562 OFFCURVE",
"178 613 OFFCURVE",
"254 613 CURVE SMOOTH",
"321 613 OFFCURVE",
"368 573 OFFCURVE",
"368 518 CURVE SMOOTH",
"368 468 OFFCURVE",
"341 444 OFFCURVE",
"341 436 CURVE SMOOTH",
"341 429 OFFCURVE",
"346 425 OFFCURVE",
"359 425 CURVE SMOOTH",
"414 425 OFFCURVE",
"456 468 OFFCURVE",
"456 530 CURVE SMOOTH",
"456 609 OFFCURVE",
"372 663 OFFCURVE",
"254 663 CURVE SMOOTH",
"120 663 OFFCURVE",
"55 576 OFFCURVE",
"55 487 CURVE SMOOTH",
"55 266 OFFCURVE",
"381 317 OFFCURVE",
"381 141 CURVE SMOOTH",
"381 76 OFFCURVE",
"333 38 OFFCURVE",
"265 38 CURVE SMOOTH",
"186 38 OFFCURVE",
"134 82 OFFCURVE",
"134 146 CURVE SMOOTH",
"134 196 OFFCURVE",
"163 220 OFFCURVE",
"163 229 CURVE SMOOTH",
"163 233 OFFCURVE",
"158 239 OFFCURVE",
"144 239 CURVE SMOOTH",
"85 239 OFFCURVE",
"40 195 OFFCURVE",
"40 133 CURVE SMOOTH",
"40 47 OFFCURVE",
"133 -13 OFFCURVE",
"265 -13 CURVE SMOOTH"
);
},
{
closed = 1;
nodes = (
"276 725 LINE",
"297 736 OFFCURVE",
"349 796 OFFCURVE",
"389 867 CURVE",
"359 894 LINE",
"264 816 LINE",
"170 894 LINE",
"141 867 LINE",
"180 798 OFFCURVE",
"229 738 OFFCURVE",
"253 725 CURVE"
);
}
);
width = 518;
}
);
rightKerningGroup = kc0_7;
unicode = 0160;
},
{
glyphname = Scedilla;
layers = (
{
layerId = "25D154CF-C470-4D68-A10D-6356F2BE0292";
paths = (
{
closed = 1;
nodes = (
"319 -267 OFFCURVE",
"372 -220 OFFCURVE",
"372 -162 CURVE SMOOTH",
"372 -93 OFFCURVE",
"323 -60 OFFCURVE",
"271 -60 CURVE SMOOTH",
"259 -60 OFFCURVE",
"248 -61 OFFCURVE",
"236 -63 CURVE",
"275 -13 LINE",
"404 -9 OFFCURVE",
"473 61 OFFCURVE",
"473 164 CURVE SMOOTH",
"473 389 OFFCURVE",
"142 350 OFFCURVE",
"142 508 CURVE SMOOTH",
"142 562 OFFCURVE",
"178 613 OFFCURVE",
"254 613 CURVE SMOOTH",
"321 613 OFFCURVE",
"368 573 OFFCURVE",
"368 518 CURVE SMOOTH",
"368 468 OFFCURVE",
"341 444 OFFCURVE",
"341 436 CURVE SMOOTH",
"341 429 OFFCURVE",
"346 425 OFFCURVE",
"359 425 CURVE SMOOTH",
"414 425 OFFCURVE",
"456 468 OFFCURVE",
"456 530 CURVE SMOOTH",
"456 609 OFFCURVE",
"372 663 OFFCURVE",
"254 663 CURVE SMOOTH",
"120 663 OFFCURVE",
"55 576 OFFCURVE",
"55 487 CURVE SMOOTH",
"55 266 OFFCURVE",
"381 317 OFFCURVE",
"381 141 CURVE SMOOTH",
"381 76 OFFCURVE",
"333 38 OFFCURVE",
"265 38 CURVE SMOOTH",
"186 38 OFFCURVE",
"134 82 OFFCURVE",
"134 146 CURVE SMOOTH",
"134 196 OFFCURVE",
"163 220 OFFCURVE",
"163 229 CURVE SMOOTH",
"163 233 OFFCURVE",
"158 239 OFFCURVE",
"144 239 CURVE SMOOTH",
"85 239 OFFCURVE",
"40 195 OFFCURVE",
"40 133 CURVE SMOOTH",
"40 52 OFFCURVE",
"121 -5 OFFCURVE",
"239 -12 CURVE",
"178 -93 LINE",
"195 -108 LINE",
"214 -98 OFFCURVE",
"230 -94 OFFCURVE",
"244 -94 CURVE SMOOTH",
"286 -94 OFFCURVE",
"306 -127 OFFCURVE",
"306 -161 CURVE SMOOTH",
"306 -194 OFFCURVE",
"285 -229 OFFCURVE",
"248 -229 CURVE SMOOTH",
"229 -229 OFFCURVE",
"211 -216 OFFCURVE",
"211 -193 CURVE SMOOTH",
"211 -167 OFFCURVE",
"225 -162 OFFCURVE",
"225 -153 CURVE SMOOTH",
"225 -148 OFFCURVE",
"219 -145 OFFCURVE",
"208 -145 CURVE SMOOTH",
"178 -145 OFFCURVE",
"150 -165 OFFCURVE",
"150 -197 CURVE SMOOTH",
"150 -243 OFFCURVE",
"199 -267 OFFCURVE",
"249 -267 CURVE SMOOTH"
);
}
);
width = 518;
}
);
rightKerningGroup = kc0_7;
unicode = 015E;
},
{
glyphname = Scircumflex;
layers = (
{
layerId = "25D154CF-C470-4D68-A10D-6356F2BE0292";
paths = (
{
closed = 1;
nodes = (
"400 -13 OFFCURVE",
"473 58 OFFCURVE",
"473 164 CURVE SMOOTH",
"473 389 OFFCURVE",
"142 350 OFFCURVE",
"142 508 CURVE SMOOTH",
"142 562 OFFCURVE",
"178 613 OFFCURVE",
"254 613 CURVE SMOOTH",
"321 613 OFFCURVE",
"368 573 OFFCURVE",
"368 518 CURVE SMOOTH",
"368 468 OFFCURVE",
"341 444 OFFCURVE",
"341 436 CURVE SMOOTH",
"341 429 OFFCURVE",
"346 425 OFFCURVE",
"359 425 CURVE SMOOTH",
"414 425 OFFCURVE",
"456 468 OFFCURVE",
"456 530 CURVE SMOOTH",
"456 609 OFFCURVE",
"372 663 OFFCURVE",
"254 663 CURVE SMOOTH",
"120 663 OFFCURVE",
"55 576 OFFCURVE",
"55 487 CURVE SMOOTH",
"55 266 OFFCURVE",
"381 317 OFFCURVE",
"381 141 CURVE SMOOTH",
"381 76 OFFCURVE",
"333 38 OFFCURVE",
"265 38 CURVE SMOOTH",
"186 38 OFFCURVE",
"134 82 OFFCURVE",
"134 146 CURVE SMOOTH",
"134 196 OFFCURVE",
"163 220 OFFCURVE",
"163 229 CURVE SMOOTH",
"163 233 OFFCURVE",
"158 239 OFFCURVE",
"144 239 CURVE SMOOTH",
"85 239 OFFCURVE",
"40 195 OFFCURVE",
"40 133 CURVE SMOOTH",
"40 47 OFFCURVE",
"133 -13 OFFCURVE",
"265 -13 CURVE SMOOTH"
);
},
{
closed = 1;
nodes = (
"259 791 LINE",
"354 716 LINE",
"383 742 LINE",
"344 812 OFFCURVE",
"291 872 OFFCURVE",
"271 884 CURVE",
"246 884 LINE",
"223 870 OFFCURVE",
"173 810 OFFCURVE",
"134 742 CURVE",
"164 716 LINE"
);
}
);
width = 518;
}
);
rightKerningGroup = kc0_7;
unicode = 015C;
},
{
glyphname = Scommaaccent;
layers = (
{
layerId = "25D154CF-C470-4D68-A10D-6356F2BE0292";
paths = (
{
closed = 1;
nodes = (
"400 -13 OFFCURVE",
"473 58 OFFCURVE",
"473 164 CURVE SMOOTH",
"473 389 OFFCURVE",
"142 350 OFFCURVE",
"142 508 CURVE SMOOTH",
"142 562 OFFCURVE",
"178 613 OFFCURVE",
"254 613 CURVE SMOOTH",
"321 613 OFFCURVE",
"368 573 OFFCURVE",
"368 518 CURVE SMOOTH",
"368 468 OFFCURVE",
"341 444 OFFCURVE",
"341 436 CURVE SMOOTH",
"341 429 OFFCURVE",
"346 425 OFFCURVE",
"359 425 CURVE SMOOTH",
"414 425 OFFCURVE",
"456 468 OFFCURVE",
"456 530 CURVE SMOOTH",
"456 609 OFFCURVE",
"372 663 OFFCURVE",
"254 663 CURVE SMOOTH",
"120 663 OFFCURVE",
"55 576 OFFCURVE",
"55 487 CURVE SMOOTH",
"55 266 OFFCURVE",
"381 317 OFFCURVE",
"381 141 CURVE SMOOTH",
"381 76 OFFCURVE",
"333 38 OFFCURVE",
"265 38 CURVE SMOOTH",
"186 38 OFFCURVE",
"134 82 OFFCURVE",
"134 146 CURVE SMOOTH",
"134 196 OFFCURVE",
"163 220 OFFCURVE",
"163 229 CURVE SMOOTH",
"163 233 OFFCURVE",
"158 239 OFFCURVE",
"144 239 CURVE SMOOTH",
"85 239 OFFCURVE",
"40 195 OFFCURVE",
"40 133 CURVE SMOOTH",
"40 47 OFFCURVE",
"133 -13 OFFCURVE",
"265 -13 CURVE SMOOTH"
);
},
{
closed = 1;
nodes = (
"254 -227 LINE SMOOTH",
"296 -181 OFFCURVE",
"327 -144 OFFCURVE",
"327 -106 CURVE SMOOTH",
"327 -62 OFFCURVE",
"301 -46 OFFCURVE",
"268 -46 CURVE SMOOTH",
"252 -46 OFFCURVE",
"233 -50 OFFCURVE",
"218 -56 CURVE SMOOTH",
"201 -63 LINE",
"206 -84 LINE",
"224 -95 LINE",
"237 -105 OFFCURVE",
"243 -115 OFFCURVE",
"243 -129 CURVE SMOOTH",
"243 -139 OFFCURVE",
"239 -150 OFFCURVE",
"232 -166 CURVE",
"191 -247 LINE",
"218 -265 LINE"
);
}
);
width = 518;
}
);
rightKerningGroup = kc0_7;
unicode = 0218;
},
{
glyphname = T;
layers = (
{
layerId = "25D154CF-C470-4D68-A10D-6356F2BE0292";
paths = (
{
closed = 1;
nodes = (
"383 0 LINE",
"394 31 LINE",
"372 36 LINE",
"326 50 OFFCURVE",
"313 63 OFFCURVE",
"313 120 CURVE SMOOTH",
"313 530 LINE SMOOTH",
"313 586 OFFCURVE",
"319 600 OFFCURVE",
"345 600 CURVE SMOOTH",
"387 600 LINE SMOOTH",
"450 600 OFFCURVE",
"468 583 OFFCURVE",
"485 519 CURVE SMOOTH",
"490 497 LINE",
"521 508 LINE",
"521 669 LINE",
"506 681 LINE",
"490 669 LINE SMOOTH",
"473 655 OFFCURVE",
"439 650 OFFCURVE",
"388 650 CURVE SMOOTH",
"151 650 LINE SMOOTH",
"100 650 OFFCURVE",
"67 655 OFFCURVE",
"49 669 CURVE SMOOTH",
"33 681 LINE",
"18 669 LINE",
"18 508 LINE",
"49 497 LINE",
"54 519 LINE SMOOTH",
"71 583 OFFCURVE",
"88 600 OFFCURVE",
"152 600 CURVE SMOOTH",
"193 600 LINE SMOOTH",
"220 600 OFFCURVE",
"225 586 OFFCURVE",
"225 530 CURVE SMOOTH",
"225 182 LINE SMOOTH",
"225 107 OFFCURVE",
"214 70 OFFCURVE",
"184 31 CURVE",
"173 15 LINE",
"184 0 LINE"
);
}
);
width = 539;
}
);
leftKerningGroup = kc0_3;
rightKerningGroup = kc0_8;
unicode = 0054;
},
{
glyphname = Tbar;
layers = (
{
layerId = "25D154CF-C470-4D68-A10D-6356F2BE0292";
paths = (
{
closed = 1;
nodes = (
"383 0 LINE",
"394 31 LINE",
"372 36 LINE",
"326 50 OFFCURVE",
"313 63 OFFCURVE",
"313 120 CURVE SMOOTH",
"313 299 LINE",
"467 299 LINE",
"485 312 OFFCURVE",
"491 337 OFFCURVE",
"491 355 CURVE",
"313 355 LINE",
"313 530 LINE SMOOTH",
"313 586 OFFCURVE",
"319 600 OFFCURVE",
"345 600 CURVE SMOOTH",
"387 600 LINE SMOOTH",
"450 600 OFFCURVE",
"468 583 OFFCURVE",
"485 519 CURVE SMOOTH",
"490 497 LINE",
"521 508 LINE",
"521 669 LINE",
"506 681 LINE",
"490 669 LINE SMOOTH",
"473 655 OFFCURVE",
"439 650 OFFCURVE",
"388 650 CURVE SMOOTH",
"151 650 LINE SMOOTH",
"100 650 OFFCURVE",
"67 655 OFFCURVE",
"49 669 CURVE SMOOTH",
"33 681 LINE",
"18 669 LINE",
"18 508 LINE",
"49 497 LINE",
"54 519 LINE SMOOTH",
"71 583 OFFCURVE",
"88 600 OFFCURVE",
"152 600 CURVE SMOOTH",
"193 600 LINE SMOOTH",
"220 600 OFFCURVE",
"225 586 OFFCURVE",
"225 530 CURVE SMOOTH",
"225 355 LINE",
"70 355 LINE",
"51 344 OFFCURVE",
"46 317 OFFCURVE",
"46 299 CURVE",
"225 299 LINE",
"225 182 LINE SMOOTH",
"225 107 OFFCURVE",
"214 70 OFFCURVE",
"184 31 CURVE",
"173 15 LINE",
"184 0 LINE"
);
}
);
width = 539;
}
);
leftKerningGroup = kc0_3;
rightKerningGroup = kc0_8;
unicode = 0166;
},
{
glyphname = Tcaron;
layers = (
{
layerId = "25D154CF-C470-4D68-A10D-6356F2BE0292";
paths = (
{
closed = 1;
nodes = (
"383 0 LINE",
"394 31 LINE",
"372 36 LINE",
"326 50 OFFCURVE",
"313 63 OFFCURVE",
"313 120 CURVE SMOOTH",
"313 530 LINE SMOOTH",
"313 586 OFFCURVE",
"319 600 OFFCURVE",
"345 600 CURVE SMOOTH",
"387 600 LINE SMOOTH",
"450 600 OFFCURVE",
"468 583 OFFCURVE",
"485 519 CURVE SMOOTH",
"490 497 LINE",
"521 508 LINE",
"521 669 LINE",
"506 681 LINE",
"490 669 LINE SMOOTH",
"473 655 OFFCURVE",
"439 650 OFFCURVE",
"388 650 CURVE SMOOTH",
"151 650 LINE SMOOTH",
"100 650 OFFCURVE",
"67 655 OFFCURVE",
"49 669 CURVE SMOOTH",
"33 681 LINE",
"18 669 LINE",
"18 508 LINE",
"49 497 LINE",
"54 519 LINE SMOOTH",
"71 583 OFFCURVE",
"88 600 OFFCURVE",
"152 600 CURVE SMOOTH",
"193 600 LINE SMOOTH",
"220 600 OFFCURVE",
"225 586 OFFCURVE",
"225 530 CURVE SMOOTH",
"225 182 LINE SMOOTH",
"225 107 OFFCURVE",
"214 70 OFFCURVE",
"184 31 CURVE",
"173 15 LINE",
"184 0 LINE"
);
},
{
closed = 1;
nodes = (
"280 723 LINE",
"301 735 OFFCURVE",
"354 796 OFFCURVE",
"393 867 CURVE",
"363 893 LINE",
"270 815 LINE",
"175 893 LINE",
"145 867 LINE",
"184 798 OFFCURVE",
"233 737 OFFCURVE",
"257 723 CURVE"
);
}
);
width = 539;
}
);
leftKerningGroup = kc0_3;
rightKerningGroup = kc0_8;
unicode = 0164;
},
{
glyphname = Tcedilla;
layers = (
{
layerId = "25D154CF-C470-4D68-A10D-6356F2BE0292";
paths = (
{
closed = 1;
nodes = (
"321 -267 OFFCURVE",
"374 -220 OFFCURVE",
"374 -162 CURVE SMOOTH",
"374 -93 OFFCURVE",
"325 -60 OFFCURVE",
"272 -60 CURVE SMOOTH",
"261 -60 OFFCURVE",
"250 -61 OFFCURVE",
"238 -63 CURVE",
"287 0 LINE",
"383 0 LINE",
"394 31 LINE",
"372 36 LINE",
"326 50 OFFCURVE",
"313 63 OFFCURVE",
"313 120 CURVE SMOOTH",
"313 530 LINE SMOOTH",
"313 586 OFFCURVE",
"319 600 OFFCURVE",
"345 600 CURVE SMOOTH",
"387 600 LINE SMOOTH",
"450 600 OFFCURVE",
"468 583 OFFCURVE",
"485 519 CURVE SMOOTH",
"490 497 LINE",
"521 508 LINE",
"521 669 LINE",
"506 681 LINE",
"490 669 LINE SMOOTH",
"473 655 OFFCURVE",
"439 650 OFFCURVE",
"388 650 CURVE SMOOTH",
"151 650 LINE SMOOTH",
"100 650 OFFCURVE",
"67 655 OFFCURVE",
"49 669 CURVE SMOOTH",
"33 681 LINE",
"18 669 LINE",
"18 508 LINE",
"49 497 LINE",
"54 519 LINE SMOOTH",
"71 583 OFFCURVE",
"88 600 OFFCURVE",
"152 600 CURVE SMOOTH",
"193 600 LINE SMOOTH",
"220 600 OFFCURVE",
"225 586 OFFCURVE",
"225 530 CURVE SMOOTH",
"225 182 LINE SMOOTH",
"225 107 OFFCURVE",
"214 70 OFFCURVE",
"184 31 CURVE",
"173 15 LINE",
"184 0 LINE",
"250 0 LINE",
"180 -93 LINE",
"197 -108 LINE",
"216 -98 OFFCURVE",
"232 -94 OFFCURVE",
"246 -94 CURVE SMOOTH",
"288 -94 OFFCURVE",
"308 -127 OFFCURVE",
"308 -161 CURVE SMOOTH",
"308 -194 OFFCURVE",
"287 -229 OFFCURVE",
"250 -229 CURVE SMOOTH",
"231 -229 OFFCURVE",
"213 -216 OFFCURVE",
"213 -193 CURVE SMOOTH",
"213 -167 OFFCURVE",
"227 -162 OFFCURVE",
"227 -153 CURVE SMOOTH",
"227 -148 OFFCURVE",
"221 -145 OFFCURVE",
"210 -145 CURVE SMOOTH",
"180 -145 OFFCURVE",
"152 -165 OFFCURVE",
"152 -197 CURVE SMOOTH",
"152 -243 OFFCURVE",
"201 -267 OFFCURVE",
"251 -267 CURVE SMOOTH"
);
}
);
width = 539;
}
);
leftKerningGroup = kc0_3;
rightKerningGroup = kc0_8;
unicode = 0162;
},
{
glyphname = Tcommaaccent;
layers = (
{
layerId = "25D154CF-C470-4D68-A10D-6356F2BE0292";
paths = (
{
closed = 1;
nodes = (
"383 0 LINE",
"394 31 LINE",
"372 36 LINE",
"326 50 OFFCURVE",
"313 63 OFFCURVE",
"313 120 CURVE SMOOTH",
"313 530 LINE SMOOTH",
"313 586 OFFCURVE",
"319 600 OFFCURVE",
"345 600 CURVE SMOOTH",
"387 600 LINE SMOOTH",
"450 600 OFFCURVE",
"468 583 OFFCURVE",
"485 519 CURVE SMOOTH",
"490 497 LINE",
"521 508 LINE",
"521 669 LINE",
"506 681 LINE",
"490 669 LINE SMOOTH",
"473 655 OFFCURVE",
"439 650 OFFCURVE",
"388 650 CURVE SMOOTH",
"151 650 LINE SMOOTH",
"100 650 OFFCURVE",
"67 655 OFFCURVE",
"49 669 CURVE SMOOTH",
"33 681 LINE",
"18 669 LINE",
"18 508 LINE",
"49 497 LINE",
"54 519 LINE SMOOTH",
"71 583 OFFCURVE",
"88 600 OFFCURVE",
"152 600 CURVE SMOOTH",
"193 600 LINE SMOOTH",
"220 600 OFFCURVE",
"225 586 OFFCURVE",
"225 530 CURVE SMOOTH",
"225 182 LINE SMOOTH",
"225 107 OFFCURVE",
"214 70 OFFCURVE",
"184 31 CURVE",
"173 15 LINE",
"184 0 LINE"
);
},
{
closed = 1;
nodes = (
"263 -227 LINE SMOOTH",
"305 -181 OFFCURVE",
"337 -144 OFFCURVE",
"337 -106 CURVE SMOOTH",
"337 -62 OFFCURVE",
"311 -46 OFFCURVE",
"277 -46 CURVE SMOOTH",
"262 -46 OFFCURVE",
"243 -50 OFFCURVE",
"228 -56 CURVE SMOOTH",
"211 -63 LINE",
"215 -84 LINE",
"232 -95 LINE",
"246 -105 OFFCURVE",
"253 -115 OFFCURVE",
"253 -129 CURVE SMOOTH",
"253 -139 OFFCURVE",
"249 -150 OFFCURVE",
"242 -166 CURVE",
"200 -247 LINE",
"228 -265 LINE"
);
}
);
width = 539;
}
);
leftKerningGroup = kc0_3;
rightKerningGroup = kc0_8;
unicode = 021A;
},
{
glyphname = U;
layers = (
{
layerId = "25D154CF-C470-4D68-A10D-6356F2BE0292";
paths = (
{
closed = 1;
nodes = (
"469 -13 OFFCURVE",
"572 50 OFFCURVE",
"572 198 CURVE SMOOTH",
"572 469 LINE SMOOTH",
"572 541 OFFCURVE",
"583 580 OFFCURVE",
"613 619 CURVE SMOOTH",
"625 636 LINE",
"613 650 LINE",
"441 650 LINE",
"430 619 LINE",
"451 614 LINE SMOOTH",
"497 602 OFFCURVE",
"509 586 OFFCURVE",
"509 530 CURVE SMOOTH",
"509 198 LINE SMOOTH",
"509 101 OFFCURVE",
"438 45 OFFCURVE",
"351 45 CURVE SMOOTH",
"262 45 OFFCURVE",
"190 101 OFFCURVE",
"190 198 CURVE SMOOTH",
"190 469 LINE SMOOTH",
"190 541 OFFCURVE",
"201 580 OFFCURVE",
"230 619 CURVE SMOOTH",
"242 636 LINE",
"230 650 LINE",
"33 650 LINE",
"21 619 LINE",
"43 614 LINE",
"89 602 OFFCURVE",
"101 586 OFFCURVE",
"101 530 CURVE SMOOTH",
"101 198 LINE SMOOTH",
"101 50 OFFCURVE",
"206 -13 OFFCURVE",
"339 -13 CURVE SMOOTH"
);
}
);
width = 669;
}
);
unicode = 0055;
},
{
glyphname = Uacute;
layers = (
{
layerId = "25D154CF-C470-4D68-A10D-6356F2BE0292";
paths = (
{
closed = 1;
nodes = (
"469 -13 OFFCURVE",
"572 50 OFFCURVE",
"572 198 CURVE SMOOTH",
"572 469 LINE SMOOTH",
"572 541 OFFCURVE",
"583 580 OFFCURVE",
"613 619 CURVE SMOOTH",
"625 636 LINE",
"613 650 LINE",
"441 650 LINE",
"430 619 LINE",
"451 614 LINE SMOOTH",
"497 602 OFFCURVE",
"509 586 OFFCURVE",
"509 530 CURVE SMOOTH",
"509 198 LINE SMOOTH",
"509 101 OFFCURVE",
"438 45 OFFCURVE",
"351 45 CURVE SMOOTH",
"262 45 OFFCURVE",
"190 101 OFFCURVE",
"190 198 CURVE SMOOTH",
"190 469 LINE SMOOTH",
"190 541 OFFCURVE",
"201 580 OFFCURVE",
"230 619 CURVE SMOOTH",
"242 636 LINE",
"230 650 LINE",
"33 650 LINE",
"21 619 LINE",
"43 614 LINE",
"89 602 OFFCURVE",
"101 586 OFFCURVE",
"101 530 CURVE SMOOTH",
"101 198 LINE SMOOTH",
"101 50 OFFCURVE",
"206 -13 OFFCURVE",
"339 -13 CURVE SMOOTH"
);
},
{
closed = 1;
nodes = (
"406 767 LINE SMOOTH",
"442 784 OFFCURVE",
"456 806 OFFCURVE",
"456 831 CURVE SMOOTH",
"456 858 OFFCURVE",
"441 878 OFFCURVE",
"418 890 CURVE",
"277 747 LINE",
"304 717 LINE"
);
}
);
width = 669;
}
);
unicode = 00DA;
},
{
glyphname = Ubreve;
layers = (
{
layerId = "25D154CF-C470-4D68-A10D-6356F2BE0292";
paths = (
{
closed = 1;
nodes = (
"469 -13 OFFCURVE",
"572 50 OFFCURVE",
"572 198 CURVE SMOOTH",
"572 469 LINE SMOOTH",
"572 541 OFFCURVE",
"583 580 OFFCURVE",
"613 619 CURVE SMOOTH",
"625 636 LINE",
"613 650 LINE",
"441 650 LINE",
"430 619 LINE",
"451 614 LINE SMOOTH",
"497 602 OFFCURVE",
"509 586 OFFCURVE",
"509 530 CURVE SMOOTH",
"509 198 LINE SMOOTH",
"509 101 OFFCURVE",
"438 45 OFFCURVE",
"351 45 CURVE SMOOTH",
"262 45 OFFCURVE",
"190 101 OFFCURVE",
"190 198 CURVE SMOOTH",
"190 469 LINE SMOOTH",
"190 541 OFFCURVE",
"201 580 OFFCURVE",
"230 619 CURVE SMOOTH",
"242 636 LINE",
"230 650 LINE",
"33 650 LINE",
"21 619 LINE",
"43 614 LINE",
"89 602 OFFCURVE",
"101 586 OFFCURVE",
"101 530 CURVE SMOOTH",
"101 198 LINE SMOOTH",
"101 50 OFFCURVE",
"206 -13 OFFCURVE",
"339 -13 CURVE SMOOTH"
);
},
{
closed = 1;
nodes = (
"407 726 OFFCURVE",
"456 767 OFFCURVE",
"456 852 CURVE",
"406 852 LINE",
"406 815 OFFCURVE",
"379 795 OFFCURVE",
"345 795 CURVE SMOOTH",
"309 795 OFFCURVE",
"280 815 OFFCURVE",
"280 852 CURVE",
"230 852 LINE",
"230 767 OFFCURVE",
"279 726 OFFCURVE",
"345 726 CURVE SMOOTH"
);
}
);
width = 669;
}
);
unicode = 016C;
},
{
glyphname = Ucircumflex;
layers = (
{
layerId = "25D154CF-C470-4D68-A10D-6356F2BE0292";
paths = (
{
closed = 1;
nodes = (
"469 -13 OFFCURVE",
"572 50 OFFCURVE",
"572 198 CURVE SMOOTH",
"572 469 LINE SMOOTH",
"572 541 OFFCURVE",
"583 580 OFFCURVE",
"613 619 CURVE SMOOTH",
"625 636 LINE",
"613 650 LINE",
"441 650 LINE",
"430 619 LINE",
"451 614 LINE SMOOTH",
"497 602 OFFCURVE",
"509 586 OFFCURVE",
"509 530 CURVE SMOOTH",
"509 198 LINE SMOOTH",
"509 101 OFFCURVE",
"438 45 OFFCURVE",
"351 45 CURVE SMOOTH",
"262 45 OFFCURVE",
"190 101 OFFCURVE",
"190 198 CURVE SMOOTH",
"190 469 LINE SMOOTH",
"190 541 OFFCURVE",
"201 580 OFFCURVE",
"230 619 CURVE SMOOTH",
"242 636 LINE",
"230 650 LINE",
"33 650 LINE",
"21 619 LINE",
"43 614 LINE",
"89 602 OFFCURVE",
"101 586 OFFCURVE",
"101 530 CURVE SMOOTH",
"101 198 LINE SMOOTH",
"101 50 OFFCURVE",
"206 -13 OFFCURVE",
"339 -13 CURVE SMOOTH"
);
},
{
closed = 1;
nodes = (
"349 791 LINE",
"444 717 LINE",
"474 741 LINE",
"434 813 OFFCURVE",
"382 872 OFFCURVE",
"361 884 CURVE",
"338 884 LINE",
"314 870 OFFCURVE",
"265 811 OFFCURVE",
"226 741 CURVE",
"256 717 LINE"
);
}
);
width = 669;
}
);
unicode = 00DB;
},
{
glyphname = Udieresis;
layers = (
{
layerId = "25D154CF-C470-4D68-A10D-6356F2BE0292";
paths = (
{
closed = 1;
nodes = (
"469 -13 OFFCURVE",
"572 50 OFFCURVE",
"572 198 CURVE SMOOTH",
"572 469 LINE SMOOTH",
"572 541 OFFCURVE",
"583 580 OFFCURVE",
"613 619 CURVE SMOOTH",
"625 636 LINE",
"613 650 LINE",
"441 650 LINE",
"430 619 LINE",
"451 614 LINE SMOOTH",
"497 602 OFFCURVE",
"509 586 OFFCURVE",
"509 530 CURVE SMOOTH",
"509 198 LINE SMOOTH",
"509 101 OFFCURVE",
"438 45 OFFCURVE",
"351 45 CURVE SMOOTH",
"262 45 OFFCURVE",
"190 101 OFFCURVE",
"190 198 CURVE SMOOTH",
"190 469 LINE SMOOTH",
"190 541 OFFCURVE",
"201 580 OFFCURVE",
"230 619 CURVE SMOOTH",
"242 636 LINE",
"230 650 LINE",
"33 650 LINE",
"21 619 LINE",
"43 614 LINE",
"89 602 OFFCURVE",
"101 586 OFFCURVE",
"101 530 CURVE SMOOTH",
"101 198 LINE SMOOTH",
"101 50 OFFCURVE",
"206 -13 OFFCURVE",
"339 -13 CURVE SMOOTH"
);
},
{
closed = 1;
nodes = (
"282 737 OFFCURVE",
"318 773 OFFCURVE",
"318 796 CURVE SMOOTH",
"318 819 OFFCURVE",
"282 856 OFFCURVE",
"260 856 CURVE SMOOTH",
"238 856 OFFCURVE",
"205 819 OFFCURVE",
"205 796 CURVE SMOOTH",
"205 773 OFFCURVE",
"239 737 OFFCURVE",
"260 737 CURVE SMOOTH"
);
},
{
closed = 1;
nodes = (
"454 737 OFFCURVE",
"489 773 OFFCURVE",
"489 796 CURVE SMOOTH",
"489 819 OFFCURVE",
"454 856 OFFCURVE",
"432 856 CURVE SMOOTH",
"410 856 OFFCURVE",
"376 819 OFFCURVE",
"376 796 CURVE SMOOTH",
"376 773 OFFCURVE",
"411 737 OFFCURVE",
"432 737 CURVE SMOOTH"
);
}
);
width = 669;
}
);
unicode = 00DC;
},
{
glyphname = Ugrave;
layers = (
{
layerId = "25D154CF-C470-4D68-A10D-6356F2BE0292";
paths = (
{
closed = 1;
nodes = (
"469 -13 OFFCURVE",
"572 50 OFFCURVE",
"572 198 CURVE SMOOTH",
"572 469 LINE SMOOTH",
"572 541 OFFCURVE",
"583 580 OFFCURVE",
"613 619 CURVE SMOOTH",
"625 636 LINE",
"613 650 LINE",
"441 650 LINE",
"430 619 LINE",
"451 614 LINE SMOOTH",
"497 602 OFFCURVE",
"509 586 OFFCURVE",
"509 530 CURVE SMOOTH",
"509 198 LINE SMOOTH",
"509 101 OFFCURVE",
"438 45 OFFCURVE",
"351 45 CURVE SMOOTH",
"262 45 OFFCURVE",
"190 101 OFFCURVE",
"190 198 CURVE SMOOTH",
"190 469 LINE SMOOTH",
"190 541 OFFCURVE",
"201 580 OFFCURVE",
"230 619 CURVE SMOOTH",
"242 636 LINE",
"230 650 LINE",
"33 650 LINE",
"21 619 LINE",
"43 614 LINE",
"89 602 OFFCURVE",
"101 586 OFFCURVE",
"101 530 CURVE SMOOTH",
"101 198 LINE SMOOTH",
"101 50 OFFCURVE",
"206 -13 OFFCURVE",
"339 -13 CURVE SMOOTH"
);
},
{
closed = 1;
nodes = (
"424 747 LINE",
"282 890 LINE",
"259 878 OFFCURVE",
"244 858 OFFCURVE",
"244 831 CURVE SMOOTH",
"244 806 OFFCURVE",
"258 784 OFFCURVE",
"295 767 CURVE SMOOTH",
"397 717 LINE"
);
}
);
width = 669;
}
);
unicode = 00D9;
},
{
glyphname = Uhungarumlaut;
layers = (
{
layerId = "25D154CF-C470-4D68-A10D-6356F2BE0292";
paths = (
{
closed = 1;
nodes = (
"469 -13 OFFCURVE",
"572 50 OFFCURVE",
"572 198 CURVE SMOOTH",
"572 469 LINE SMOOTH",
"572 541 OFFCURVE",
"583 580 OFFCURVE",
"613 619 CURVE SMOOTH",
"625 636 LINE",
"613 650 LINE",
"441 650 LINE",
"430 619 LINE",
"451 614 LINE SMOOTH",
"497 602 OFFCURVE",
"509 586 OFFCURVE",
"509 530 CURVE SMOOTH",
"509 198 LINE SMOOTH",
"509 101 OFFCURVE",
"438 45 OFFCURVE",
"351 45 CURVE SMOOTH",
"262 45 OFFCURVE",
"190 101 OFFCURVE",
"190 198 CURVE SMOOTH",
"190 469 LINE SMOOTH",
"190 541 OFFCURVE",
"201 580 OFFCURVE",
"230 619 CURVE SMOOTH",
"242 636 LINE",
"230 650 LINE",
"33 650 LINE",
"21 619 LINE",
"43 614 LINE",
"89 602 OFFCURVE",
"101 586 OFFCURVE",
"101 530 CURVE SMOOTH",
"101 198 LINE SMOOTH",
"101 50 OFFCURVE",
"206 -13 OFFCURVE",
"339 -13 CURVE SMOOTH"
);
},
{
closed = 1;
nodes = (
"308 766 LINE SMOOTH",
"343 784 OFFCURVE",
"357 805 OFFCURVE",
"357 832 CURVE SMOOTH",
"357 857 OFFCURVE",
"342 878 OFFCURVE",
"319 889 CURVE",
"179 747 LINE",
"204 716 LINE"
);
},
{
closed = 1;
nodes = (
"494 766 LINE SMOOTH",
"531 784 OFFCURVE",
"546 805 OFFCURVE",
"546 832 CURVE SMOOTH",
"546 857 OFFCURVE",
"529 878 OFFCURVE",
"507 889 CURVE",
"365 747 LINE",
"393 716 LINE"
);
}
);
width = 669;
}
);
unicode = 0170;
},
{
glyphname = Umacron;
layers = (
{
layerId = "25D154CF-C470-4D68-A10D-6356F2BE0292";
paths = (
{
closed = 1;
nodes = (
"469 -13 OFFCURVE",
"572 50 OFFCURVE",
"572 198 CURVE SMOOTH",
"572 469 LINE SMOOTH",
"572 541 OFFCURVE",
"583 580 OFFCURVE",
"613 619 CURVE SMOOTH",
"625 636 LINE",
"613 650 LINE",
"441 650 LINE",
"430 619 LINE",
"451 614 LINE SMOOTH",
"497 602 OFFCURVE",
"509 586 OFFCURVE",
"509 530 CURVE SMOOTH",
"509 198 LINE SMOOTH",
"509 101 OFFCURVE",
"438 45 OFFCURVE",
"351 45 CURVE SMOOTH",
"262 45 OFFCURVE",
"190 101 OFFCURVE",
"190 198 CURVE SMOOTH",
"190 469 LINE SMOOTH",
"190 541 OFFCURVE",
"201 580 OFFCURVE",
"230 619 CURVE SMOOTH",
"242 636 LINE",
"230 650 LINE",
"33 650 LINE",
"21 619 LINE",
"43 614 LINE",
"89 602 OFFCURVE",
"101 586 OFFCURVE",
"101 530 CURVE SMOOTH",
"101 198 LINE SMOOTH",
"101 50 OFFCURVE",
"206 -13 OFFCURVE",
"339 -13 CURVE SMOOTH"
);
},
{
closed = 1;
nodes = (
"463 760 LINE",
"481 774 OFFCURVE",
"487 807 OFFCURVE",
"487 832 CURVE",
"243 832 LINE",
"226 815 OFFCURVE",
"219 785 OFFCURVE",
"219 760 CURVE"
);
}
);
width = 669;
}
);
unicode = 016A;
},
{
glyphname = Uogonek;
layers = (
{
layerId = "25D154CF-C470-4D68-A10D-6356F2BE0292";
paths = (
{
closed = 1;
nodes = (
"392 -253 OFFCURVE",
"442 -223 OFFCURVE",
"492 -160 CURVE",
"462 -133 LINE",
"431 -170 OFFCURVE",
"390 -190 OFFCURVE",
"357 -190 CURVE SMOOTH",
"326 -190 OFFCURVE",
"306 -173 OFFCURVE",
"306 -137 CURVE SMOOTH",
"306 -103 OFFCURVE",
"333 -58 OFFCURVE",
"405 -6 CURVE",
"502 12 OFFCURVE",
"572 75 OFFCURVE",
"572 198 CURVE SMOOTH",
"572 469 LINE SMOOTH",
"572 541 OFFCURVE",
"583 580 OFFCURVE",
"613 619 CURVE SMOOTH",
"625 636 LINE",
"613 650 LINE",
"441 650 LINE",
"430 619 LINE",
"451 614 LINE SMOOTH",
"497 602 OFFCURVE",
"509 586 OFFCURVE",
"509 530 CURVE SMOOTH",
"509 198 LINE SMOOTH",
"509 101 OFFCURVE",
"438 45 OFFCURVE",
"351 45 CURVE SMOOTH",
"262 45 OFFCURVE",
"190 101 OFFCURVE",
"190 198 CURVE SMOOTH",
"190 469 LINE SMOOTH",
"190 541 OFFCURVE",
"201 580 OFFCURVE",
"230 619 CURVE SMOOTH",
"242 636 LINE",
"230 650 LINE",
"33 650 LINE",
"21 619 LINE",
"43 614 LINE",
"89 602 OFFCURVE",
"101 586 OFFCURVE",
"101 530 CURVE SMOOTH",
"101 198 LINE SMOOTH",
"101 53 OFFCURVE",
"200 -10 OFFCURVE",
"329 -13 CURVE",
"264 -63 OFFCURVE",
"231 -104 OFFCURVE",
"231 -157 CURVE SMOOTH",
"231 -218 OFFCURVE",
"274 -253 OFFCURVE",
"332 -253 CURVE SMOOTH"
);
}
);
width = 669;
}
);
unicode = 0172;
},
{
glyphname = Uring;
layers = (
{
layerId = "25D154CF-C470-4D68-A10D-6356F2BE0292";
paths = (
{
closed = 1;
nodes = (
"469 -13 OFFCURVE",
"572 50 OFFCURVE",
"572 198 CURVE SMOOTH",
"572 469 LINE SMOOTH",
"572 541 OFFCURVE",
"583 580 OFFCURVE",
"613 619 CURVE SMOOTH",
"625 636 LINE",
"613 650 LINE",
"441 650 LINE",
"430 619 LINE",
"451 614 LINE SMOOTH",
"497 602 OFFCURVE",
"509 586 OFFCURVE",
"509 530 CURVE SMOOTH",
"509 198 LINE SMOOTH",
"509 101 OFFCURVE",
"438 45 OFFCURVE",
"351 45 CURVE SMOOTH",
"262 45 OFFCURVE",
"190 101 OFFCURVE",
"190 198 CURVE SMOOTH",
"190 469 LINE SMOOTH",
"190 541 OFFCURVE",
"201 580 OFFCURVE",
"230 619 CURVE SMOOTH",
"242 636 LINE",
"230 650 LINE",
"33 650 LINE",
"21 619 LINE",
"43 614 LINE",
"89 602 OFFCURVE",
"101 586 OFFCURVE",
"101 530 CURVE SMOOTH",
"101 198 LINE SMOOTH",
"101 50 OFFCURVE",
"206 -13 OFFCURVE",
"339 -13 CURVE SMOOTH"
);
},
{
closed = 1;
nodes = (
"403 700 OFFCURVE",
"438 742 OFFCURVE",
"438 796 CURVE SMOOTH",
"438 851 OFFCURVE",
"403 894 OFFCURVE",
"335 894 CURVE SMOOTH",
"268 894 OFFCURVE",
"231 851 OFFCURVE",
"231 796 CURVE SMOOTH",
"231 742 OFFCURVE",
"268 700 OFFCURVE",
"335 700 CURVE SMOOTH"
);
},
{
closed = 1;
nodes = (
"310 744 OFFCURVE",
"296 767 OFFCURVE",
"296 796 CURVE SMOOTH",
"296 826 OFFCURVE",
"310 849 OFFCURVE",
"335 849 CURVE SMOOTH",
"360 849 OFFCURVE",
"374 826 OFFCURVE",
"374 796 CURVE SMOOTH",
"374 767 OFFCURVE",
"360 744 OFFCURVE",
"335 744 CURVE SMOOTH"
);
}
);
width = 669;
}
);
unicode = 016E;
},
{
glyphname = Utilde;
layers = (
{
layerId = "25D154CF-C470-4D68-A10D-6356F2BE0292";
paths = (
{
closed = 1;
nodes = (
"469 -13 OFFCURVE",
"572 50 OFFCURVE",
"572 198 CURVE SMOOTH",
"572 469 LINE SMOOTH",
"572 541 OFFCURVE",
"583 580 OFFCURVE",
"613 619 CURVE SMOOTH",
"625 636 LINE",
"613 650 LINE",
"441 650 LINE",
"430 619 LINE",
"451 614 LINE SMOOTH",
"497 602 OFFCURVE",
"509 586 OFFCURVE",
"509 530 CURVE SMOOTH",
"509 198 LINE SMOOTH",
"509 101 OFFCURVE",
"438 45 OFFCURVE",
"351 45 CURVE SMOOTH",
"262 45 OFFCURVE",
"190 101 OFFCURVE",
"190 198 CURVE SMOOTH",
"190 469 LINE SMOOTH",
"190 541 OFFCURVE",
"201 580 OFFCURVE",
"230 619 CURVE SMOOTH",
"242 636 LINE",
"230 650 LINE",
"33 650 LINE",
"21 619 LINE",
"43 614 LINE",
"89 602 OFFCURVE",
"101 586 OFFCURVE",
"101 530 CURVE SMOOTH",
"101 198 LINE SMOOTH",
"101 50 OFFCURVE",
"206 -13 OFFCURVE",
"339 -13 CURVE SMOOTH"
);
},
{
closed = 1;
nodes = (
"264 759 OFFCURVE",
"283 771 OFFCURVE",
"299 771 CURVE SMOOTH",
"327 771 OFFCURVE",
"345 739 OFFCURVE",
"385 739 CURVE SMOOTH",
"419 739 OFFCURVE",
"463 773 OFFCURVE",
"500 827 CURVE",
"469 855 LINE",
"443 830 OFFCURVE",
"423 820 OFFCURVE",
"408 820 CURVE SMOOTH",
"378 820 OFFCURVE",
"361 851 OFFCURVE",
"323 851 CURVE SMOOTH",
"287 851 OFFCURVE",
"244 816 OFFCURVE",
"206 764 CURVE",
"238 735 LINE"
);
}
);
width = 669;
}
);
unicode = 0168;
},
{
glyphname = V;
layers = (
{
layerId = "25D154CF-C470-4D68-A10D-6356F2BE0292";
paths = (
{
closed = 1;
nodes = (
"365 0 LINE",
"540 529 LINE SMOOTH",
"552 563 OFFCURVE",
"567 591 OFFCURVE",
"590 619 CURVE",
"604 636 LINE",
"592 650 LINE",
"420 650 LINE",
"409 619 LINE",
"430 614 LINE SMOOTH",
"457 608 OFFCURVE",
"471 586 OFFCURVE",
"472 553 CURVE SMOOTH",
"472 532 OFFCURVE",
"465 503 OFFCURVE",
"454 470 CURVE SMOOTH",
"326 76 LINE",
"180 530 LINE SMOOTH",
"174 549 OFFCURVE",
"169 563 OFFCURVE",
"169 574 CURVE SMOOTH",
"169 596 OFFCURVE",
"182 608 OFFCURVE",
"211 614 CURVE SMOOTH",
"230 619 LINE",
"221 650 LINE",
"16 650 LINE",
"4 636 LINE",
"43 606 OFFCURVE",
"65 585 OFFCURVE",
"86 525 CURVE SMOOTH",
"263 0 LINE"
);
}
);
width = 618;
}
);
leftKerningGroup = kc0_4;
rightKerningGroup = kc0_9;
unicode = 0056;
},
{
glyphname = W;
layers = (
{
layerId = "25D154CF-C470-4D68-A10D-6356F2BE0292";
paths = (
{
closed = 1;
nodes = (
"365 0 LINE",
"497 395 LINE",
"630 0 LINE",
"733 0 LINE",
"907 529 LINE SMOOTH",
"919 563 OFFCURVE",
"935 591 OFFCURVE",
"958 619 CURVE SMOOTH",
"972 636 LINE",
"960 650 LINE",
"787 650 LINE",
"777 619 LINE",
"797 614 LINE SMOOTH",
"825 608 OFFCURVE",
"838 586 OFFCURVE",
"839 553 CURVE SMOOTH",
"839 532 OFFCURVE",
"832 503 OFFCURVE",
"820 470 CURVE SMOOTH",
"694 76 LINE",
"546 530 LINE SMOOTH",
"540 549 OFFCURVE",
"536 563 OFFCURVE",
"536 574 CURVE SMOOTH",
"536 596 OFFCURVE",
"548 608 OFFCURVE",
"576 614 CURVE SMOOTH",
"598 619 LINE",
"587 650 LINE",
"384 650 LINE",
"371 636 LINE",
"410 606 OFFCURVE",
"434 585 OFFCURVE",
"453 525 CURVE SMOOTH",
"461 497 LINE",
"326 76 LINE",
"180 530 LINE SMOOTH",
"174 549 OFFCURVE",
"169 563 OFFCURVE",
"169 574 CURVE SMOOTH",
"169 596 OFFCURVE",
"182 608 OFFCURVE",
"211 614 CURVE SMOOTH",
"230 619 LINE",
"221 650 LINE",
"16 650 LINE",
"4 636 LINE",
"43 606 OFFCURVE",
"65 585 OFFCURVE",
"86 525 CURVE SMOOTH",
"263 0 LINE"
);
}
);
width = 984;
}
);
leftKerningGroup = kc0_4;
rightKerningGroup = kc0_9;
unicode = 0057;
},
{
glyphname = Wacute;
layers = (
{
layerId = "25D154CF-C470-4D68-A10D-6356F2BE0292";
paths = (
{
closed = 1;
nodes = (
"365 0 LINE",
"497 395 LINE",
"630 0 LINE",
"733 0 LINE",
"907 529 LINE SMOOTH",
"919 563 OFFCURVE",
"935 591 OFFCURVE",
"958 619 CURVE SMOOTH",
"972 636 LINE",
"960 650 LINE",
"787 650 LINE",
"777 619 LINE",
"797 614 LINE SMOOTH",
"825 608 OFFCURVE",
"838 586 OFFCURVE",
"839 553 CURVE SMOOTH",
"839 532 OFFCURVE",
"832 503 OFFCURVE",
"820 470 CURVE SMOOTH",
"694 76 LINE",
"546 530 LINE SMOOTH",
"540 549 OFFCURVE",
"536 563 OFFCURVE",
"536 574 CURVE SMOOTH",
"536 596 OFFCURVE",
"548 608 OFFCURVE",
"576 614 CURVE SMOOTH",
"598 619 LINE",
"587 650 LINE",
"384 650 LINE",
"371 636 LINE",
"410 606 OFFCURVE",
"434 585 OFFCURVE",
"453 525 CURVE SMOOTH",
"461 497 LINE",
"326 76 LINE",
"180 530 LINE SMOOTH",
"174 549 OFFCURVE",
"169 563 OFFCURVE",
"169 574 CURVE SMOOTH",
"169 596 OFFCURVE",
"182 608 OFFCURVE",
"211 614 CURVE SMOOTH",
"230 619 LINE",
"221 650 LINE",
"16 650 LINE",
"4 636 LINE",
"43 606 OFFCURVE",
"65 585 OFFCURVE",
"86 525 CURVE SMOOTH",
"263 0 LINE"
);
},
{
closed = 1;
nodes = (
"550 766 LINE SMOOTH",
"587 784 OFFCURVE",
"601 805 OFFCURVE",
"601 832 CURVE SMOOTH",
"601 857 OFFCURVE",
"584 878 OFFCURVE",
"563 889 CURVE",
"421 747 LINE",
"446 716 LINE"
);
}
);
width = 984;
}
);
leftKerningGroup = kc0_4;
rightKerningGroup = kc0_9;
unicode = 1E82;
},
{
glyphname = Wcircumflex;
layers = (
{
layerId = "25D154CF-C470-4D68-A10D-6356F2BE0292";
paths = (
{
closed = 1;
nodes = (
"365 0 LINE",
"497 395 LINE",
"630 0 LINE",
"733 0 LINE",
"907 529 LINE SMOOTH",
"919 563 OFFCURVE",
"935 591 OFFCURVE",
"958 619 CURVE SMOOTH",
"972 636 LINE",
"960 650 LINE",
"787 650 LINE",
"777 619 LINE",
"797 614 LINE SMOOTH",
"825 608 OFFCURVE",
"838 586 OFFCURVE",
"839 553 CURVE SMOOTH",
"839 532 OFFCURVE",
"832 503 OFFCURVE",
"820 470 CURVE SMOOTH",
"694 76 LINE",
"546 530 LINE SMOOTH",
"540 549 OFFCURVE",
"536 563 OFFCURVE",
"536 574 CURVE SMOOTH",
"536 596 OFFCURVE",
"548 608 OFFCURVE",
"576 614 CURVE SMOOTH",
"598 619 LINE",
"587 650 LINE",
"384 650 LINE",
"371 636 LINE",
"410 606 OFFCURVE",
"434 585 OFFCURVE",
"453 525 CURVE SMOOTH",
"461 497 LINE",
"326 76 LINE",
"180 530 LINE SMOOTH",
"174 549 OFFCURVE",
"169 563 OFFCURVE",
"169 574 CURVE SMOOTH",
"169 596 OFFCURVE",
"182 608 OFFCURVE",
"211 614 CURVE SMOOTH",
"230 619 LINE",
"221 650 LINE",
"16 650 LINE",
"4 636 LINE",
"43 606 OFFCURVE",
"65 585 OFFCURVE",
"86 525 CURVE SMOOTH",
"263 0 LINE"
);
},
{
closed = 1;
nodes = (
"492 791 LINE",
"587 716 LINE",
"616 742 LINE",
"577 812 OFFCURVE",
"524 872 OFFCURVE",
"504 884 CURVE",
"480 884 LINE",
"457 870 OFFCURVE",
"407 810 OFFCURVE",
"368 742 CURVE",
"397 716 LINE"
);
}
);
width = 984;
}
);
leftKerningGroup = kc0_4;
rightKerningGroup = kc0_9;
unicode = 0174;
},
{
glyphname = Wdieresis;
layers = (
{
layerId = "25D154CF-C470-4D68-A10D-6356F2BE0292";
paths = (
{
closed = 1;
nodes = (
"365 0 LINE",
"497 395 LINE",
"630 0 LINE",
"733 0 LINE",
"907 529 LINE SMOOTH",
"919 563 OFFCURVE",
"935 591 OFFCURVE",
"958 619 CURVE SMOOTH",
"972 636 LINE",
"960 650 LINE",
"787 650 LINE",
"777 619 LINE",
"797 614 LINE SMOOTH",
"825 608 OFFCURVE",
"838 586 OFFCURVE",
"839 553 CURVE SMOOTH",
"839 532 OFFCURVE",
"832 503 OFFCURVE",
"820 470 CURVE SMOOTH",
"694 76 LINE",
"546 530 LINE SMOOTH",
"540 549 OFFCURVE",
"536 563 OFFCURVE",
"536 574 CURVE SMOOTH",
"536 596 OFFCURVE",
"548 608 OFFCURVE",
"576 614 CURVE SMOOTH",
"598 619 LINE",
"587 650 LINE",
"384 650 LINE",
"371 636 LINE",
"410 606 OFFCURVE",
"434 585 OFFCURVE",
"453 525 CURVE SMOOTH",
"461 497 LINE",
"326 76 LINE",
"180 530 LINE SMOOTH",
"174 549 OFFCURVE",
"169 563 OFFCURVE",
"169 574 CURVE SMOOTH",
"169 596 OFFCURVE",
"182 608 OFFCURVE",
"211 614 CURVE SMOOTH",
"230 619 LINE",
"221 650 LINE",
"16 650 LINE",
"4 636 LINE",
"43 606 OFFCURVE",
"65 585 OFFCURVE",
"86 525 CURVE SMOOTH",
"263 0 LINE"
);
},
{
closed = 1;
nodes = (
"428 737 OFFCURVE",
"462 772 OFFCURVE",
"462 796 CURVE SMOOTH",
"462 821 OFFCURVE",
"428 856 OFFCURVE",
"406 856 CURVE SMOOTH",
"384 856 OFFCURVE",
"352 821 OFFCURVE",
"352 796 CURVE SMOOTH",
"352 772 OFFCURVE",
"385 737 OFFCURVE",
"406 737 CURVE SMOOTH"
);
},
{
closed = 1;
nodes = (
"600 737 OFFCURVE",
"634 772 OFFCURVE",
"634 796 CURVE SMOOTH",
"634 821 OFFCURVE",
"600 856 OFFCURVE",
"578 856 CURVE SMOOTH",
"556 856 OFFCURVE",
"521 821 OFFCURVE",
"521 796 CURVE SMOOTH",
"521 772 OFFCURVE",
"557 737 OFFCURVE",
"578 737 CURVE SMOOTH"
);
}
);
width = 984;
}
);
leftKerningGroup = kc0_4;
rightKerningGroup = kc0_9;
unicode = 1E84;
},
{
glyphname = Wgrave;
layers = (
{
layerId = "25D154CF-C470-4D68-A10D-6356F2BE0292";
paths = (
{
closed = 1;
nodes = (
"365 0 LINE",
"497 395 LINE",
"630 0 LINE",
"733 0 LINE",
"907 529 LINE SMOOTH",
"919 563 OFFCURVE",
"935 591 OFFCURVE",
"958 619 CURVE SMOOTH",
"972 636 LINE",
"960 650 LINE",
"787 650 LINE",
"777 619 LINE",
"797 614 LINE SMOOTH",
"825 608 OFFCURVE",
"838 586 OFFCURVE",
"839 553 CURVE SMOOTH",
"839 532 OFFCURVE",
"832 503 OFFCURVE",
"820 470 CURVE SMOOTH",
"694 76 LINE",
"546 530 LINE SMOOTH",
"540 549 OFFCURVE",
"536 563 OFFCURVE",
"536 574 CURVE SMOOTH",
"536 596 OFFCURVE",
"548 608 OFFCURVE",
"576 614 CURVE SMOOTH",
"598 619 LINE",
"587 650 LINE",
"384 650 LINE",
"371 636 LINE",
"410 606 OFFCURVE",
"434 585 OFFCURVE",
"453 525 CURVE SMOOTH",
"461 497 LINE",
"326 76 LINE",
"180 530 LINE SMOOTH",
"174 549 OFFCURVE",
"169 563 OFFCURVE",
"169 574 CURVE SMOOTH",
"169 596 OFFCURVE",
"182 608 OFFCURVE",
"211 614 CURVE SMOOTH",
"230 619 LINE",
"221 650 LINE",
"16 650 LINE",
"4 636 LINE",
"43 606 OFFCURVE",
"65 585 OFFCURVE",
"86 525 CURVE SMOOTH",
"263 0 LINE"
);
},
{
closed = 1;
nodes = (
"582 747 LINE",
"440 889 LINE",
"418 878 OFFCURVE",
"402 857 OFFCURVE",
"402 832 CURVE SMOOTH",
"402 805 OFFCURVE",
"416 784 OFFCURVE",
"453 766 CURVE SMOOTH",
"555 716 LINE"
);
}
);
width = 984;
}
);
leftKerningGroup = kc0_4;
rightKerningGroup = kc0_9;
unicode = 1E80;
},
{
glyphname = X;
layers = (
{
layerId = "25D154CF-C470-4D68-A10D-6356F2BE0292";
paths = (
{
closed = 1;
nodes = (
"186 0 LINE",
"205 15 LINE",
"195 31 LINE",
"191 41 OFFCURVE",
"184 57 OFFCURVE",
"184 71 CURVE SMOOTH",
"184 86 OFFCURVE",
"187 97 OFFCURVE",
"204 123 CURVE SMOOTH",
"299 267 LINE",
"397 129 LINE",
"406 115 OFFCURVE",
"418 95 OFFCURVE",
"418 76 CURVE SMOOTH",
"418 58 OFFCURVE",
"409 43 OFFCURVE",
"383 36 CURVE SMOOTH",
"361 31 LINE",
"372 0 LINE",
"587 0 LINE",
"600 15 LINE",
"564 44 OFFCURVE",
"544 70 OFFCURVE",
"521 104 CURVE SMOOTH",
"356 337 LINE",
"517 565 LINE SMOOTH",
"537 597 OFFCURVE",
"560 608 OFFCURVE",
"586 614 CURVE SMOOTH",
"607 619 LINE",
"596 650 LINE",
"430 650 LINE",
"411 636 LINE",
"420 619 LINE SMOOTH",
"425 609 OFFCURVE",
"433 594 OFFCURVE",
"433 579 CURVE SMOOTH",
"433 564 OFFCURVE",
"430 553 OFFCURVE",
"412 527 CURVE SMOOTH",
"320 389 LINE",
"227 521 LINE SMOOTH",
"217 535 OFFCURVE",
"207 557 OFFCURVE",
"207 575 CURVE SMOOTH",
"207 592 OFFCURVE",
"216 608 OFFCURVE",
"241 614 CURVE SMOOTH",
"263 619 LINE",
"253 650 LINE",
"37 650 LINE",
"26 636 LINE",
"58 608 OFFCURVE",
"86 571 OFFCURVE",
"107 539 CURVE SMOOTH",
"263 320 LINE",
"101 85 LINE SMOOTH",
"79 53 OFFCURVE",
"57 43 OFFCURVE",
"30 36 CURVE SMOOTH",
"10 31 LINE",
"20 0 LINE"
);
}
);
width = 615;
}
);
unicode = 0058;
},
{
glyphname = Y;
layers = (
{
layerId = "25D154CF-C470-4D68-A10D-6356F2BE0292";
paths = (
{
closed = 1;
nodes = (
"396 0 LINE",
"406 31 LINE",
"387 36 LINE SMOOTH",
"341 48 OFFCURVE",
"326 64 OFFCURVE",
"326 120 CURVE SMOOTH",
"326 274 LINE",
"468 523 LINE SMOOTH",
"484 555 OFFCURVE",
"508 591 OFFCURVE",
"531 619 CURVE SMOOTH",
"544 636 LINE",
"533 650 LINE",
"360 650 LINE",
"351 619 LINE",
"370 614 LINE SMOOTH",
"390 609 OFFCURVE",
"408 593 OFFCURVE",
"408 566 CURVE SMOOTH",
"408 556 OFFCURVE",
"404 543 OFFCURVE",
"397 529 CURVE SMOOTH",
"296 346 LINE",
"197 518 LINE",
"187 534 OFFCURVE",
"169 563 OFFCURVE",
"169 574 CURVE SMOOTH",
"169 596 OFFCURVE",
"182 608 OFFCURVE",
"211 614 CURVE SMOOTH",
"230 619 LINE",
"221 650 LINE",
"16 650 LINE",
"4 636 LINE",
"43 606 OFFCURVE",
"63 576 OFFCURVE",
"95 521 CURVE SMOOTH",
"240 267 LINE",
"240 182 LINE SMOOTH",
"240 106 OFFCURVE",
"227 70 OFFCURVE",
"197 31 CURVE SMOOTH",
"186 15 LINE",
"197 0 LINE"
);
}
);
width = 566;
}
);
leftKerningGroup = kc0_4;
rightKerningGroup = kc0_9;
unicode = 0059;
},
{
glyphname = Yacute;
layers = (
{
layerId = "25D154CF-C470-4D68-A10D-6356F2BE0292";
paths = (
{
closed = 1;
nodes = (
"396 0 LINE",
"406 31 LINE",
"387 36 LINE SMOOTH",
"341 48 OFFCURVE",
"326 64 OFFCURVE",
"326 120 CURVE SMOOTH",
"326 274 LINE",
"468 523 LINE SMOOTH",
"484 555 OFFCURVE",
"508 591 OFFCURVE",
"531 619 CURVE SMOOTH",
"544 636 LINE",
"533 650 LINE",
"360 650 LINE",
"351 619 LINE",
"370 614 LINE SMOOTH",
"390 609 OFFCURVE",
"408 593 OFFCURVE",
"408 566 CURVE SMOOTH",
"408 556 OFFCURVE",
"404 543 OFFCURVE",
"397 529 CURVE SMOOTH",
"296 346 LINE",
"197 518 LINE",
"187 534 OFFCURVE",
"169 563 OFFCURVE",
"169 574 CURVE SMOOTH",
"169 596 OFFCURVE",
"182 608 OFFCURVE",
"211 614 CURVE SMOOTH",
"230 619 LINE",
"221 650 LINE",
"16 650 LINE",
"4 636 LINE",
"43 606 OFFCURVE",
"63 576 OFFCURVE",
"95 521 CURVE SMOOTH",
"240 267 LINE",
"240 182 LINE SMOOTH",
"240 106 OFFCURVE",
"227 70 OFFCURVE",
"197 31 CURVE SMOOTH",
"186 15 LINE",
"197 0 LINE"
);
},
{
closed = 1;
nodes = (
"365 767 LINE SMOOTH",
"401 784 OFFCURVE",
"416 806 OFFCURVE",
"416 831 CURVE SMOOTH",
"416 858 OFFCURVE",
"400 878 OFFCURVE",
"377 890 CURVE",
"237 747 LINE",
"263 717 LINE"
);
}
);
width = 566;
}
);
leftKerningGroup = kc0_4;
rightKerningGroup = kc0_9;
unicode = 00DD;
},
{
glyphname = Ycircumflex;
layers = (
{
layerId = "25D154CF-C470-4D68-A10D-6356F2BE0292";
paths = (
{
closed = 1;
nodes = (
"396 0 LINE",
"406 31 LINE",
"387 36 LINE SMOOTH",
"341 48 OFFCURVE",
"326 64 OFFCURVE",
"326 120 CURVE SMOOTH",
"326 274 LINE",
"468 523 LINE SMOOTH",
"484 555 OFFCURVE",
"508 591 OFFCURVE",
"531 619 CURVE SMOOTH",
"544 636 LINE",
"533 650 LINE",
"360 650 LINE",
"351 619 LINE",
"370 614 LINE SMOOTH",
"390 609 OFFCURVE",
"408 593 OFFCURVE",
"408 566 CURVE SMOOTH",
"408 556 OFFCURVE",
"404 543 OFFCURVE",
"397 529 CURVE SMOOTH",
"296 346 LINE",
"197 518 LINE",
"187 534 OFFCURVE",
"169 563 OFFCURVE",
"169 574 CURVE SMOOTH",
"169 596 OFFCURVE",
"182 608 OFFCURVE",
"211 614 CURVE SMOOTH",
"230 619 LINE",
"221 650 LINE",
"16 650 LINE",
"4 636 LINE",
"43 606 OFFCURVE",
"63 576 OFFCURVE",
"95 521 CURVE SMOOTH",
"240 267 LINE",
"240 182 LINE SMOOTH",
"240 106 OFFCURVE",
"227 70 OFFCURVE",
"197 31 CURVE SMOOTH",
"186 15 LINE",
"197 0 LINE"
);
},
{
closed = 1;
nodes = (
"296 791 LINE",
"391 716 LINE",
"420 742 LINE",
"381 812 OFFCURVE",
"328 872 OFFCURVE",
"308 884 CURVE",
"283 884 LINE",
"260 870 OFFCURVE",
"211 810 OFFCURVE",
"172 742 CURVE",
"201 716 LINE"
);
}
);
width = 566;
}
);
leftKerningGroup = kc0_4;
rightKerningGroup = kc0_9;
unicode = 0176;
},
{
glyphname = Ydieresis;
layers = (
{
layerId = "25D154CF-C470-4D68-A10D-6356F2BE0292";
paths = (
{
closed = 1;
nodes = (
"396 0 LINE",
"406 31 LINE",
"387 36 LINE SMOOTH",
"341 48 OFFCURVE",
"326 64 OFFCURVE",
"326 120 CURVE SMOOTH",
"326 274 LINE",
"468 523 LINE SMOOTH",
"484 555 OFFCURVE",
"508 591 OFFCURVE",
"531 619 CURVE SMOOTH",
"544 636 LINE",
"533 650 LINE",
"360 650 LINE",
"351 619 LINE",
"370 614 LINE SMOOTH",
"390 609 OFFCURVE",
"408 593 OFFCURVE",
"408 566 CURVE SMOOTH",
"408 556 OFFCURVE",
"404 543 OFFCURVE",
"397 529 CURVE SMOOTH",
"296 346 LINE",
"197 518 LINE",
"187 534 OFFCURVE",
"169 563 OFFCURVE",
"169 574 CURVE SMOOTH",
"169 596 OFFCURVE",
"182 608 OFFCURVE",
"211 614 CURVE SMOOTH",
"230 619 LINE",
"221 650 LINE",
"16 650 LINE",
"4 636 LINE",
"43 606 OFFCURVE",
"63 576 OFFCURVE",
"95 521 CURVE SMOOTH",
"240 267 LINE",
"240 182 LINE SMOOTH",
"240 106 OFFCURVE",
"227 70 OFFCURVE",
"197 31 CURVE SMOOTH",
"186 15 LINE",
"197 0 LINE"
);
},
{
closed = 1;
nodes = (
"244 737 OFFCURVE",
"279 773 OFFCURVE",
"279 796 CURVE SMOOTH",
"279 819 OFFCURVE",
"244 856 OFFCURVE",
"222 856 CURVE SMOOTH",
"200 856 OFFCURVE",
"166 819 OFFCURVE",
"166 796 CURVE SMOOTH",
"166 773 OFFCURVE",
"201 737 OFFCURVE",
"222 737 CURVE SMOOTH"
);
},
{
closed = 1;
nodes = (
"415 737 OFFCURVE",
"451 773 OFFCURVE",
"451 796 CURVE SMOOTH",
"451 819 OFFCURVE",
"415 856 OFFCURVE",
"393 856 CURVE SMOOTH",
"371 856 OFFCURVE",
"338 819 OFFCURVE",
"338 796 CURVE SMOOTH",
"338 773 OFFCURVE",
"372 737 OFFCURVE",
"393 737 CURVE SMOOTH"
);
}
);
width = 566;
}
);
leftKerningGroup = kc0_4;
rightKerningGroup = kc0_9;
unicode = 0178;
},
{
glyphname = Ygrave;
layers = (
{
layerId = "25D154CF-C470-4D68-A10D-6356F2BE0292";
paths = (
{
closed = 1;
nodes = (
"396 0 LINE",
"406 31 LINE",
"387 36 LINE SMOOTH",
"341 48 OFFCURVE",
"326 64 OFFCURVE",
"326 120 CURVE SMOOTH",
"326 274 LINE",
"468 523 LINE SMOOTH",
"484 555 OFFCURVE",
"508 591 OFFCURVE",
"531 619 CURVE SMOOTH",
"544 636 LINE",
"533 650 LINE",
"360 650 LINE",
"351 619 LINE",
"370 614 LINE SMOOTH",
"390 609 OFFCURVE",
"408 593 OFFCURVE",
"408 566 CURVE SMOOTH",
"408 556 OFFCURVE",
"404 543 OFFCURVE",
"397 529 CURVE SMOOTH",
"296 346 LINE",
"197 518 LINE",
"187 534 OFFCURVE",
"169 563 OFFCURVE",
"169 574 CURVE SMOOTH",
"169 596 OFFCURVE",
"182 608 OFFCURVE",
"211 614 CURVE SMOOTH",
"230 619 LINE",
"221 650 LINE",
"16 650 LINE",
"4 636 LINE",
"43 606 OFFCURVE",
"63 576 OFFCURVE",
"95 521 CURVE SMOOTH",
"240 267 LINE",
"240 182 LINE SMOOTH",
"240 106 OFFCURVE",
"227 70 OFFCURVE",
"197 31 CURVE SMOOTH",
"186 15 LINE",
"197 0 LINE"
);
},
{
closed = 1;
nodes = (
"374 747 LINE",
"232 889 LINE",
"210 878 OFFCURVE",
"194 857 OFFCURVE",
"194 832 CURVE SMOOTH",
"194 805 OFFCURVE",
"208 784 OFFCURVE",
"245 766 CURVE SMOOTH",
"347 716 LINE"
);
}
);
width = 566;
}
);
leftKerningGroup = kc0_4;
rightKerningGroup = kc0_9;
unicode = 1EF2;
},
{
glyphname = Z;
layers = (
{
layerId = "25D154CF-C470-4D68-A10D-6356F2BE0292";
paths = (
{
closed = 1;
nodes = (
"498 -13 LINE",
"498 143 LINE",
"468 152 LINE",
"461 132 LINE",
"444 68 OFFCURVE",
"428 52 OFFCURVE",
"362 52 CURVE SMOOTH",
"159 52 LINE",
"517 650 LINE",
"186 650 LINE SMOOTH",
"133 650 OFFCURVE",
"101 655 OFFCURVE",
"82 669 CURVE SMOOTH",
"65 681 LINE",
"52 669 LINE",
"52 508 LINE",
"82 497 LINE",
"88 519 LINE SMOOTH",
"104 583 OFFCURVE",
"122 600 OFFCURVE",
"186 600 CURVE SMOOTH",
"378 600 LINE",
"18 0 LINE",
"436 0 LINE SMOOTH",
"454 0 OFFCURVE",
"467 -3 OFFCURVE",
"473 -13 CURVE",
"480 -22 LINE"
);
}
);
width = 533;
}
);
unicode = 005A;
},
{
glyphname = Zacute;
layers = (
{
layerId = "25D154CF-C470-4D68-A10D-6356F2BE0292";
paths = (
{
closed = 1;
nodes = (
"498 -13 LINE",
"498 143 LINE",
"468 152 LINE",
"461 132 LINE",
"444 68 OFFCURVE",
"428 52 OFFCURVE",
"362 52 CURVE SMOOTH",
"159 52 LINE",
"517 650 LINE",
"186 650 LINE SMOOTH",
"133 650 OFFCURVE",
"101 655 OFFCURVE",
"82 669 CURVE SMOOTH",
"65 681 LINE",
"52 669 LINE",
"52 508 LINE",
"82 497 LINE",
"88 519 LINE SMOOTH",
"104 583 OFFCURVE",
"122 600 OFFCURVE",
"186 600 CURVE SMOOTH",
"378 600 LINE",
"18 0 LINE",
"436 0 LINE SMOOTH",
"454 0 OFFCURVE",
"467 -3 OFFCURVE",
"473 -13 CURVE",
"480 -22 LINE"
);
},
{
closed = 1;
nodes = (
"343 766 LINE SMOOTH",
"380 784 OFFCURVE",
"394 805 OFFCURVE",
"394 832 CURVE SMOOTH",
"394 857 OFFCURVE",
"377 878 OFFCURVE",
"355 889 CURVE",
"214 747 LINE",
"240 716 LINE"
);
}
);
width = 533;
}
);
unicode = 0179;
},
{
glyphname = Zcaron;
layers = (
{
layerId = "25D154CF-C470-4D68-A10D-6356F2BE0292";
paths = (
{
closed = 1;
nodes = (
"498 -13 LINE",
"498 143 LINE",
"468 152 LINE",
"461 132 LINE",
"444 68 OFFCURVE",
"428 52 OFFCURVE",
"362 52 CURVE SMOOTH",
"159 52 LINE",
"517 650 LINE",
"186 650 LINE SMOOTH",
"133 650 OFFCURVE",
"101 655 OFFCURVE",
"82 669 CURVE SMOOTH",
"65 681 LINE",
"52 669 LINE",
"52 508 LINE",
"82 497 LINE",
"88 519 LINE SMOOTH",
"104 583 OFFCURVE",
"122 600 OFFCURVE",
"186 600 CURVE SMOOTH",
"378 600 LINE",
"18 0 LINE",
"436 0 LINE SMOOTH",
"454 0 OFFCURVE",
"467 -3 OFFCURVE",
"473 -13 CURVE",
"480 -22 LINE"
);
},
{
closed = 1;
nodes = (
"296 725 LINE",
"316 736 OFFCURVE",
"368 796 OFFCURVE",
"408 867 CURVE",
"379 894 LINE",
"283 816 LINE",
"190 894 LINE",
"160 867 LINE",
"199 798 OFFCURVE",
"249 738 OFFCURVE",
"272 725 CURVE"
);
}
);
width = 533;
}
);
unicode = 017D;
},
{
glyphname = Zdotaccent;
layers = (
{
layerId = "25D154CF-C470-4D68-A10D-6356F2BE0292";
paths = (
{
closed = 1;
nodes = (
"498 -13 LINE",
"498 143 LINE",
"468 152 LINE",
"461 132 LINE",
"444 68 OFFCURVE",
"428 52 OFFCURVE",
"362 52 CURVE SMOOTH",
"159 52 LINE",
"517 650 LINE",
"186 650 LINE SMOOTH",
"133 650 OFFCURVE",
"101 655 OFFCURVE",
"82 669 CURVE SMOOTH",
"65 681 LINE",
"52 669 LINE",
"52 508 LINE",
"82 497 LINE",
"88 519 LINE SMOOTH",
"104 583 OFFCURVE",
"122 600 OFFCURVE",
"186 600 CURVE SMOOTH",
"378 600 LINE",
"18 0 LINE",
"436 0 LINE SMOOTH",
"454 0 OFFCURVE",
"467 -3 OFFCURVE",
"473 -13 CURVE",
"480 -22 LINE"
);
},
{
closed = 1;
nodes = (
"315 729 OFFCURVE",
"354 769 OFFCURVE",
"354 796 CURVE SMOOTH",
"354 824 OFFCURVE",
"315 865 OFFCURVE",
"290 865 CURVE SMOOTH",
"264 865 OFFCURVE",
"226 824 OFFCURVE",
"226 796 CURVE SMOOTH",
"226 769 OFFCURVE",
"265 729 OFFCURVE",
"290 729 CURVE SMOOTH"
);
}
);
width = 533;
}
);
unicode = 017B;
},
{
glyphname = a;
layers = (
{
layerId = "25D154CF-C470-4D68-A10D-6356F2BE0292";
paths = (
{
closed = 1;
nodes = (
"260 -13 OFFCURVE",
"311 9 OFFCURVE",
"362 83 CURVE",
"362 15 OFFCURVE",
"384 -13 OFFCURVE",
"434 -13 CURVE SMOOTH",
"464 -13 OFFCURVE",
"502 10 OFFCURVE",
"534 45 CURVE",
"517 68 LINE",
"501 57 OFFCURVE",
"485 52 OFFCURVE",
"472 52 CURVE SMOOTH",
"454 52 OFFCURVE",
"443 61 OFFCURVE",
"443 80 CURVE SMOOTH",
"443 375 LINE SMOOTH",
"443 392 OFFCURVE",
"448 399 OFFCURVE",
"455 411 CURVE",
"468 428 LINE",
"456 439 LINE",
"395 443 OFFCURVE",
"331 461 OFFCURVE",
"275 461 CURVE SMOOTH",
"131 461 OFFCURVE",
"40 364 OFFCURVE",
"40 208 CURVE SMOOTH",
"40 61 OFFCURVE",
"119 -13 OFFCURVE",
"204 -13 CURVE SMOOTH"
);
},
{
closed = 1;
nodes = (
"187 58 OFFCURVE",
"136 101 OFFCURVE",
"136 225 CURVE SMOOTH",
"136 344 OFFCURVE",
"187 411 OFFCURVE",
"274 411 CURVE SMOOTH",
"305 411 OFFCURVE",
"335 403 OFFCURVE",
"362 385 CURVE",
"362 140 LINE",
"329 82 OFFCURVE",
"285 58 OFFCURVE",
"239 58 CURVE SMOOTH"
);
}
);
width = 546;
}
);
leftKerningGroup = kc0_5;
unicode = 0061;
},
{
glyphname = aacute;
layers = (
{
layerId = "25D154CF-C470-4D68-A10D-6356F2BE0292";
paths = (
{
closed = 1;
nodes = (
"260 -13 OFFCURVE",
"311 9 OFFCURVE",
"362 83 CURVE",
"362 15 OFFCURVE",
"384 -13 OFFCURVE",
"434 -13 CURVE SMOOTH",
"464 -13 OFFCURVE",
"502 10 OFFCURVE",
"534 45 CURVE",
"517 68 LINE",
"501 57 OFFCURVE",
"485 52 OFFCURVE",
"472 52 CURVE SMOOTH",
"454 52 OFFCURVE",
"443 61 OFFCURVE",
"443 80 CURVE SMOOTH",
"443 375 LINE SMOOTH",
"443 392 OFFCURVE",
"448 399 OFFCURVE",
"455 411 CURVE",
"468 428 LINE",
"456 439 LINE",
"395 443 OFFCURVE",
"331 461 OFFCURVE",
"275 461 CURVE SMOOTH",
"131 461 OFFCURVE",
"40 364 OFFCURVE",
"40 208 CURVE SMOOTH",
"40 61 OFFCURVE",
"119 -13 OFFCURVE",
"204 -13 CURVE SMOOTH"
);
},
{
closed = 1;
nodes = (
"187 58 OFFCURVE",
"136 101 OFFCURVE",
"136 225 CURVE SMOOTH",
"136 344 OFFCURVE",
"187 411 OFFCURVE",
"274 411 CURVE SMOOTH",
"305 411 OFFCURVE",
"335 403 OFFCURVE",
"362 385 CURVE",
"362 140 LINE",
"329 82 OFFCURVE",
"285 58 OFFCURVE",
"239 58 CURVE SMOOTH"
);
},
{
closed = 1;
nodes = (
"313 566 LINE SMOOTH",
"349 584 OFFCURVE",
"362 605 OFFCURVE",
"362 631 CURVE SMOOTH",
"362 658 OFFCURVE",
"348 677 OFFCURVE",
"324 688 CURVE",
"184 547 LINE",
"210 517 LINE"
);
}
);
width = 546;
}
);
leftKerningGroup = kc0_5;
unicode = 00E1;
},
{
glyphname = abreve;
layers = (
{
layerId = "25D154CF-C470-4D68-A10D-6356F2BE0292";
paths = (
{
closed = 1;
nodes = (
"260 -13 OFFCURVE",
"311 9 OFFCURVE",
"362 83 CURVE",
"362 15 OFFCURVE",
"384 -13 OFFCURVE",
"434 -13 CURVE SMOOTH",
"464 -13 OFFCURVE",
"502 10 OFFCURVE",
"534 45 CURVE",
"517 68 LINE",
"501 57 OFFCURVE",
"485 52 OFFCURVE",
"472 52 CURVE SMOOTH",
"454 52 OFFCURVE",
"443 61 OFFCURVE",
"443 80 CURVE SMOOTH",
"443 375 LINE SMOOTH",
"443 392 OFFCURVE",
"448 399 OFFCURVE",
"455 411 CURVE",
"468 428 LINE",
"456 439 LINE",
"395 443 OFFCURVE",
"331 461 OFFCURVE",
"275 461 CURVE SMOOTH",
"131 461 OFFCURVE",
"40 364 OFFCURVE",
"40 208 CURVE SMOOTH",
"40 61 OFFCURVE",
"119 -13 OFFCURVE",
"204 -13 CURVE SMOOTH"
);
},
{
closed = 1;
nodes = (
"187 58 OFFCURVE",
"136 101 OFFCURVE",
"136 225 CURVE SMOOTH",
"136 344 OFFCURVE",
"187 411 OFFCURVE",
"274 411 CURVE SMOOTH",
"305 411 OFFCURVE",
"335 403 OFFCURVE",
"362 385 CURVE",
"362 140 LINE",
"329 82 OFFCURVE",
"285 58 OFFCURVE",
"239 58 CURVE SMOOTH"
);
},
{
closed = 1;
nodes = (
"342 525 OFFCURVE",
"391 567 OFFCURVE",
"391 652 CURVE",
"341 652 LINE",
"341 616 OFFCURVE",
"313 595 OFFCURVE",
"278 595 CURVE SMOOTH",
"243 595 OFFCURVE",
"215 616 OFFCURVE",
"215 652 CURVE",
"165 652 LINE",
"165 567 OFFCURVE",
"214 525 OFFCURVE",
"278 525 CURVE SMOOTH"
);
}
);
width = 546;
}
);
leftKerningGroup = kc0_5;
unicode = 0103;
},
{
glyphname = acircumflex;
layers = (
{
layerId = "25D154CF-C470-4D68-A10D-6356F2BE0292";
paths = (
{
closed = 1;
nodes = (
"260 -13 OFFCURVE",
"311 9 OFFCURVE",
"362 83 CURVE",
"362 15 OFFCURVE",
"384 -13 OFFCURVE",
"434 -13 CURVE SMOOTH",
"464 -13 OFFCURVE",
"502 10 OFFCURVE",
"534 45 CURVE",
"517 68 LINE",
"501 57 OFFCURVE",
"485 52 OFFCURVE",
"472 52 CURVE SMOOTH",
"454 52 OFFCURVE",
"443 61 OFFCURVE",
"443 80 CURVE SMOOTH",
"443 375 LINE SMOOTH",
"443 392 OFFCURVE",
"448 399 OFFCURVE",
"455 411 CURVE",
"468 428 LINE",
"456 439 LINE",
"395 443 OFFCURVE",
"331 461 OFFCURVE",
"275 461 CURVE SMOOTH",
"131 461 OFFCURVE",
"40 364 OFFCURVE",
"40 208 CURVE SMOOTH",
"40 61 OFFCURVE",
"119 -13 OFFCURVE",
"204 -13 CURVE SMOOTH"
);
},
{
closed = 1;
nodes = (
"187 58 OFFCURVE",
"136 101 OFFCURVE",
"136 225 CURVE SMOOTH",
"136 344 OFFCURVE",
"187 411 OFFCURVE",
"274 411 CURVE SMOOTH",
"305 411 OFFCURVE",
"335 403 OFFCURVE",
"362 385 CURVE",
"362 140 LINE",
"329 82 OFFCURVE",
"285 58 OFFCURVE",
"239 58 CURVE SMOOTH"
);
},
{
closed = 1;
nodes = (
"273 590 LINE",
"369 517 LINE",
"397 540 LINE",
"357 611 OFFCURVE",
"307 672 OFFCURVE",
"286 684 CURVE",
"262 684 LINE",
"238 670 OFFCURVE",
"188 609 OFFCURVE",
"149 540 CURVE",
"180 517 LINE"
);
}
);
width = 546;
}
);
leftKerningGroup = kc0_5;
unicode = 00E2;
},
{
glyphname = adieresis;
layers = (
{
layerId = "25D154CF-C470-4D68-A10D-6356F2BE0292";
paths = (
{
closed = 1;
nodes = (
"260 -13 OFFCURVE",
"311 9 OFFCURVE",
"362 83 CURVE",
"362 15 OFFCURVE",
"384 -13 OFFCURVE",
"434 -13 CURVE SMOOTH",
"464 -13 OFFCURVE",
"502 10 OFFCURVE",
"534 45 CURVE",
"517 68 LINE",
"501 57 OFFCURVE",
"485 52 OFFCURVE",
"472 52 CURVE SMOOTH",
"454 52 OFFCURVE",
"443 61 OFFCURVE",
"443 80 CURVE SMOOTH",
"443 375 LINE SMOOTH",
"443 392 OFFCURVE",
"448 399 OFFCURVE",
"455 411 CURVE",
"468 428 LINE",
"456 439 LINE",
"395 443 OFFCURVE",
"331 461 OFFCURVE",
"275 461 CURVE SMOOTH",
"131 461 OFFCURVE",
"40 364 OFFCURVE",
"40 208 CURVE SMOOTH",
"40 61 OFFCURVE",
"119 -13 OFFCURVE",
"204 -13 CURVE SMOOTH"
);
},
{
closed = 1;
nodes = (
"187 58 OFFCURVE",
"136 101 OFFCURVE",
"136 225 CURVE SMOOTH",
"136 344 OFFCURVE",
"187 411 OFFCURVE",
"274 411 CURVE SMOOTH",
"305 411 OFFCURVE",
"335 403 OFFCURVE",
"362 385 CURVE",
"362 140 LINE",
"329 82 OFFCURVE",
"285 58 OFFCURVE",
"239 58 CURVE SMOOTH"
);
},
{
closed = 1;
nodes = (
"208 537 OFFCURVE",
"244 573 OFFCURVE",
"244 596 CURVE SMOOTH",
"244 619 OFFCURVE",
"208 655 OFFCURVE",
"186 655 CURVE SMOOTH",
"164 655 OFFCURVE",
"131 619 OFFCURVE",
"131 596 CURVE SMOOTH",
"131 573 OFFCURVE",
"165 537 OFFCURVE",
"186 537 CURVE SMOOTH"
);
},
{
closed = 1;
nodes = (
"380 537 OFFCURVE",
"416 573 OFFCURVE",
"416 596 CURVE SMOOTH",
"416 619 OFFCURVE",
"380 655 OFFCURVE",
"357 655 CURVE SMOOTH",
"336 655 OFFCURVE",
"303 619 OFFCURVE",
"303 596 CURVE SMOOTH",
"303 573 OFFCURVE",
"337 537 OFFCURVE",
"357 537 CURVE SMOOTH"
);
}
);
width = 546;
}
);
leftKerningGroup = kc0_5;
unicode = 00E4;
},
{
glyphname = agrave;
layers = (
{
layerId = "25D154CF-C470-4D68-A10D-6356F2BE0292";
paths = (
{
closed = 1;
nodes = (
"260 -13 OFFCURVE",
"311 9 OFFCURVE",
"362 83 CURVE",
"362 15 OFFCURVE",
"384 -13 OFFCURVE",
"434 -13 CURVE SMOOTH",
"464 -13 OFFCURVE",
"502 10 OFFCURVE",
"534 45 CURVE",
"517 68 LINE",
"501 57 OFFCURVE",
"485 52 OFFCURVE",
"472 52 CURVE SMOOTH",
"454 52 OFFCURVE",
"443 61 OFFCURVE",
"443 80 CURVE SMOOTH",
"443 375 LINE SMOOTH",
"443 392 OFFCURVE",
"448 399 OFFCURVE",
"455 411 CURVE",
"468 428 LINE",
"456 439 LINE",
"395 443 OFFCURVE",
"331 461 OFFCURVE",
"275 461 CURVE SMOOTH",
"131 461 OFFCURVE",
"40 364 OFFCURVE",
"40 208 CURVE SMOOTH",
"40 61 OFFCURVE",
"119 -13 OFFCURVE",
"204 -13 CURVE SMOOTH"
);
},
{
closed = 1;
nodes = (
"187 58 OFFCURVE",
"136 101 OFFCURVE",
"136 225 CURVE SMOOTH",
"136 344 OFFCURVE",
"187 411 OFFCURVE",
"274 411 CURVE SMOOTH",
"305 411 OFFCURVE",
"335 403 OFFCURVE",
"362 385 CURVE",
"362 140 LINE",
"329 82 OFFCURVE",
"285 58 OFFCURVE",
"239 58 CURVE SMOOTH"
);
},
{
closed = 1;
nodes = (
"363 547 LINE",
"223 688 LINE",
"199 677 OFFCURVE",
"184 658 OFFCURVE",
"184 631 CURVE SMOOTH",
"184 605 OFFCURVE",
"197 584 OFFCURVE",
"234 566 CURVE SMOOTH",
"338 517 LINE"
);
}
);
width = 546;
}
);
leftKerningGroup = kc0_5;
unicode = 00E0;
},
{
glyphname = amacron;
layers = (
{
layerId = "25D154CF-C470-4D68-A10D-6356F2BE0292";
paths = (
{
closed = 1;
nodes = (
"260 -13 OFFCURVE",
"311 9 OFFCURVE",
"362 83 CURVE",
"362 15 OFFCURVE",
"384 -13 OFFCURVE",
"434 -13 CURVE SMOOTH",
"464 -13 OFFCURVE",
"502 10 OFFCURVE",
"534 45 CURVE",
"517 68 LINE",
"501 57 OFFCURVE",
"485 52 OFFCURVE",
"472 52 CURVE SMOOTH",
"454 52 OFFCURVE",
"443 61 OFFCURVE",
"443 80 CURVE SMOOTH",
"443 375 LINE SMOOTH",
"443 392 OFFCURVE",
"448 399 OFFCURVE",
"455 411 CURVE",
"468 428 LINE",
"456 439 LINE",
"395 443 OFFCURVE",
"331 461 OFFCURVE",
"275 461 CURVE SMOOTH",
"131 461 OFFCURVE",
"40 364 OFFCURVE",
"40 208 CURVE SMOOTH",
"40 61 OFFCURVE",
"119 -13 OFFCURVE",
"204 -13 CURVE SMOOTH"
);
},
{
closed = 1;
nodes = (
"187 58 OFFCURVE",
"136 101 OFFCURVE",
"136 225 CURVE SMOOTH",
"136 344 OFFCURVE",
"187 411 OFFCURVE",
"274 411 CURVE SMOOTH",
"305 411 OFFCURVE",
"335 403 OFFCURVE",
"362 385 CURVE",
"362 140 LINE",
"329 82 OFFCURVE",
"285 58 OFFCURVE",
"239 58 CURVE SMOOTH"
);
},
{
closed = 1;
nodes = (
"393 559 LINE",
"410 574 OFFCURVE",
"416 608 OFFCURVE",
"416 631 CURVE",
"173 631 LINE",
"155 616 OFFCURVE",
"148 582 OFFCURVE",
"148 559 CURVE"
);
}
);
width = 546;
}
);
leftKerningGroup = kc0_5;
unicode = 0101;
},
{
glyphname = aogonek;
layers = (
{
layerId = "25D154CF-C470-4D68-A10D-6356F2BE0292";
paths = (
{
closed = 1;
nodes = (
"455 -253 OFFCURVE",
"506 -223 OFFCURVE",
"556 -160 CURVE",
"525 -133 LINE",
"494 -170 OFFCURVE",
"453 -190 OFFCURVE",
"421 -190 CURVE SMOOTH",
"390 -190 OFFCURVE",
"369 -173 OFFCURVE",
"369 -137 CURVE SMOOTH",
"369 -102 OFFCURVE",
"397 -54 OFFCURVE",
"478 0 CURVE",
"496 10 OFFCURVE",
"517 25 OFFCURVE",
"534 45 CURVE",
"517 68 LINE",
"501 57 OFFCURVE",
"485 52 OFFCURVE",
"472 52 CURVE SMOOTH",
"454 52 OFFCURVE",
"443 61 OFFCURVE",
"443 80 CURVE SMOOTH",
"443 375 LINE SMOOTH",
"443 392 OFFCURVE",
"448 399 OFFCURVE",
"455 411 CURVE",
"468 428 LINE",
"456 439 LINE",
"395 443 OFFCURVE",
"331 461 OFFCURVE",
"275 461 CURVE SMOOTH",
"131 461 OFFCURVE",
"40 364 OFFCURVE",
"40 208 CURVE SMOOTH",
"40 61 OFFCURVE",
"119 -13 OFFCURVE",
"204 -13 CURVE SMOOTH",
"260 -13 OFFCURVE",
"311 9 OFFCURVE",
"362 83 CURVE",
"362 32 OFFCURVE",
"374 4 OFFCURVE",
"400 -7 CURVE",
"330 -59 OFFCURVE",
"295 -103 OFFCURVE",
"295 -157 CURVE SMOOTH",
"295 -218 OFFCURVE",
"338 -253 OFFCURVE",
"396 -253 CURVE SMOOTH"
);
},
{
closed = 1;
nodes = (
"187 58 OFFCURVE",
"136 101 OFFCURVE",
"136 225 CURVE SMOOTH",
"136 344 OFFCURVE",
"187 411 OFFCURVE",
"274 411 CURVE SMOOTH",
"305 411 OFFCURVE",
"335 403 OFFCURVE",
"362 385 CURVE",
"362 140 LINE",
"329 82 OFFCURVE",
"285 58 OFFCURVE",
"239 58 CURVE SMOOTH"
);
}
);
width = 546;
}
);
leftKerningGroup = kc0_5;
unicode = 0105;
},
{
glyphname = aring;
layers = (
{
layerId = "25D154CF-C470-4D68-A10D-6356F2BE0292";
paths = (
{
closed = 1;
nodes = (
"260 -13 OFFCURVE",
"311 9 OFFCURVE",
"362 83 CURVE",
"362 15 OFFCURVE",
"384 -13 OFFCURVE",
"434 -13 CURVE SMOOTH",
"464 -13 OFFCURVE",
"502 10 OFFCURVE",
"534 45 CURVE",
"517 68 LINE",
"501 57 OFFCURVE",
"485 52 OFFCURVE",
"472 52 CURVE SMOOTH",
"454 52 OFFCURVE",
"443 61 OFFCURVE",
"443 80 CURVE SMOOTH",
"443 375 LINE SMOOTH",
"443 392 OFFCURVE",
"448 399 OFFCURVE",
"455 411 CURVE",
"468 428 LINE",
"456 439 LINE",
"395 443 OFFCURVE",
"331 461 OFFCURVE",
"275 461 CURVE SMOOTH",
"131 461 OFFCURVE",
"40 364 OFFCURVE",
"40 208 CURVE SMOOTH",
"40 61 OFFCURVE",
"119 -13 OFFCURVE",
"204 -13 CURVE SMOOTH"
);
},
{
closed = 1;
nodes = (
"187 58 OFFCURVE",
"136 101 OFFCURVE",
"136 225 CURVE SMOOTH",
"136 344 OFFCURVE",
"187 411 OFFCURVE",
"274 411 CURVE SMOOTH",
"305 411 OFFCURVE",
"335 403 OFFCURVE",
"362 385 CURVE",
"362 140 LINE",
"329 82 OFFCURVE",
"285 58 OFFCURVE",
"239 58 CURVE SMOOTH"
);
},
{
closed = 1;
nodes = (
"342 500 OFFCURVE",
"377 542 OFFCURVE",
"377 596 CURVE SMOOTH",
"377 650 OFFCURVE",
"342 693 OFFCURVE",
"272 693 CURVE SMOOTH",
"206 693 OFFCURVE",
"170 650 OFFCURVE",
"170 596 CURVE SMOOTH",
"170 542 OFFCURVE",
"206 500 OFFCURVE",
"272 500 CURVE SMOOTH"
);
},
{
closed = 1;
nodes = (
"249 543 OFFCURVE",
"233 567 OFFCURVE",
"233 596 CURVE SMOOTH",
"233 626 OFFCURVE",
"249 649 OFFCURVE",
"272 649 CURVE SMOOTH",
"299 649 OFFCURVE",
"312 626 OFFCURVE",
"312 596 CURVE SMOOTH",
"312 567 OFFCURVE",
"299 543 OFFCURVE",
"272 543 CURVE SMOOTH"
);
}
);
width = 546;
}
);
leftKerningGroup = kc0_5;
unicode = 00E5;
},
{
glyphname = aringacute;
layers = (
{
layerId = "25D154CF-C470-4D68-A10D-6356F2BE0292";
paths = (
{
closed = 1;
nodes = (
"260 -13 OFFCURVE",
"311 9 OFFCURVE",
"362 83 CURVE",
"362 15 OFFCURVE",
"384 -13 OFFCURVE",
"434 -13 CURVE SMOOTH",
"464 -13 OFFCURVE",
"502 10 OFFCURVE",
"534 45 CURVE",
"517 68 LINE",
"501 57 OFFCURVE",
"485 52 OFFCURVE",
"472 52 CURVE SMOOTH",
"454 52 OFFCURVE",
"443 61 OFFCURVE",
"443 80 CURVE SMOOTH",
"443 375 LINE SMOOTH",
"443 392 OFFCURVE",
"448 399 OFFCURVE",
"455 411 CURVE",
"468 428 LINE",
"456 439 LINE",
"395 443 OFFCURVE",
"331 461 OFFCURVE",
"275 461 CURVE SMOOTH",
"131 461 OFFCURVE",
"40 364 OFFCURVE",
"40 208 CURVE SMOOTH",
"40 61 OFFCURVE",
"119 -13 OFFCURVE",
"204 -13 CURVE SMOOTH"
);
},
{
closed = 1;
nodes = (
"187 58 OFFCURVE",
"136 101 OFFCURVE",
"136 225 CURVE SMOOTH",
"136 344 OFFCURVE",
"187 411 OFFCURVE",
"274 411 CURVE SMOOTH",
"305 411 OFFCURVE",
"335 403 OFFCURVE",
"362 385 CURVE",
"362 140 LINE",
"329 82 OFFCURVE",
"285 58 OFFCURVE",
"239 58 CURVE SMOOTH"
);
},
{
closed = 1;
nodes = (
"239 543 OFFCURVE",
"225 567 OFFCURVE",
"225 596 CURVE SMOOTH",
"225 626 OFFCURVE",
"239 649 OFFCURVE",
"263 649 CURVE SMOOTH",
"289 649 OFFCURVE",
"303 626 OFFCURVE",
"303 596 CURVE SMOOTH",
"303 567 OFFCURVE",
"289 543 OFFCURVE",
"263 543 CURVE SMOOTH"
);
},
{
closed = 1;
nodes = (
"332 500 OFFCURVE",
"368 542 OFFCURVE",
"368 596 CURVE SMOOTH",
"368 616 OFFCURVE",
"363 635 OFFCURVE",
"353 650 CURVE",
"396 672 LINE SMOOTH",
"430 688 OFFCURVE",
"441 709 OFFCURVE",
"441 730 CURVE SMOOTH",
"441 756 OFFCURVE",
"429 772 OFFCURVE",
"407 783 CURVE",
"311 685 LINE",
"297 689 OFFCURVE",
"280 693 OFFCURVE",
"263 693 CURVE SMOOTH",
"196 693 OFFCURVE",
"161 650 OFFCURVE",
"161 596 CURVE SMOOTH",
"161 542 OFFCURVE",
"196 500 OFFCURVE",
"263 500 CURVE SMOOTH"
);
}
);
width = 546;
}
);
leftKerningGroup = kc0_5;
unicode = 01FB;
},
{
glyphname = atilde;
layers = (
{
layerId = "25D154CF-C470-4D68-A10D-6356F2BE0292";
paths = (
{
closed = 1;
nodes = (
"260 -13 OFFCURVE",
"311 9 OFFCURVE",
"362 83 CURVE",
"362 15 OFFCURVE",
"384 -13 OFFCURVE",
"434 -13 CURVE SMOOTH",
"464 -13 OFFCURVE",
"502 10 OFFCURVE",
"534 45 CURVE",
"517 68 LINE",
"501 57 OFFCURVE",
"485 52 OFFCURVE",
"472 52 CURVE SMOOTH",
"454 52 OFFCURVE",
"443 61 OFFCURVE",
"443 80 CURVE SMOOTH",
"443 375 LINE SMOOTH",
"443 392 OFFCURVE",
"448 399 OFFCURVE",
"455 411 CURVE",
"468 428 LINE",
"456 439 LINE",
"395 443 OFFCURVE",
"331 461 OFFCURVE",
"275 461 CURVE SMOOTH",
"131 461 OFFCURVE",
"40 364 OFFCURVE",
"40 208 CURVE SMOOTH",
"40 61 OFFCURVE",
"119 -13 OFFCURVE",
"204 -13 CURVE SMOOTH"
);
},
{
closed = 1;
nodes = (
"187 58 OFFCURVE",
"136 101 OFFCURVE",
"136 225 CURVE SMOOTH",
"136 344 OFFCURVE",
"187 411 OFFCURVE",
"274 411 CURVE SMOOTH",
"305 411 OFFCURVE",
"335 403 OFFCURVE",
"362 385 CURVE",
"362 140 LINE",
"329 82 OFFCURVE",
"285 58 OFFCURVE",
"239 58 CURVE SMOOTH"
);
},
{
closed = 1;
nodes = (
"182 561 OFFCURVE",
"203 570 OFFCURVE",
"218 570 CURVE SMOOTH",
"247 570 OFFCURVE",
"263 539 OFFCURVE",
"305 539 CURVE SMOOTH",
"339 539 OFFCURVE",
"383 574 OFFCURVE",
"420 627 CURVE",
"390 655 LINE",
"362 629 OFFCURVE",
"343 619 OFFCURVE",
"327 619 CURVE SMOOTH",
"299 619 OFFCURVE",
"280 651 OFFCURVE",
"242 651 CURVE SMOOTH",
"208 651 OFFCURVE",
"165 617 OFFCURVE",
"126 564 CURVE",
"158 535 LINE"
);
}
);
width = 546;
}
);
leftKerningGroup = kc0_5;
unicode = 00E3;
},
{
glyphname = ae;
layers = (
{
layerId = "25D154CF-C470-4D68-A10D-6356F2BE0292";
paths = (
{
closed = 1;
nodes = (
"278 -13 OFFCURVE",
"341 28 OFFCURVE",
"371 96 CURVE",
"405 28 OFFCURVE",
"470 -13 OFFCURVE",
"553 -13 CURVE SMOOTH",
"625 -13 OFFCURVE",
"688 15 OFFCURVE",
"733 68 CURVE",
"735 70 OFFCURVE",
"736 73 OFFCURVE",
"736 77 CURVE SMOOTH",
"736 89 OFFCURVE",
"723 102 OFFCURVE",
"713 102 CURVE SMOOTH",
"709 102 OFFCURVE",
"706 101 OFFCURVE",
"704 99 CURVE SMOOTH",
"668 63 OFFCURVE",
"623 47 OFFCURVE",
"572 47 CURVE SMOOTH",
"485 47 OFFCURVE",
"438 112 OFFCURVE",
"438 219 CURVE SMOOTH",
"438 347 OFFCURVE",
"485 417 OFFCURVE",
"563 417 CURVE SMOOTH",
"620 417 OFFCURVE",
"648 374 OFFCURVE",
"648 329 CURVE SMOOTH",
"648 277 OFFCURVE",
"610 227 OFFCURVE",
"533 227 CURVE SMOOTH",
"496 227 OFFCURVE",
"484 238 OFFCURVE",
"475 238 CURVE SMOOTH",
"468 238 OFFCURVE",
"460 229 OFFCURVE",
"460 218 CURVE SMOOTH",
"460 186 OFFCURVE",
"535 176 OFFCURVE",
"562 176 CURVE SMOOTH",
"675 176 OFFCURVE",
"734 254 OFFCURVE",
"734 328 CURVE SMOOTH",
"734 396 OFFCURVE",
"684 461 OFFCURVE",
"580 461 CURVE SMOOTH",
"500 461 OFFCURVE",
"436 431 OFFCURVE",
"396 380 CURVE",
"359 431 OFFCURVE",
"302 461 OFFCURVE",
"229 461 CURVE SMOOTH",
"126 461 OFFCURVE",
"53 405 OFFCURVE",
"53 388 CURVE SMOOTH",
"53 375 OFFCURVE",
"67 361 OFFCURVE",
"77 361 CURVE SMOOTH",
"90 361 OFFCURVE",
"112 402 OFFCURVE",
"211 402 CURVE SMOOTH",
"299 402 OFFCURVE",
"345 337 OFFCURVE",
"345 229 CURVE SMOOTH",
"345 104 OFFCURVE",
"296 36 OFFCURVE",
"213 36 CURVE SMOOTH",
"155 36 OFFCURVE",
"127 76 OFFCURVE",
"127 119 CURVE SMOOTH",
"127 173 OFFCURVE",
"165 227 OFFCURVE",
"241 227 CURVE SMOOTH",
"284 227 OFFCURVE",
"298 215 OFFCURVE",
"309 215 CURVE SMOOTH",
"315 215 OFFCURVE",
"322 224 OFFCURVE",
"322 234 CURVE SMOOTH",
"322 266 OFFCURVE",
"241 277 OFFCURVE",
"214 277 CURVE SMOOTH",
"101 277 OFFCURVE",
"40 196 OFFCURVE",
"40 120 CURVE SMOOTH",
"40 52 OFFCURVE",
"91 -13 OFFCURVE",
"194 -13 CURVE SMOOTH"
);
}
);
width = 784;
}
);
leftKerningGroup = kc0_5;
unicode = 00E6;
},
{
glyphname = aeacute;
layers = (
{
layerId = "25D154CF-C470-4D68-A10D-6356F2BE0292";
paths = (
{
closed = 1;
nodes = (
"278 -13 OFFCURVE",
"341 28 OFFCURVE",
"371 96 CURVE",
"405 28 OFFCURVE",
"470 -13 OFFCURVE",
"553 -13 CURVE SMOOTH",
"625 -13 OFFCURVE",
"688 15 OFFCURVE",
"733 68 CURVE",
"735 70 OFFCURVE",
"736 73 OFFCURVE",
"736 77 CURVE SMOOTH",
"736 89 OFFCURVE",
"723 102 OFFCURVE",
"713 102 CURVE SMOOTH",
"709 102 OFFCURVE",
"706 101 OFFCURVE",
"704 99 CURVE SMOOTH",
"668 63 OFFCURVE",
"623 47 OFFCURVE",
"572 47 CURVE SMOOTH",
"485 47 OFFCURVE",
"438 112 OFFCURVE",
"438 219 CURVE SMOOTH",
"438 347 OFFCURVE",
"485 417 OFFCURVE",
"563 417 CURVE SMOOTH",
"620 417 OFFCURVE",
"648 374 OFFCURVE",
"648 329 CURVE SMOOTH",
"648 277 OFFCURVE",
"610 227 OFFCURVE",
"533 227 CURVE SMOOTH",
"496 227 OFFCURVE",
"484 238 OFFCURVE",
"475 238 CURVE SMOOTH",
"468 238 OFFCURVE",
"460 229 OFFCURVE",
"460 218 CURVE SMOOTH",
"460 186 OFFCURVE",
"535 176 OFFCURVE",
"562 176 CURVE SMOOTH",
"675 176 OFFCURVE",
"734 254 OFFCURVE",
"734 328 CURVE SMOOTH",
"734 396 OFFCURVE",
"684 461 OFFCURVE",
"580 461 CURVE SMOOTH",
"500 461 OFFCURVE",
"436 431 OFFCURVE",
"396 380 CURVE",
"359 431 OFFCURVE",
"302 461 OFFCURVE",
"229 461 CURVE SMOOTH",
"126 461 OFFCURVE",
"53 405 OFFCURVE",
"53 388 CURVE SMOOTH",
"53 375 OFFCURVE",
"67 361 OFFCURVE",
"77 361 CURVE SMOOTH",
"90 361 OFFCURVE",
"112 402 OFFCURVE",
"211 402 CURVE SMOOTH",
"299 402 OFFCURVE",
"345 337 OFFCURVE",
"345 229 CURVE SMOOTH",
"345 104 OFFCURVE",
"296 36 OFFCURVE",
"213 36 CURVE SMOOTH",
"155 36 OFFCURVE",
"127 76 OFFCURVE",
"127 119 CURVE SMOOTH",
"127 173 OFFCURVE",
"165 227 OFFCURVE",
"241 227 CURVE SMOOTH",
"284 227 OFFCURVE",
"298 215 OFFCURVE",
"309 215 CURVE SMOOTH",
"315 215 OFFCURVE",
"322 224 OFFCURVE",
"322 234 CURVE SMOOTH",
"322 266 OFFCURVE",
"241 277 OFFCURVE",
"214 277 CURVE SMOOTH",
"101 277 OFFCURVE",
"40 196 OFFCURVE",
"40 120 CURVE SMOOTH",
"40 52 OFFCURVE",
"91 -13 OFFCURVE",
"194 -13 CURVE SMOOTH"
);
},
{
closed = 1;
nodes = (
"439 566 LINE SMOOTH",
"476 584 OFFCURVE",
"489 605 OFFCURVE",
"489 631 CURVE SMOOTH",
"489 658 OFFCURVE",
"475 677 OFFCURVE",
"451 688 CURVE",
"311 547 LINE",
"337 517 LINE"
);
}
);
width = 784;
}
);
leftKerningGroup = kc0_5;
unicode = 01FD;
},
{
glyphname = b;
layers = (
{
layerId = "25D154CF-C470-4D68-A10D-6356F2BE0292";
paths = (
{
closed = 1;
nodes = (
"394 -13 OFFCURVE",
"493 96 OFFCURVE",
"493 242 CURVE SMOOTH",
"493 371 OFFCURVE",
"414 461 OFFCURVE",
"302 461 CURVE SMOOTH",
"271 461 OFFCURVE",
"239 454 OFFCURVE",
"210 437 CURVE",
"205 433 OFFCURVE",
"201 426 OFFCURVE",
"201 419 CURVE SMOOTH",
"201 409 OFFCURVE",
"208 400 OFFCURVE",
"215 400 CURVE SMOOTH",
"224 400 OFFCURVE",
"235 411 OFFCURVE",
"272 411 CURVE SMOOTH",
"348 411 OFFCURVE",
"397 336 OFFCURVE",
"397 225 CURVE SMOOTH",
"397 110 OFFCURVE",
"347 38 OFFCURVE",
"266 38 CURVE SMOOTH",
"228 38 OFFCURVE",
"199 47 OFFCURVE",
"172 67 CURVE",
"172 680 LINE SMOOTH",
"172 697 OFFCURVE",
"160 709 OFFCURVE",
"143 709 CURVE SMOOTH",
"107 709 OFFCURVE",
"57 686 OFFCURVE",
"22 654 CURVE",
"31 631 LINE",
"70 631 LINE SMOOTH",
"83 631 OFFCURVE",
"88 626 OFFCURVE",
"88 611 CURVE SMOOTH",
"88 45 LINE",
"124 10 OFFCURVE",
"188 -13 OFFCURVE",
"259 -13 CURVE SMOOTH"
);
}
);
width = 533;
}
);
unicode = 0062;
},
{
glyphname = c;
layers = (
{
layerId = "25D154CF-C470-4D68-A10D-6356F2BE0292";
paths = (
{
closed = 1;
nodes = (
"321 -13 OFFCURVE",
"380 14 OFFCURVE",
"423 63 CURVE",
"425 63 OFFCURVE",
"425 67 OFFCURVE",
"425 70 CURVE SMOOTH",
"425 82 OFFCURVE",
"412 96 OFFCURVE",
"402 96 CURVE SMOOTH",
"398 96 OFFCURVE",
"395 95 OFFCURVE",
"394 94 CURVE",
"356 63 OFFCURVE",
"319 48 OFFCURVE",
"274 48 CURVE SMOOTH",
"188 48 OFFCURVE",
"135 119 OFFCURVE",
"135 230 CURVE SMOOTH",
"135 341 OFFCURVE",
"181 414 OFFCURVE",
"250 414 CURVE SMOOTH",
"302 414 OFFCURVE",
"336 385 OFFCURVE",
"336 337 CURVE SMOOTH",
"336 285 OFFCURVE",
"313 271 OFFCURVE",
"313 262 CURVE SMOOTH",
"313 255 OFFCURVE",
"318 253 OFFCURVE",
"330 253 CURVE SMOOTH",
"382 253 OFFCURVE",
"419 289 OFFCURVE",
"419 341 CURVE SMOOTH",
"419 411 OFFCURVE",
"354 461 OFFCURVE",
"260 461 CURVE SMOOTH",
"127 461 OFFCURVE",
"40 369 OFFCURVE",
"40 224 CURVE SMOOTH",
"40 88 OFFCURVE",
"132 -13 OFFCURVE",
"260 -13 CURVE SMOOTH"
);
}
);
width = 460;
}
);
leftKerningGroup = kc0_7;
unicode = 0063;
},
{
glyphname = cacute;
layers = (
{
layerId = "25D154CF-C470-4D68-A10D-6356F2BE0292";
paths = (
{
closed = 1;
nodes = (
"321 -13 OFFCURVE",
"380 14 OFFCURVE",
"423 63 CURVE",
"425 63 OFFCURVE",
"425 67 OFFCURVE",
"425 70 CURVE SMOOTH",
"425 82 OFFCURVE",
"412 96 OFFCURVE",
"402 96 CURVE SMOOTH",
"398 96 OFFCURVE",
"395 95 OFFCURVE",
"394 94 CURVE",
"356 63 OFFCURVE",
"319 48 OFFCURVE",
"274 48 CURVE SMOOTH",
"188 48 OFFCURVE",
"135 119 OFFCURVE",
"135 230 CURVE SMOOTH",
"135 341 OFFCURVE",
"181 414 OFFCURVE",
"250 414 CURVE SMOOTH",
"302 414 OFFCURVE",
"336 385 OFFCURVE",
"336 337 CURVE SMOOTH",
"336 285 OFFCURVE",
"313 271 OFFCURVE",
"313 262 CURVE SMOOTH",
"313 255 OFFCURVE",
"318 253 OFFCURVE",
"330 253 CURVE SMOOTH",
"382 253 OFFCURVE",
"419 289 OFFCURVE",
"419 341 CURVE SMOOTH",
"419 411 OFFCURVE",
"354 461 OFFCURVE",
"260 461 CURVE SMOOTH",
"127 461 OFFCURVE",
"40 369 OFFCURVE",
"40 224 CURVE SMOOTH",
"40 88 OFFCURVE",
"132 -13 OFFCURVE",
"260 -13 CURVE SMOOTH"
);
},
{
closed = 1;
nodes = (
"316 566 LINE SMOOTH",
"353 584 OFFCURVE",
"367 605 OFFCURVE",
"367 631 CURVE SMOOTH",
"367 658 OFFCURVE",
"352 677 OFFCURVE",
"328 688 CURVE",
"188 547 LINE",
"214 517 LINE"
);
}
);
width = 460;
}
);
leftKerningGroup = kc0_7;
unicode = 0107;
},
{
glyphname = ccaron;
layers = (
{
layerId = "25D154CF-C470-4D68-A10D-6356F2BE0292";
paths = (
{
closed = 1;
nodes = (
"321 -13 OFFCURVE",
"380 14 OFFCURVE",
"423 63 CURVE",
"425 63 OFFCURVE",
"425 67 OFFCURVE",
"425 70 CURVE SMOOTH",
"425 82 OFFCURVE",
"412 96 OFFCURVE",
"402 96 CURVE SMOOTH",
"398 96 OFFCURVE",
"395 95 OFFCURVE",
"394 94 CURVE",
"356 63 OFFCURVE",
"319 48 OFFCURVE",
"274 48 CURVE SMOOTH",
"188 48 OFFCURVE",
"135 119 OFFCURVE",
"135 230 CURVE SMOOTH",
"135 341 OFFCURVE",
"181 414 OFFCURVE",
"250 414 CURVE SMOOTH",
"302 414 OFFCURVE",
"336 385 OFFCURVE",
"336 337 CURVE SMOOTH",
"336 285 OFFCURVE",
"313 271 OFFCURVE",
"313 262 CURVE SMOOTH",
"313 255 OFFCURVE",
"318 253 OFFCURVE",
"330 253 CURVE SMOOTH",
"382 253 OFFCURVE",
"419 289 OFFCURVE",
"419 341 CURVE SMOOTH",
"419 411 OFFCURVE",
"354 461 OFFCURVE",
"260 461 CURVE SMOOTH",
"127 461 OFFCURVE",
"40 369 OFFCURVE",
"40 224 CURVE SMOOTH",
"40 88 OFFCURVE",
"132 -13 OFFCURVE",
"260 -13 CURVE SMOOTH"
);
},
{
closed = 1;
nodes = (
"272 523 LINE",
"293 535 OFFCURVE",
"345 596 OFFCURVE",
"385 667 CURVE",
"355 693 LINE",
"260 616 LINE",
"166 693 LINE",
"136 667 LINE",
"175 598 OFFCURVE",
"225 537 OFFCURVE",
"248 523 CURVE"
);
}
);
width = 460;
}
);
leftKerningGroup = kc0_7;
unicode = 010D;
},
{
glyphname = ccedilla;
layers = (
{
layerId = "25D154CF-C470-4D68-A10D-6356F2BE0292";
paths = (
{
closed = 1;
nodes = (
"280 -267 OFFCURVE",
"332 -220 OFFCURVE",
"332 -162 CURVE SMOOTH",
"332 -93 OFFCURVE",
"283 -60 OFFCURVE",
"230 -60 CURVE SMOOTH",
"219 -60 OFFCURVE",
"208 -61 OFFCURVE",
"196 -63 CURVE",
"236 -12 LINE",
"245 -12 OFFCURVE",
"251 -13 OFFCURVE",
"260 -13 CURVE SMOOTH",
"321 -13 OFFCURVE",
"380 14 OFFCURVE",
"423 63 CURVE",
"425 63 OFFCURVE",
"425 67 OFFCURVE",
"425 70 CURVE SMOOTH",
"425 82 OFFCURVE",
"412 96 OFFCURVE",
"402 96 CURVE SMOOTH",
"398 96 OFFCURVE",
"395 95 OFFCURVE",
"394 94 CURVE",
"356 63 OFFCURVE",
"319 48 OFFCURVE",
"274 48 CURVE SMOOTH",
"188 48 OFFCURVE",
"135 119 OFFCURVE",
"135 230 CURVE SMOOTH",
"135 341 OFFCURVE",
"181 414 OFFCURVE",
"250 414 CURVE SMOOTH",
"302 414 OFFCURVE",
"336 385 OFFCURVE",
"336 337 CURVE SMOOTH",
"336 285 OFFCURVE",
"313 271 OFFCURVE",
"313 262 CURVE SMOOTH",
"313 255 OFFCURVE",
"318 253 OFFCURVE",
"330 253 CURVE SMOOTH",
"382 253 OFFCURVE",
"419 289 OFFCURVE",
"419 341 CURVE SMOOTH",
"419 411 OFFCURVE",
"354 461 OFFCURVE",
"260 461 CURVE SMOOTH",
"127 461 OFFCURVE",
"40 369 OFFCURVE",
"40 224 CURVE SMOOTH",
"40 107 OFFCURVE",
"106 19 OFFCURVE",
"205 -5 CURVE",
"138 -93 LINE",
"156 -108 LINE",
"175 -98 OFFCURVE",
"191 -94 OFFCURVE",
"205 -94 CURVE SMOOTH",
"247 -94 OFFCURVE",
"266 -127 OFFCURVE",
"266 -161 CURVE SMOOTH",
"266 -194 OFFCURVE",
"246 -229 OFFCURVE",
"209 -229 CURVE SMOOTH",
"190 -229 OFFCURVE",
"172 -216 OFFCURVE",
"172 -193 CURVE SMOOTH",
"172 -167 OFFCURVE",
"185 -162 OFFCURVE",
"185 -153 CURVE SMOOTH",
"185 -148 OFFCURVE",
"179 -145 OFFCURVE",
"168 -145 CURVE SMOOTH",
"138 -145 OFFCURVE",
"111 -165 OFFCURVE",
"111 -197 CURVE SMOOTH",
"111 -243 OFFCURVE",
"160 -267 OFFCURVE",
"210 -267 CURVE SMOOTH"
);
}
);
width = 460;
}
);
leftKerningGroup = kc0_7;
unicode = 00E7;
},
{
glyphname = ccircumflex;
layers = (
{
layerId = "25D154CF-C470-4D68-A10D-6356F2BE0292";
paths = (
{
closed = 1;
nodes = (
"321 -13 OFFCURVE",
"380 14 OFFCURVE",
"423 63 CURVE",
"425 63 OFFCURVE",
"425 67 OFFCURVE",
"425 70 CURVE SMOOTH",
"425 82 OFFCURVE",
"412 96 OFFCURVE",
"402 96 CURVE SMOOTH",
"398 96 OFFCURVE",
"395 95 OFFCURVE",
"394 94 CURVE",
"356 63 OFFCURVE",
"319 48 OFFCURVE",
"274 48 CURVE SMOOTH",
"188 48 OFFCURVE",
"135 119 OFFCURVE",
"135 230 CURVE SMOOTH",
"135 341 OFFCURVE",
"181 414 OFFCURVE",
"250 414 CURVE SMOOTH",
"302 414 OFFCURVE",
"336 385 OFFCURVE",
"336 337 CURVE SMOOTH",
"336 285 OFFCURVE",
"313 271 OFFCURVE",
"313 262 CURVE SMOOTH",
"313 255 OFFCURVE",
"318 253 OFFCURVE",
"330 253 CURVE SMOOTH",
"382 253 OFFCURVE",
"419 289 OFFCURVE",
"419 341 CURVE SMOOTH",
"419 411 OFFCURVE",
"354 461 OFFCURVE",
"260 461 CURVE SMOOTH",
"127 461 OFFCURVE",
"40 369 OFFCURVE",
"40 224 CURVE SMOOTH",
"40 88 OFFCURVE",
"132 -13 OFFCURVE",
"260 -13 CURVE SMOOTH"
);
},
{
closed = 1;
nodes = (
"260 590 LINE",
"355 517 LINE",
"385 540 LINE",
"345 611 OFFCURVE",
"293 672 OFFCURVE",
"272 684 CURVE",
"248 684 LINE",
"225 670 OFFCURVE",
"175 609 OFFCURVE",
"136 540 CURVE",
"166 517 LINE"
);
}
);
width = 460;
}
);
leftKerningGroup = kc0_7;
unicode = 0109;
},
{
glyphname = cdotaccent;
layers = (
{
layerId = "25D154CF-C470-4D68-A10D-6356F2BE0292";
paths = (
{
closed = 1;
nodes = (
"321 -13 OFFCURVE",
"380 14 OFFCURVE",
"423 63 CURVE",
"425 63 OFFCURVE",
"425 67 OFFCURVE",
"425 70 CURVE SMOOTH",
"425 82 OFFCURVE",
"412 96 OFFCURVE",
"402 96 CURVE SMOOTH",
"398 96 OFFCURVE",
"395 95 OFFCURVE",
"394 94 CURVE",
"356 63 OFFCURVE",
"319 48 OFFCURVE",
"274 48 CURVE SMOOTH",
"188 48 OFFCURVE",
"135 119 OFFCURVE",
"135 230 CURVE SMOOTH",
"135 341 OFFCURVE",
"181 414 OFFCURVE",
"250 414 CURVE SMOOTH",
"302 414 OFFCURVE",
"336 385 OFFCURVE",
"336 337 CURVE SMOOTH",
"336 285 OFFCURVE",
"313 271 OFFCURVE",
"313 262 CURVE SMOOTH",
"313 255 OFFCURVE",
"318 253 OFFCURVE",
"330 253 CURVE SMOOTH",
"382 253 OFFCURVE",
"419 289 OFFCURVE",
"419 341 CURVE SMOOTH",
"419 411 OFFCURVE",
"354 461 OFFCURVE",
"260 461 CURVE SMOOTH",
"127 461 OFFCURVE",
"40 369 OFFCURVE",
"40 224 CURVE SMOOTH",
"40 88 OFFCURVE",
"132 -13 OFFCURVE",
"260 -13 CURVE SMOOTH"
);
},
{
closed = 1;
nodes = (
"287 527 OFFCURVE",
"325 569 OFFCURVE",
"325 596 CURVE SMOOTH",
"325 624 OFFCURVE",
"287 665 OFFCURVE",
"260 665 CURVE SMOOTH",
"234 665 OFFCURVE",
"196 624 OFFCURVE",
"196 596 CURVE SMOOTH",
"196 569 OFFCURVE",
"236 527 OFFCURVE",
"260 527 CURVE SMOOTH"
);
}
);
width = 460;
}
);
leftKerningGroup = kc0_7;
unicode = 010B;
},
{
glyphname = d;
layers = (
{
layerId = "25D154CF-C470-4D68-A10D-6356F2BE0292";
paths = (
{
closed = 1;
nodes = (
"260 -13 OFFCURVE",
"311 9 OFFCURVE",
"362 83 CURVE",
"362 15 OFFCURVE",
"384 -13 OFFCURVE",
"434 -13 CURVE SMOOTH",
"464 -13 OFFCURVE",
"502 10 OFFCURVE",
"534 45 CURVE",
"517 68 LINE",
"501 57 OFFCURVE",
"485 52 OFFCURVE",
"472 52 CURVE SMOOTH",
"454 52 OFFCURVE",
"443 61 OFFCURVE",
"443 80 CURVE SMOOTH",
"443 680 LINE SMOOTH",
"443 697 OFFCURVE",
"432 709 OFFCURVE",
"414 709 CURVE SMOOTH",
"381 709 OFFCURVE",
"330 686 OFFCURVE",
"296 654 CURVE",
"304 631 LINE",
"344 631 LINE SMOOTH",
"356 631 OFFCURVE",
"361 626 OFFCURVE",
"361 611 CURVE SMOOTH",
"361 450 LINE",
"334 459 OFFCURVE",
"307 461 OFFCURVE",
"275 461 CURVE SMOOTH",
"131 461 OFFCURVE",
"40 364 OFFCURVE",
"40 208 CURVE SMOOTH",
"40 61 OFFCURVE",
"119 -13 OFFCURVE",
"204 -13 CURVE SMOOTH"
);
},
{
closed = 1;
nodes = (
"187 58 OFFCURVE",
"136 101 OFFCURVE",
"136 225 CURVE SMOOTH",
"136 344 OFFCURVE",
"187 411 OFFCURVE",
"274 411 CURVE SMOOTH",
"305 411 OFFCURVE",
"335 403 OFFCURVE",
"362 385 CURVE",
"362 140 LINE",
"329 82 OFFCURVE",
"285 58 OFFCURVE",
"239 58 CURVE SMOOTH"
);
}
);
width = 546;
}
);
leftKerningGroup = kc0_7;
unicode = 0064;
},
{
glyphname = eth;
layers = (
{
layerId = "25D154CF-C470-4D68-A10D-6356F2BE0292";
paths = (
{
closed = 1;
nodes = (
"401 -13 OFFCURVE",
"490 76 OFFCURVE",
"490 216 CURVE SMOOTH",
"490 305 OFFCURVE",
"470 457 OFFCURVE",
"411 570 CURVE",
"486 606 LINE SMOOTH",
"503 615 OFFCURVE",
"506 635 OFFCURVE",
"506 682 CURVE",
"383 619 LINE",
"343 677 OFFCURVE",
"286 716 OFFCURVE",
"215 716 CURVE SMOOTH",
"114 716 OFFCURVE",
"67 658 OFFCURVE",
"67 603 CURVE SMOOTH",
"67 553 OFFCURVE",
"102 506 OFFCURVE",
"168 506 CURVE SMOOTH",
"180 506 OFFCURVE",
"183 512 OFFCURVE",
"183 517 CURVE SMOOTH",
"183 526 OFFCURVE",
"144 542 OFFCURVE",
"144 602 CURVE SMOOTH",
"144 641 OFFCURVE",
"169 674 OFFCURVE",
"214 674 CURVE SMOOTH",
"256 674 OFFCURVE",
"293 642 OFFCURVE",
"323 589 CURVE",
"277 566 LINE SMOOTH",
"262 560 OFFCURVE",
"258 539 OFFCURVE",
"258 493 CURVE",
"348 538 LINE",
"365 495 OFFCURVE",
"380 444 OFFCURVE",
"391 390 CURVE",
"356 428 OFFCURVE",
"312 443 OFFCURVE",
"265 443 CURVE SMOOTH",
"125 443 OFFCURVE",
"39 356 OFFCURVE",
"39 216 CURVE SMOOTH",
"39 76 OFFCURVE",
"125 -13 OFFCURVE",
"265 -13 CURVE SMOOTH"
);
},
{
closed = 1;
nodes = (
"192 36 OFFCURVE",
"133 106 OFFCURVE",
"133 216 CURVE SMOOTH",
"133 326 OFFCURVE",
"183 396 OFFCURVE",
"262 396 CURVE SMOOTH",
"347 396 OFFCURVE",
"405 319 OFFCURVE",
"405 208 CURVE SMOOTH",
"405 102 OFFCURVE",
"355 36 OFFCURVE",
"275 36 CURVE SMOOTH"
);
}
);
width = 528;
}
);
leftKerningGroup = kc0_7;
unicode = 00F0;
},
